<?xml version="1.0" encoding="UTF-8" standalone="no"?><svg xmlns="http://www.w3.org/2000/svg" xmlns:xlink="http://www.w3.org/1999/xlink" contentScriptType="application/ecmascript" contentStyleType="text/css" height="334px" preserveAspectRatio="none" style="width:717px;height:334px;" version="1.1" viewBox="0 0 717 334" width="717px" zoomAndPan="magnify"><defs/><g><text fill="#000000" font-family="Source Sans Pro Semibold" font-size="18" lengthAdjust="spacingAndGlyphs" textLength="145" x="290" y="17.4023">AccountManager</text><!--class ContractProvider--><rect fill="#F8F8F8" height="67.2207" id="ContractProvider" style="stroke: #383838; stroke-width: 1.5;" width="210" x="496.5" y="234.6992"/><ellipse cx="549.25" cy="253.832" fill="#B1B1B1" rx="11" ry="11" style="stroke: #383838; stroke-width: 1.0;"/><path d="M545.1777,249.5972 L545.1777,247.439 L552.5571,247.439 L552.5571,249.5972 L550.0918,249.5972 L550.0918,257.6738 L552.5571,257.6738 L552.5571,259.832 L545.1777,259.832 L545.1777,257.6738 L547.6431,257.6738 L547.6431,249.5972 Z "/><text fill="#000000" font-family="Source Sans Pro Semibold" font-size="12" font-style="italic" lengthAdjust="spacingAndGlyphs" textLength="62" x="586.75" y="251.3008">«Interface»</text><text fill="#000000" font-family="Source Sans Pro Semibold" font-size="12" font-style="italic" lengthAdjust="spacingAndGlyphs" textLength="96" x="569.75" y="265.4336">ContractProvider</text><line style="stroke: #383838; stroke-width: 1.5;" x1="497.5" x2="705.5" y1="272.9648" y2="272.9648"/><line style="stroke: #383838; stroke-width: 1.5;" x1="497.5" x2="705.5" y1="280.9648" y2="280.9648"/><text fill="#000000" font-family="Source Sans Pro Semibold" font-size="11" lengthAdjust="spacingAndGlyphs" textLength="198" x="502.5" y="295.5996">+contracts(name: bytes32) : address</text><!--class ManagedContract--><rect fill="#F8F8F8" height="110.0859" id="ManagedContract" style="stroke: #383838; stroke-width: 1.5;" width="401" x="16" y="213.1992"/><ellipse cx="161.75" cy="232.332" fill="#C2C2C2" rx="11" ry="11" style="stroke: #383838; stroke-width: 1.0;"/><path d="M164.7231,237.9751 Q164.1421,238.2739 163.5029,238.4233 Q162.8638,238.5728 162.1582,238.5728 Q159.6514,238.5728 158.3315,236.9209 Q157.0117,235.269 157.0117,232.1479 Q157.0117,229.0186 158.3315,227.3667 Q159.6514,225.7148 162.1582,225.7148 Q162.8638,225.7148 163.5112,225.8643 Q164.1587,226.0137 164.7231,226.3125 L164.7231,229.0352 Q164.0923,228.4541 163.4988,228.1843 Q162.9053,227.9146 162.2744,227.9146 Q160.9297,227.9146 160.2449,228.9812 Q159.5601,230.0479 159.5601,232.1479 Q159.5601,234.2397 160.2449,235.3064 Q160.9297,236.373 162.2744,236.373 Q162.9053,236.373 163.4988,236.1033 Q164.0923,235.8335 164.7231,235.2524 Z "/><text fill="#000000" font-family="Source Sans Pro Semibold" font-size="12" font-style="italic" lengthAdjust="spacingAndGlyphs" textLength="60" x="202.75" y="229.8008">«Contract»</text><text fill="#000000" font-family="Source Sans Pro Semibold" font-size="12" lengthAdjust="spacingAndGlyphs" textLength="101" x="182.25" y="243.9336">ManagedContract</text><line style="stroke: #383838; stroke-width: 1.5;" x1="17" x2="416" y1="251.4648" y2="251.4648"/><text fill="#000000" font-family="Source Sans Pro Semibold" font-size="11" lengthAdjust="spacingAndGlyphs" textLength="81" x="22" y="266.0996">#MAN: address</text><line style="stroke: #383838; stroke-width: 1.5;" x1="17" x2="416" y1="272.4199" y2="272.4199"/><text fill="#000000" font-family="Source Sans Pro Semibold" font-size="11" lengthAdjust="spacingAndGlyphs" textLength="389" x="22" y="287.0547">+setContractManagerAddress(contractManagerAddress: address) : bool</text><text fill="#000000" font-family="Source Sans Pro Semibold" font-size="11" lengthAdjust="spacingAndGlyphs" textLength="213" x="22" y="316.9648">#permission(permittedSender: bytes32)</text><line style="stroke: #383838; stroke-width: 1.0; stroke-dasharray: 1.0,2.0;" x1="17" x2="194.5" y1="299.8525" y2="299.8525"/><text fill="#000000" font-family="Source Sans Pro Semibold" font-size="11" lengthAdjust="spacingAndGlyphs" textLength="44" x="194.5" y="303.5098">Modifier</text><line style="stroke: #383838; stroke-width: 1.0; stroke-dasharray: 1.0,2.0;" x1="238.5" x2="416" y1="299.8525" y2="299.8525"/><!--class AccountManager--><rect fill="#F8F8F8" height="123.041" id="AccountManager" style="stroke: #383838; stroke-width: 1.5;" width="421" x="6" y="29.1992"/><ellipse cx="164.75" cy="48.332" fill="#C2C2C2" rx="11" ry="11" style="stroke: #383838; stroke-width: 1.0;"/><path d="M167.7231,53.9751 Q167.1421,54.2739 166.5029,54.4233 Q165.8638,54.5728 165.1582,54.5728 Q162.6514,54.5728 161.3315,52.9209 Q160.0117,51.269 160.0117,48.1479 Q160.0117,45.0186 161.3315,43.3667 Q162.6514,41.7148 165.1582,41.7148 Q165.8638,41.7148 166.5112,41.8643 Q167.1587,42.0137 167.7231,42.3125 L167.7231,45.0352 Q167.0923,44.4541 166.4988,44.1843 Q165.9053,43.9146 165.2744,43.9146 Q163.9297,43.9146 163.2449,44.9812 Q162.5601,46.0479 162.5601,48.1479 Q162.5601,50.2397 163.2449,51.3064 Q163.9297,52.373 165.2744,52.373 Q165.9053,52.373 166.4988,52.1033 Q167.0923,51.8335 167.7231,51.2524 Z "/><text fill="#000000" font-family="Source Sans Pro Semibold" font-size="12" font-style="italic" lengthAdjust="spacingAndGlyphs" textLength="60" x="202.75" y="45.8008">«Contract»</text><text fill="#000000" font-family="Source Sans Pro Semibold" font-size="12" lengthAdjust="spacingAndGlyphs" textLength="95" x="185.25" y="59.9336">AccountManager</text><line style="stroke: #383838; stroke-width: 1.5;" x1="7" x2="426" y1="67.4648" y2="67.4648"/><line style="stroke: #383838; stroke-width: 1.5;" x1="7" x2="426" y1="75.4648" y2="75.4648"/><text fill="#000000" font-family="Source Sans Pro Semibold" font-size="11" lengthAdjust="spacingAndGlyphs" textLength="347" x="12" y="90.0996">+registerStudent(account: address, name: bytes32, matrNr: uint)</text><text fill="#000000" font-family="Source Sans Pro Semibold" font-size="11" lengthAdjust="spacingAndGlyphs" textLength="409" x="12" y="103.0547">+registerSupervisor(account: address, name: bytes32, uaccountID: bytes32)</text><text fill="#000000" font-family="Source Sans Pro Semibold" font-size="11" lengthAdjust="spacingAndGlyphs" textLength="234" x="12" y="132.9648">+RegisteredStudent(address, bytes32, uint)</text><text fill="#000000" font-family="Source Sans Pro Semibold" font-size="11" lengthAdjust="spacingAndGlyphs" textLength="273" x="12" y="145.9199">+RegisteredSupervisor(address, bytes32, bytes32)</text><line style="stroke: #383838; stroke-width: 1.0; stroke-dasharray: 1.0,2.0;" x1="7" x2="199" y1="115.8525" y2="115.8525"/><text fill="#000000" font-family="Source Sans Pro Semibold" font-size="11" lengthAdjust="spacingAndGlyphs" textLength="35" x="199" y="119.5098">Events</text><line style="stroke: #383838; stroke-width: 1.0; stroke-dasharray: 1.0,2.0;" x1="234" x2="426" y1="115.8525" y2="115.8525"/><!--link ManagedContract to ContractProvider--><path d="M417.1753,268.1992 C442.628,268.1992 467.8898,268.1992 491.1764,268.1992 " fill="none" id="ManagedContract-ContractProvider" style="stroke: #383838; stroke-width: 1.0; stroke-dasharray: 7.0,7.0;"/><polygon fill="#383838" points="496.4253,268.1992,487.4253,264.1992,491.4253,268.1992,487.4253,272.1992,496.4253,268.1992" style="stroke: #383838; stroke-width: 1.0;"/><text fill="#000000" font-family="Source Sans Pro Semibold" font-size="13" lengthAdjust="spacingAndGlyphs" textLength="43" x="435.25" y="261.7676">«uses»</text><!--link AccountManager to ManagedContract--><path d="M216.5,152.2819 C216.5,165.3809 216.5,179.3537 216.5,192.8986 " fill="none" id="AccountManager-ManagedContract" style="stroke: #383838; stroke-width: 1.0;"/><polygon fill="none" points="223.5001,192.958,216.5,212.9579,209.5001,192.9579,223.5001,192.958" style="stroke: #383838; stroke-width: 1.0;"/><!--
@startuml


'skinparam handwritten true
skinparam monochrome true
skinparam shadowing false
skinparam classAttributeIconSize 0
skinparam defaultFontName "Source Sans Pro Semibold"
    







title Owned

class Owned << Contract >> {
  +owner: address
  __
  +Owned()
  .. Modifier ..
  #onlyOwner()
}



title ContractProvider

interface ContractProvider << Interface >> {
  +contracts(name: bytes32) : address
}


title ContractManager

class ContractManager << Contract >> {
  +contracts: mapping {name: bytes32 => address}
  +addContract(contractName: bytes32, contractAddress: address) : bool {onlyOwner}
}

ContractManager -up-|> Owned

ContractManager .down.|> ContractProvider


title ManagedContract

class ManagedContract << Contract >> {
  #MAN: address
  __
  +setContractManagerAddress(contractManagerAddress: address) : bool
  .. Modifier ..
  #permission(permittedSender: bytes32)
}

ManagedContract .right.> ContractProvider : << uses >>
ManagedContract -up-> ContractManager

hide Owned


title AccountManager

class AccountManager << Contract >> {
  __
  +registerStudent(account: address, name: bytes32, matrNr: uint)
  +registerSupervisor(account: address, name: bytes32, uaccountID: bytes32)
  .. Events ..
  +RegisteredStudent(address, bytes32, uint)
  +RegisteredSupervisor(address, bytes32, bytes32)
}

AccountManager -down-|> ManagedContract

hide ContractManager


@enduml

PlantUML version 1.2017.18(Fri Oct 06 18:56:32 CEST 2017)
(GPL source distribution)
Java Runtime: Java(TM) SE Runtime Environment
JVM: Java HotSpot(TM) 64-Bit Server VM
Java Version: 1.8.0_131-b11
Operating System: Mac OS X
OS Version: 10.12.6
Default Encoding: UTF-8
Language: de
Country: AT
--></g></svg>