<?xml version="1.0" encoding="UTF-8" standalone="no"?><svg xmlns="http://www.w3.org/2000/svg" xmlns:xlink="http://www.w3.org/1999/xlink" contentScriptType="application/ecmascript" contentStyleType="text/css" height="364px" preserveAspectRatio="none" style="width:707px;height:364px;" version="1.1" viewBox="0 0 707 364" width="707px" zoomAndPan="magnify"><defs/><g><text fill="#000000" font-family="Source Sans Pro Semibold" font-size="18" lengthAdjust="spacingAndGlyphs" textLength="145" x="285" y="17.4023">AccountManager</text><!--class ContractProvider--><rect fill="#F8F8F8" height="67.2207" id="ContractProvider" style="stroke: #383838; stroke-width: 1.5;" width="210" x="486.5" y="264.6992"/><ellipse cx="539.25" cy="283.832" fill="#B1B1B1" rx="11" ry="11" style="stroke: #383838; stroke-width: 1.0;"/><path d="M535.1777,279.5972 L535.1777,277.439 L542.5571,277.439 L542.5571,279.5972 L540.0918,279.5972 L540.0918,287.6738 L542.5571,287.6738 L542.5571,289.832 L535.1777,289.832 L535.1777,287.6738 L537.6431,287.6738 L537.6431,279.5972 Z "/><text fill="#000000" font-family="Source Sans Pro Semibold" font-size="12" font-style="italic" lengthAdjust="spacingAndGlyphs" textLength="62" x="576.75" y="281.3008">«Interface»</text><text fill="#000000" font-family="Source Sans Pro Semibold" font-size="12" font-style="italic" lengthAdjust="spacingAndGlyphs" textLength="96" x="559.75" y="295.4336">ContractProvider</text><line style="stroke: #383838; stroke-width: 1.5;" x1="487.5" x2="695.5" y1="302.9648" y2="302.9648"/><line style="stroke: #383838; stroke-width: 1.5;" x1="487.5" x2="695.5" y1="310.9648" y2="310.9648"/><text fill="#000000" font-family="Source Sans Pro Semibold" font-size="11" lengthAdjust="spacingAndGlyphs" textLength="198" x="492.5" y="325.5996">+contracts(name: bytes32) : address</text><!--class ManagedContract--><rect fill="#F8F8F8" height="110.0859" id="ManagedContract" style="stroke: #383838; stroke-width: 1.5;" width="401" x="6" y="243.1992"/><ellipse cx="151.75" cy="262.332" fill="#C2C2C2" rx="11" ry="11" style="stroke: #383838; stroke-width: 1.0;"/><path d="M154.7231,267.9751 Q154.1421,268.2739 153.5029,268.4233 Q152.8638,268.5728 152.1582,268.5728 Q149.6514,268.5728 148.3315,266.9209 Q147.0117,265.269 147.0117,262.1479 Q147.0117,259.0186 148.3315,257.3667 Q149.6514,255.7148 152.1582,255.7148 Q152.8638,255.7148 153.5112,255.8643 Q154.1587,256.0137 154.7231,256.3125 L154.7231,259.0352 Q154.0923,258.4541 153.4988,258.1843 Q152.9053,257.9146 152.2744,257.9146 Q150.9297,257.9146 150.2449,258.9812 Q149.5601,260.0479 149.5601,262.1479 Q149.5601,264.2397 150.2449,265.3064 Q150.9297,266.373 152.2744,266.373 Q152.9053,266.373 153.4988,266.1033 Q154.0923,265.8335 154.7231,265.2524 Z "/><text fill="#000000" font-family="Source Sans Pro Semibold" font-size="12" font-style="italic" lengthAdjust="spacingAndGlyphs" textLength="60" x="192.75" y="259.8008">«Contract»</text><text fill="#000000" font-family="Source Sans Pro Semibold" font-size="12" lengthAdjust="spacingAndGlyphs" textLength="101" x="172.25" y="273.9336">ManagedContract</text><line style="stroke: #383838; stroke-width: 1.5;" x1="7" x2="406" y1="281.4648" y2="281.4648"/><text fill="#000000" font-family="Source Sans Pro Semibold" font-size="11" lengthAdjust="spacingAndGlyphs" textLength="81" x="12" y="296.0996">#MAN: address</text><line style="stroke: #383838; stroke-width: 1.5;" x1="7" x2="406" y1="302.4199" y2="302.4199"/><text fill="#000000" font-family="Source Sans Pro Semibold" font-size="11" lengthAdjust="spacingAndGlyphs" textLength="389" x="12" y="317.0547">+setContractManagerAddress(contractManagerAddress: address) : bool</text><text fill="#000000" font-family="Source Sans Pro Semibold" font-size="11" lengthAdjust="spacingAndGlyphs" textLength="213" x="12" y="346.9648">#permission(permittedSender: bytes32)</text><line style="stroke: #383838; stroke-width: 1.0; stroke-dasharray: 1.0,2.0;" x1="7" x2="184.5" y1="329.8525" y2="329.8525"/><text fill="#000000" font-family="Source Sans Pro Semibold" font-size="11" lengthAdjust="spacingAndGlyphs" textLength="44" x="184.5" y="333.5098">Modifier</text><line style="stroke: #383838; stroke-width: 1.0; stroke-dasharray: 1.0,2.0;" x1="228.5" x2="406" y1="329.8525" y2="329.8525"/><!--class AccountManager--><rect fill="#F8F8F8" height="152.9512" id="AccountManager" style="stroke: #383838; stroke-width: 1.5;" width="399" x="7" y="29.1992"/><ellipse cx="154.75" cy="48.332" fill="#C2C2C2" rx="11" ry="11" style="stroke: #383838; stroke-width: 1.0;"/><path d="M157.7231,53.9751 Q157.1421,54.2739 156.5029,54.4233 Q155.8638,54.5728 155.1582,54.5728 Q152.6514,54.5728 151.3315,52.9209 Q150.0117,51.269 150.0117,48.1479 Q150.0117,45.0186 151.3315,43.3667 Q152.6514,41.7148 155.1582,41.7148 Q155.8638,41.7148 156.5112,41.8643 Q157.1587,42.0137 157.7231,42.3125 L157.7231,45.0352 Q157.0923,44.4541 156.4988,44.1843 Q155.9053,43.9146 155.2744,43.9146 Q153.9297,43.9146 153.2449,44.9812 Q152.5601,46.0479 152.5601,48.1479 Q152.5601,50.2397 153.2449,51.3064 Q153.9297,52.373 155.2744,52.373 Q155.9053,52.373 156.4988,52.1033 Q157.0923,51.8335 157.7231,51.2524 Z "/><text fill="#000000" font-family="Source Sans Pro Semibold" font-size="12" font-style="italic" lengthAdjust="spacingAndGlyphs" textLength="60" x="192.75" y="45.8008">«Contract»</text><text fill="#000000" font-family="Source Sans Pro Semibold" font-size="12" lengthAdjust="spacingAndGlyphs" textLength="95" x="175.25" y="59.9336">AccountManager</text><line style="stroke: #383838; stroke-width: 1.5;" x1="8" x2="405" y1="67.4648" y2="67.4648"/><line style="stroke: #383838; stroke-width: 1.5;" x1="8" x2="405" y1="75.4648" y2="75.4648"/><text fill="#000000" font-family="Source Sans Pro Semibold" font-size="11" lengthAdjust="spacingAndGlyphs" textLength="336" x="13" y="90.0996">+registerStudent(account: address, name: string, matrNr: uint)</text><text fill="#000000" font-family="Source Sans Pro Semibold" font-size="11" lengthAdjust="spacingAndGlyphs" textLength="387" x="13" y="103.0547">+registerSupervisor(account: address, name: string, uaccountID: string)</text><text fill="#000000" font-family="Source Sans Pro Semibold" font-size="11" lengthAdjust="spacingAndGlyphs" textLength="223" x="13" y="132.9648">+RegisteredStudent(address, string, uint)</text><text fill="#000000" font-family="Source Sans Pro Semibold" font-size="11" lengthAdjust="spacingAndGlyphs" textLength="251" x="13" y="145.9199">+RegisteredSupervisor(address, string, string)</text><line style="stroke: #383838; stroke-width: 1.0; stroke-dasharray: 1.0,2.0;" x1="8" x2="189" y1="115.8525" y2="115.8525"/><text fill="#000000" font-family="Source Sans Pro Semibold" font-size="11" lengthAdjust="spacingAndGlyphs" textLength="35" x="189" y="119.5098">Events</text><line style="stroke: #383838; stroke-width: 1.0; stroke-dasharray: 1.0,2.0;" x1="224" x2="405" y1="115.8525" y2="115.8525"/><text fill="#000000" font-family="Source Sans Pro Semibold" font-size="11" lengthAdjust="spacingAndGlyphs" textLength="243" x="13" y="175.8301">#accountNotRegisteredYet(account: address)</text><line style="stroke: #383838; stroke-width: 1.0; stroke-dasharray: 1.0,2.0;" x1="8" x2="181.5" y1="158.7178" y2="158.7178"/><text fill="#000000" font-family="Source Sans Pro Semibold" font-size="11" lengthAdjust="spacingAndGlyphs" textLength="50" x="181.5" y="162.375">Modifiers</text><line style="stroke: #383838; stroke-width: 1.0; stroke-dasharray: 1.0,2.0;" x1="231.5" x2="405" y1="158.7178" y2="158.7178"/><!--link ManagedContract to ContractProvider--><path d="M407.1753,298.1992 C432.628,298.1992 457.8898,298.1992 481.1764,298.1992 " fill="none" id="ManagedContract-ContractProvider" style="stroke: #383838; stroke-width: 1.0; stroke-dasharray: 7.0,7.0;"/><polygon fill="#383838" points="486.4253,298.1992,477.4253,294.1992,481.4253,298.1992,477.4253,302.1992,486.4253,298.1992" style="stroke: #383838; stroke-width: 1.0;"/><text fill="#000000" font-family="Source Sans Pro Semibold" font-size="13" lengthAdjust="spacingAndGlyphs" textLength="43" x="425.25" y="291.7676">«uses»</text><!--link AccountManager to ManagedContract--><path d="M206.5,182.3334 C206.5,195.6818 206.5,209.5559 206.5,222.8689 " fill="none" id="AccountManager-ManagedContract" style="stroke: #383838; stroke-width: 1.0;"/><polygon fill="none" points="213.5001,223.1713,206.5,243.1713,199.5001,223.1713,213.5001,223.1713" style="stroke: #383838; stroke-width: 1.0;"/><!--
@startuml


'skinparam handwritten true
skinparam monochrome true
skinparam shadowing false
skinparam classAttributeIconSize 0
skinparam defaultFontName "Source Sans Pro Semibold"
    







title Owned

class Owned << Contract >> {
  +owner: address
  __
  +Owned()
  .. Modifier ..
  #onlyOwner()
}



title ContractProvider

interface ContractProvider << Interface >> {
  +contracts(name: bytes32) : address
}


title ContractManager

class ContractManager << Contract >> {
  +contracts: mapping {name: bytes32 => address}
  +setContract(contractName: bytes32, contractAddress: address) : bool {onlyOwner}
}

ContractManager -up-|> Owned

ContractManager .down.|> ContractProvider


title ManagedContract

class ManagedContract << Contract >> {
  #MAN: address
  __
  +setContractManagerAddress(contractManagerAddress: address) : bool
  .. Modifier ..
  #permission(permittedSender: bytes32)
}

ManagedContract .right.> ContractProvider : << uses >>
ManagedContract -up-> ContractManager

hide Owned


title AccountManager

class AccountManager << Contract >> {
  __
  +registerStudent(account: address, name: string, matrNr: uint)
  +registerSupervisor(account: address, name: string, uaccountID: string)
  .. Events ..
  +RegisteredStudent(address, string, uint)
  +RegisteredSupervisor(address, string, string)
  .. Modifiers ..
  #accountNotRegisteredYet(account: address)
}

AccountManager -down-|> ManagedContract

hide ContractManager


@enduml

PlantUML version 1.2017.18(Fri Oct 06 18:56:32 CEST 2017)
(GPL source distribution)
Java Runtime: Java(TM) SE Runtime Environment
JVM: Java HotSpot(TM) 64-Bit Server VM
Java Version: 1.8.0_131-b11
Operating System: Mac OS X
OS Version: 10.12.6
Default Encoding: UTF-8
Language: de
Country: AT
--></g></svg>