<?xml version="1.0" encoding="UTF-8" standalone="no"?><svg xmlns="http://www.w3.org/2000/svg" xmlns:xlink="http://www.w3.org/1999/xlink" contentScriptType="application/ecmascript" contentStyleType="text/css" height="417px" preserveAspectRatio="none" style="width:480px;height:417px;" version="1.1" viewBox="0 0 480 417" width="480px" zoomAndPan="magnify"><defs/><g><text fill="#000000" font-family="Source Sans Pro Semibold" font-size="18" lengthAdjust="spacingAndGlyphs" textLength="149" x="169" y="17.4023">ContractManager</text><!--class Owned--><rect fill="#F8F8F8" height="110.0859" id="Owned" style="stroke: #383838; stroke-width: 1.5;" width="103" x="186" y="29.1992"/><ellipse cx="207.75" cy="48.332" fill="#C2C2C2" rx="11" ry="11" style="stroke: #383838; stroke-width: 1.0;"/><path d="M210.7231,53.9751 Q210.1421,54.2739 209.5029,54.4233 Q208.8638,54.5728 208.1582,54.5728 Q205.6514,54.5728 204.3315,52.9209 Q203.0117,51.269 203.0117,48.1479 Q203.0117,45.0186 204.3315,43.3667 Q205.6514,41.7148 208.1582,41.7148 Q208.8638,41.7148 209.5112,41.8643 Q210.1587,42.0137 210.7231,42.3125 L210.7231,45.0352 Q210.0923,44.4541 209.4988,44.1843 Q208.9053,43.9146 208.2744,43.9146 Q206.9297,43.9146 206.2449,44.9812 Q205.5601,46.0479 205.5601,48.1479 Q205.5601,50.2397 206.2449,51.3064 Q206.9297,52.373 208.2744,52.373 Q208.9053,52.373 209.4988,52.1033 Q210.0923,51.8335 210.7231,51.2524 Z "/><text fill="#000000" font-family="Source Sans Pro Semibold" font-size="12" font-style="italic" lengthAdjust="spacingAndGlyphs" textLength="60" x="221.25" y="45.8008">«Contract»</text><text fill="#000000" font-family="Source Sans Pro Semibold" font-size="12" lengthAdjust="spacingAndGlyphs" textLength="40" x="231.25" y="59.9336">Owned</text><line style="stroke: #383838; stroke-width: 1.5;" x1="187" x2="288" y1="67.4648" y2="67.4648"/><text fill="#000000" font-family="Source Sans Pro Semibold" font-size="11" lengthAdjust="spacingAndGlyphs" textLength="91" x="192" y="82.0996">+owner: address</text><line style="stroke: #383838; stroke-width: 1.5;" x1="187" x2="288" y1="88.4199" y2="88.4199"/><text fill="#000000" font-family="Source Sans Pro Semibold" font-size="11" lengthAdjust="spacingAndGlyphs" textLength="54" x="192" y="103.0547">+Owned()</text><text fill="#000000" font-family="Source Sans Pro Semibold" font-size="11" lengthAdjust="spacingAndGlyphs" textLength="73" x="192" y="132.9648">#onlyOwner()</text><line style="stroke: #383838; stroke-width: 1.0; stroke-dasharray: 1.0,2.0;" x1="187" x2="215.5" y1="115.8525" y2="115.8525"/><text fill="#000000" font-family="Source Sans Pro Semibold" font-size="11" lengthAdjust="spacingAndGlyphs" textLength="44" x="215.5" y="119.5098">Modifier</text><line style="stroke: #383838; stroke-width: 1.0; stroke-dasharray: 1.0,2.0;" x1="259.5" x2="288" y1="115.8525" y2="115.8525"/><!--class ContractProvider--><rect fill="#F8F8F8" height="67.2207" id="ContractProvider" style="stroke: #383838; stroke-width: 1.5;" width="210" x="132.5" y="339.1992"/><ellipse cx="185.25" cy="358.332" fill="#B1B1B1" rx="11" ry="11" style="stroke: #383838; stroke-width: 1.0;"/><path d="M181.1777,354.0972 L181.1777,351.939 L188.5571,351.939 L188.5571,354.0972 L186.0918,354.0972 L186.0918,362.1738 L188.5571,362.1738 L188.5571,364.332 L181.1777,364.332 L181.1777,362.1738 L183.6431,362.1738 L183.6431,354.0972 Z "/><text fill="#000000" font-family="Source Sans Pro Semibold" font-size="12" font-style="italic" lengthAdjust="spacingAndGlyphs" textLength="62" x="222.75" y="355.8008">«Interface»</text><text fill="#000000" font-family="Source Sans Pro Semibold" font-size="12" font-style="italic" lengthAdjust="spacingAndGlyphs" textLength="96" x="205.75" y="369.9336">ContractProvider</text><line style="stroke: #383838; stroke-width: 1.5;" x1="133.5" x2="341.5" y1="377.4648" y2="377.4648"/><line style="stroke: #383838; stroke-width: 1.5;" x1="133.5" x2="341.5" y1="385.4648" y2="385.4648"/><text fill="#000000" font-family="Source Sans Pro Semibold" font-size="11" lengthAdjust="spacingAndGlyphs" textLength="198" x="138.5" y="400.0996">+contracts(name: bytes32) : address</text><!--class ContractManager--><rect fill="#F8F8F8" height="80.1758" id="ContractManager" style="stroke: #383838; stroke-width: 1.5;" width="463" x="6" y="199.1992"/><ellipse cx="184.25" cy="218.332" fill="#C2C2C2" rx="11" ry="11" style="stroke: #383838; stroke-width: 1.0;"/><path d="M187.2231,223.9751 Q186.6421,224.2739 186.0029,224.4233 Q185.3638,224.5728 184.6582,224.5728 Q182.1514,224.5728 180.8315,222.9209 Q179.5117,221.269 179.5117,218.1479 Q179.5117,215.0186 180.8315,213.3667 Q182.1514,211.7148 184.6582,211.7148 Q185.3638,211.7148 186.0112,211.8643 Q186.6587,212.0137 187.2231,212.3125 L187.2231,215.0352 Q186.5923,214.4541 185.9988,214.1843 Q185.4053,213.9146 184.7744,213.9146 Q183.4297,213.9146 182.7449,214.9812 Q182.0601,216.0479 182.0601,218.1479 Q182.0601,220.2397 182.7449,221.3064 Q183.4297,222.373 184.7744,222.373 Q185.4053,222.373 185.9988,222.1033 Q186.5923,221.8335 187.2231,221.2524 Z "/><text fill="#000000" font-family="Source Sans Pro Semibold" font-size="12" font-style="italic" lengthAdjust="spacingAndGlyphs" textLength="60" x="223.75" y="215.8008">«Contract»</text><text fill="#000000" font-family="Source Sans Pro Semibold" font-size="12" lengthAdjust="spacingAndGlyphs" textLength="98" x="204.75" y="229.9336">ContractManager</text><line style="stroke: #383838; stroke-width: 1.5;" x1="7" x2="468" y1="237.4648" y2="237.4648"/><text fill="#000000" font-family="Source Sans Pro Semibold" font-size="11" lengthAdjust="spacingAndGlyphs" textLength="269" x="12" y="252.0996">+contracts: mapping {name: bytes32 =&gt; address}</text><line style="stroke: #383838; stroke-width: 1.5;" x1="7" x2="468" y1="258.4199" y2="258.4199"/><text fill="#000000" font-family="Source Sans Pro Semibold" font-size="11" lengthAdjust="spacingAndGlyphs" textLength="451" x="12" y="273.0547">+setContract(contractName: bytes32, contractAddress: address) : bool {onlyOwner}</text><!--link Owned to ContractManager--><path d="M237.5,159.5993 C237.5,173.1718 237.5,186.8302 237.5,198.9078 " fill="none" id="Owned-ContractManager" style="stroke: #383838; stroke-width: 1.0;"/><polygon fill="none" points="230.5001,159.2829,237.5,139.2828,244.5001,159.2828,230.5001,159.2829" style="stroke: #383838; stroke-width: 1.0;"/><!--link ContractManager to ContractProvider--><path d="M237.5,279.2536 C237.5,291.6045 237.5,305.4154 237.5,318.5507 " fill="none" id="ContractManager-ContractProvider" style="stroke: #383838; stroke-width: 1.0; stroke-dasharray: 7.0,7.0;"/><polygon fill="none" points="244.5001,318.9792,237.5,338.9792,230.5001,318.9791,244.5001,318.9792" style="stroke: #383838; stroke-width: 1.0;"/><!--
@startuml


'skinparam handwritten true
skinparam monochrome true
skinparam shadowing false
skinparam classAttributeIconSize 0
skinparam defaultFontName "Source Sans Pro Semibold"
    



title Owned

class Owned << Contract >> {
  +owner: address
  __
  +Owned()
  .. Modifier ..
  #onlyOwner()
}



title ContractProvider

interface ContractProvider << Interface >> {
  +contracts(name: bytes32) : address
}


title ContractManager

class ContractManager << Contract >> {
  +contracts: mapping {name: bytes32 => address}
  +setContract(contractName: bytes32, contractAddress: address) : bool {onlyOwner}
}

ContractManager -up-|> Owned

ContractManager .down.|> ContractProvider

@enduml

PlantUML version 1.2017.18(Fri Oct 06 18:56:32 CEST 2017)
(GPL source distribution)
Java Runtime: Java(TM) SE Runtime Environment
JVM: Java HotSpot(TM) 64-Bit Server VM
Java Version: 1.8.0_131-b11
Operating System: Mac OS X
OS Version: 10.12.6
Default Encoding: UTF-8
Language: de
Country: AT
--></g></svg>