<?xml version="1.0" encoding="UTF-8" standalone="no"?><svg xmlns="http://www.w3.org/2000/svg" xmlns:xlink="http://www.w3.org/1999/xlink" contentScriptType="application/ecmascript" contentStyleType="text/css" height="150px" preserveAspectRatio="none" style="width:120px;height:150px;" version="1.1" viewBox="0 0 120 150" width="120px" zoomAndPan="magnify"><defs/><g><text fill="#000000" font-family="Source Sans Pro Semibold" font-size="18" lengthAdjust="spacingAndGlyphs" textLength="60" x="33.5" y="17.4023">Owned</text><!--class Owned--><rect fill="#F8F8F8" height="110.0859" id="Owned" style="stroke: #383838; stroke-width: 1.5;" width="103" x="6" y="29.1992"/><ellipse cx="27.75" cy="48.332" fill="#C2C2C2" rx="11" ry="11" style="stroke: #383838; stroke-width: 1.0;"/><path d="M30.7231,53.9751 Q30.1421,54.2739 29.5029,54.4233 Q28.8638,54.5728 28.1582,54.5728 Q25.6514,54.5728 24.3315,52.9209 Q23.0117,51.269 23.0117,48.1479 Q23.0117,45.0186 24.3315,43.3667 Q25.6514,41.7148 28.1582,41.7148 Q28.8638,41.7148 29.5112,41.8643 Q30.1587,42.0137 30.7231,42.3125 L30.7231,45.0352 Q30.0923,44.4541 29.4988,44.1843 Q28.9053,43.9146 28.2744,43.9146 Q26.9297,43.9146 26.2449,44.9812 Q25.5601,46.0479 25.5601,48.1479 Q25.5601,50.2397 26.2449,51.3064 Q26.9297,52.373 28.2744,52.373 Q28.9053,52.373 29.4988,52.1033 Q30.0923,51.8335 30.7231,51.2524 Z "/><text fill="#000000" font-family="Source Sans Pro Semibold" font-size="12" font-style="italic" lengthAdjust="spacingAndGlyphs" textLength="60" x="41.25" y="45.8008">«Contract»</text><text fill="#000000" font-family="Source Sans Pro Semibold" font-size="12" lengthAdjust="spacingAndGlyphs" textLength="40" x="51.25" y="59.9336">Owned</text><line style="stroke: #383838; stroke-width: 1.5;" x1="7" x2="108" y1="67.4648" y2="67.4648"/><text fill="#000000" font-family="Source Sans Pro Semibold" font-size="11" lengthAdjust="spacingAndGlyphs" textLength="91" x="12" y="82.0996">+owner: address</text><line style="stroke: #383838; stroke-width: 1.5;" x1="7" x2="108" y1="88.4199" y2="88.4199"/><text fill="#000000" font-family="Source Sans Pro Semibold" font-size="11" lengthAdjust="spacingAndGlyphs" textLength="54" x="12" y="103.0547">+Owned()</text><text fill="#000000" font-family="Source Sans Pro Semibold" font-size="11" lengthAdjust="spacingAndGlyphs" textLength="73" x="12" y="132.9648">#onlyOwner()</text><line style="stroke: #383838; stroke-width: 1.0; stroke-dasharray: 1.0,2.0;" x1="7" x2="35.5" y1="115.8525" y2="115.8525"/><text fill="#000000" font-family="Source Sans Pro Semibold" font-size="11" lengthAdjust="spacingAndGlyphs" textLength="44" x="35.5" y="119.5098">Modifier</text><line style="stroke: #383838; stroke-width: 1.0; stroke-dasharray: 1.0,2.0;" x1="79.5" x2="108" y1="115.8525" y2="115.8525"/><!--
@startuml


'skinparam handwritten true
skinparam monochrome true
skinparam shadowing false
skinparam classAttributeIconSize 0
skinparam defaultFontName "Source Sans Pro Semibold"
    

title Owned

class Owned << Contract >> {
  +owner: address
  __
  +Owned()
  .. Modifier ..
  #onlyOwner()
}

@enduml

PlantUML version 1.2017.18(Fri Oct 06 18:56:32 CEST 2017)
(GPL source distribution)
Java Runtime: Java(TM) SE Runtime Environment
JVM: Java HotSpot(TM) 64-Bit Server VM
Java Version: 1.8.0_131-b11
Operating System: Mac OS X
OS Version: 10.12.6
Default Encoding: UTF-8
Language: de
Country: AT
--></g></svg>