<?xml version="1.0" encoding="UTF-8" standalone="no"?><svg xmlns="http://www.w3.org/2000/svg" xmlns:xlink="http://www.w3.org/1999/xlink" contentScriptType="application/ecmascript" contentStyleType="text/css" height="467px" preserveAspectRatio="none" style="width:828px;height:467px;" version="1.1" viewBox="0 0 828 467" width="828px" zoomAndPan="magnify"><defs/><g><text fill="#000000" font-family="Source Sans Pro Semibold" font-size="18" lengthAdjust="spacingAndGlyphs" textLength="189" x="323" y="17.4023">StudentSubmissionDB</text><!--class ContractProvider--><rect fill="#F8F8F8" height="67.2207" id="ContractProvider" style="stroke: #383838; stroke-width: 1.5;" width="210" x="507.5" y="183.1992"/><ellipse cx="560.25" cy="202.332" fill="#B1B1B1" rx="11" ry="11" style="stroke: #383838; stroke-width: 1.0;"/><path d="M556.1777,198.0972 L556.1777,195.939 L563.5571,195.939 L563.5571,198.0972 L561.0918,198.0972 L561.0918,206.1738 L563.5571,206.1738 L563.5571,208.332 L556.1777,208.332 L556.1777,206.1738 L558.6431,206.1738 L558.6431,198.0972 Z "/><text fill="#000000" font-family="Source Sans Pro Semibold" font-size="12" font-style="italic" lengthAdjust="spacingAndGlyphs" textLength="62" x="597.75" y="199.8008">«Interface»</text><text fill="#000000" font-family="Source Sans Pro Semibold" font-size="12" font-style="italic" lengthAdjust="spacingAndGlyphs" textLength="96" x="580.75" y="213.9336">ContractProvider</text><line style="stroke: #383838; stroke-width: 1.5;" x1="508.5" x2="716.5" y1="221.4648" y2="221.4648"/><line style="stroke: #383838; stroke-width: 1.5;" x1="508.5" x2="716.5" y1="229.4648" y2="229.4648"/><text fill="#000000" font-family="Source Sans Pro Semibold" font-size="11" lengthAdjust="spacingAndGlyphs" textLength="198" x="513.5" y="244.0996">+contracts(name: bytes32) : address</text><!--class ContractManager--><rect fill="#F8F8F8" height="80.1758" id="ContractManager" style="stroke: #383838; stroke-width: 1.5;" width="467" x="350" y="29.1992"/><ellipse cx="530.25" cy="48.332" fill="#C2C2C2" rx="11" ry="11" style="stroke: #383838; stroke-width: 1.0;"/><path d="M533.2231,53.9751 Q532.6421,54.2739 532.0029,54.4233 Q531.3638,54.5728 530.6582,54.5728 Q528.1514,54.5728 526.8315,52.9209 Q525.5117,51.269 525.5117,48.1479 Q525.5117,45.0186 526.8315,43.3667 Q528.1514,41.7148 530.6582,41.7148 Q531.3638,41.7148 532.0112,41.8643 Q532.6587,42.0137 533.2231,42.3125 L533.2231,45.0352 Q532.5923,44.4541 531.9988,44.1843 Q531.4053,43.9146 530.7744,43.9146 Q529.4297,43.9146 528.7449,44.9812 Q528.0601,46.0479 528.0601,48.1479 Q528.0601,50.2397 528.7449,51.3064 Q529.4297,52.373 530.7744,52.373 Q531.4053,52.373 531.9988,52.1033 Q532.5923,51.8335 533.2231,51.2524 Z "/><text fill="#000000" font-family="Source Sans Pro Semibold" font-size="12" font-style="italic" lengthAdjust="spacingAndGlyphs" textLength="60" x="569.75" y="45.8008">«Contract»</text><text fill="#000000" font-family="Source Sans Pro Semibold" font-size="12" lengthAdjust="spacingAndGlyphs" textLength="98" x="550.75" y="59.9336">ContractManager</text><line style="stroke: #383838; stroke-width: 1.5;" x1="351" x2="816" y1="67.4648" y2="67.4648"/><text fill="#000000" font-family="Source Sans Pro Semibold" font-size="11" lengthAdjust="spacingAndGlyphs" textLength="269" x="356" y="82.0996">+contracts: mapping {name: bytes32 =&gt; address}</text><line style="stroke: #383838; stroke-width: 1.5;" x1="351" x2="816" y1="88.4199" y2="88.4199"/><text fill="#000000" font-family="Source Sans Pro Semibold" font-size="11" lengthAdjust="spacingAndGlyphs" textLength="455" x="356" y="103.0547">+addContract(contractName: bytes32, contractAddress: address) : bool {onlyOwner}</text><!--class ManagedContract--><rect fill="#F8F8F8" height="38.2656" id="ManagedContract" style="stroke: #383838; stroke-width: 1.5;" width="133" x="295" y="197.6992"/><ellipse cx="310" cy="216.832" fill="#C2C2C2" rx="11" ry="11" style="stroke: #383838; stroke-width: 1.0;"/><path d="M312.9731,222.4751 Q312.3921,222.7739 311.7529,222.9233 Q311.1138,223.0728 310.4082,223.0728 Q307.9014,223.0728 306.5815,221.4209 Q305.2617,219.769 305.2617,216.6479 Q305.2617,213.5186 306.5815,211.8667 Q307.9014,210.2148 310.4082,210.2148 Q311.1138,210.2148 311.7612,210.3643 Q312.4087,210.5137 312.9731,210.8125 L312.9731,213.5352 Q312.3423,212.9541 311.7488,212.6843 Q311.1553,212.4146 310.5244,212.4146 Q309.1797,212.4146 308.4949,213.4812 Q307.8101,214.5479 307.8101,216.6479 Q307.8101,218.7397 308.4949,219.8064 Q309.1797,220.873 310.5244,220.873 Q311.1553,220.873 311.7488,220.6033 Q312.3423,220.3335 312.9731,219.7524 Z "/><text fill="#000000" font-family="Source Sans Pro Semibold" font-size="12" font-style="italic" lengthAdjust="spacingAndGlyphs" textLength="60" x="344.5" y="214.3008">«Contract»</text><text fill="#000000" font-family="Source Sans Pro Semibold" font-size="12" lengthAdjust="spacingAndGlyphs" textLength="101" x="324" y="228.4336">ManagedContract</text><!--class Student--><rect fill="#F8F8F8" height="38.2656" id="Student" style="stroke: #383838; stroke-width: 1.5;" width="75" x="211" y="50.1992"/><ellipse cx="226" cy="69.332" fill="#C2C2C2" rx="11" ry="11" style="stroke: #383838; stroke-width: 1.0;"/><path d="M228.9731,74.9751 Q228.3921,75.2739 227.7529,75.4233 Q227.1138,75.5728 226.4082,75.5728 Q223.9014,75.5728 222.5815,73.9209 Q221.2617,72.269 221.2617,69.1479 Q221.2617,66.0186 222.5815,64.3667 Q223.9014,62.7148 226.4082,62.7148 Q227.1138,62.7148 227.7612,62.8643 Q228.4087,63.0137 228.9731,63.3125 L228.9731,66.0352 Q228.3423,65.4541 227.7488,65.1843 Q227.1553,64.9146 226.5244,64.9146 Q225.1797,64.9146 224.4949,65.9812 Q223.8101,67.0479 223.8101,69.1479 Q223.8101,71.2397 224.4949,72.3064 Q225.1797,73.373 226.5244,73.373 Q227.1553,73.373 227.7488,73.1033 Q228.3423,72.8335 228.9731,72.2524 Z "/><text fill="#000000" font-family="Source Sans Pro Semibold" font-size="12" font-style="italic" lengthAdjust="spacingAndGlyphs" textLength="44" x="239.5" y="66.8008">«Struct»</text><text fill="#000000" font-family="Source Sans Pro Semibold" font-size="12" lengthAdjust="spacingAndGlyphs" textLength="43" x="240" y="80.9336">Student</text><!--class Submission--><rect fill="#F8F8F8" height="38.2656" id="Submission" style="stroke: #383838; stroke-width: 1.5;" width="96" x="79.5" y="50.1992"/><ellipse cx="94.5" cy="69.332" fill="#C2C2C2" rx="11" ry="11" style="stroke: #383838; stroke-width: 1.0;"/><path d="M97.4731,74.9751 Q96.8921,75.2739 96.2529,75.4233 Q95.6138,75.5728 94.9082,75.5728 Q92.4014,75.5728 91.0815,73.9209 Q89.7617,72.269 89.7617,69.1479 Q89.7617,66.0186 91.0815,64.3667 Q92.4014,62.7148 94.9082,62.7148 Q95.6138,62.7148 96.2612,62.8643 Q96.9087,63.0137 97.4731,63.3125 L97.4731,66.0352 Q96.8423,65.4541 96.2488,65.1843 Q95.6553,64.9146 95.0244,64.9146 Q93.6797,64.9146 92.9949,65.9812 Q92.3101,67.0479 92.3101,69.1479 Q92.3101,71.2397 92.9949,72.3064 Q93.6797,73.373 95.0244,73.373 Q95.6553,73.373 96.2488,73.1033 Q96.8423,72.8335 97.4731,72.2524 Z "/><text fill="#000000" font-family="Source Sans Pro Semibold" font-size="12" font-style="italic" lengthAdjust="spacingAndGlyphs" textLength="44" x="118.5" y="66.8008">«Struct»</text><text fill="#000000" font-family="Source Sans Pro Semibold" font-size="12" lengthAdjust="spacingAndGlyphs" textLength="64" x="108.5" y="80.9336">Submission</text><!--class StudentSubmission--><rect fill="#F8F8F8" height="93.1309" id="StudentSubmission" style="stroke: #383838; stroke-width: 1.5;" width="139" x="121" y="170.1992"/><ellipse cx="136" cy="189.332" fill="#C2C2C2" rx="11" ry="11" style="stroke: #383838; stroke-width: 1.0;"/><path d="M138.9731,194.9751 Q138.3921,195.2739 137.7529,195.4233 Q137.1138,195.5728 136.4082,195.5728 Q133.9014,195.5728 132.5815,193.9209 Q131.2617,192.269 131.2617,189.1479 Q131.2617,186.0186 132.5815,184.3667 Q133.9014,182.7148 136.4082,182.7148 Q137.1138,182.7148 137.7612,182.8643 Q138.4087,183.0137 138.9731,183.3125 L138.9731,186.0352 Q138.3423,185.4541 137.7488,185.1843 Q137.1553,184.9146 136.5244,184.9146 Q135.1797,184.9146 134.4949,185.9812 Q133.8101,187.0479 133.8101,189.1479 Q133.8101,191.2397 134.4949,192.3064 Q135.1797,193.373 136.5244,193.373 Q137.1553,193.373 137.7488,193.1033 Q138.3423,192.8335 138.9731,192.2524 Z "/><text fill="#000000" font-family="Source Sans Pro Semibold" font-size="12" font-style="italic" lengthAdjust="spacingAndGlyphs" textLength="44" x="181.5" y="186.8008">«Struct»</text><text fill="#000000" font-family="Source Sans Pro Semibold" font-size="12" lengthAdjust="spacingAndGlyphs" textLength="107" x="150" y="200.9336">StudentSubmission</text><line style="stroke: #383838; stroke-width: 1.5;" x1="122" x2="259" y1="208.4648" y2="208.4648"/><text fill="#000000" font-family="Source Sans Pro Semibold" font-size="11" lengthAdjust="spacingAndGlyphs" textLength="101" x="127" y="223.0996">studentID: address</text><text fill="#000000" font-family="Source Sans Pro Semibold" font-size="11" lengthAdjust="spacingAndGlyphs" textLength="100" x="127" y="236.0547">submissionID: uint</text><text fill="#000000" font-family="Source Sans Pro Semibold" font-size="11" lengthAdjust="spacingAndGlyphs" textLength="67" x="127" y="249.0098">idIndex: uint</text><line style="stroke: #383838; stroke-width: 1.5;" x1="122" x2="259" y1="255.3301" y2="255.3301"/><!--class StudentSubmissionDB--><rect fill="#F8F8F8" height="131.9961" id="StudentSubmissionDB" style="stroke: #383838; stroke-width: 1.5;" width="539" x="6" y="324.1992"/><ellipse cx="209.75" cy="343.332" fill="#C2C2C2" rx="11" ry="11" style="stroke: #383838; stroke-width: 1.0;"/><path d="M212.7231,348.9751 Q212.1421,349.2739 211.5029,349.4233 Q210.8638,349.5728 210.1582,349.5728 Q207.6514,349.5728 206.3315,347.9209 Q205.0117,346.269 205.0117,343.1479 Q205.0117,340.0186 206.3315,338.3667 Q207.6514,336.7148 210.1582,336.7148 Q210.8638,336.7148 211.5112,336.8643 Q212.1587,337.0137 212.7231,337.3125 L212.7231,340.0352 Q212.0923,339.4541 211.4988,339.1843 Q210.9053,338.9146 210.2744,338.9146 Q208.9297,338.9146 208.2449,339.9812 Q207.5601,341.0479 207.5601,343.1479 Q207.5601,345.2397 208.2449,346.3064 Q208.9297,347.373 210.2744,347.373 Q210.9053,347.373 211.4988,347.1033 Q212.0923,346.8335 212.7231,346.2524 Z "/><text fill="#000000" font-family="Source Sans Pro Semibold" font-size="12" font-style="italic" lengthAdjust="spacingAndGlyphs" textLength="60" x="261.75" y="340.8008">«Contract»</text><text fill="#000000" font-family="Source Sans Pro Semibold" font-size="12" lengthAdjust="spacingAndGlyphs" textLength="123" x="230.25" y="354.9336">StudentSubmissionDB</text><line style="stroke: #383838; stroke-width: 1.5;" x1="7" x2="544" y1="362.4648" y2="362.4648"/><text fill="#000000" font-family="Source Sans Pro Semibold" font-size="11" lengthAdjust="spacingAndGlyphs" textLength="183" x="12" y="377.0996">-studentSubmissionIDs: bytes32[]</text><text fill="#000000" font-family="Source Sans Pro Semibold" font-size="11" lengthAdjust="spacingAndGlyphs" textLength="349" x="12" y="390.0547">-studentSubmissions: mapping {bytes32 =&gt; StudentSubmission}</text><line style="stroke: #383838; stroke-width: 1.5;" x1="7" x2="544" y1="396.375" y2="396.375"/><text fill="#000000" font-family="Source Sans Pro Semibold" font-size="11" lengthAdjust="spacingAndGlyphs" textLength="347" x="12" y="411.0098">+exists(studentID: address, submissionID: uint) : bool {constant}</text><text fill="#000000" font-family="Source Sans Pro Semibold" font-size="11" lengthAdjust="spacingAndGlyphs" textLength="347" x="12" y="423.9648">+addStudentSubmission(studentID: address, submissionID: uint)</text><text fill="#000000" font-family="Source Sans Pro Semibold" font-size="11" lengthAdjust="spacingAndGlyphs" textLength="527" x="12" y="436.9199">+getStudentSubmissionAt(index: uint) : Tuple { studentID: address, submissionID: uint } {constant}</text><text fill="#000000" font-family="Source Sans Pro Semibold" font-size="11" lengthAdjust="spacingAndGlyphs" textLength="517" x="12" y="449.875">+getStudentSubmission(id: bytes32) : Tuple { studentID: address, submissionID: uint } {constant}</text><!--link ContractManager to ContractProvider--><path d="M591.4244,109.5042 C594.6789,126.0572 598.494,145.4619 601.9773,163.1786 " fill="none" id="ContractManager-ContractProvider" style="stroke: #383838; stroke-width: 1.0; stroke-dasharray: 7.0,7.0;"/><polygon fill="none" points="608.8705,161.9543,605.8605,182.9291,595.1335,164.6552,608.8705,161.9543" style="stroke: #383838; stroke-width: 1.0;"/><!--link ManagedContract to ContractProvider--><path d="M428.1044,216.6992 C450.8427,216.6992 476.9168,216.6992 502.1605,216.6992 " fill="none" id="ManagedContract-ContractProvider" style="stroke: #383838; stroke-width: 1.0; stroke-dasharray: 7.0,7.0;"/><polygon fill="#383838" points="507.1969,216.6992,498.1969,212.6992,502.1969,216.6992,498.1969,220.6992,507.1969,216.6992" style="stroke: #383838; stroke-width: 1.0;"/><text fill="#000000" font-family="Source Sans Pro Semibold" font-size="13" lengthAdjust="spacingAndGlyphs" textLength="43" x="446.25" y="210.2676">«uses»</text><!--link ContractManager to ManagedContract--><path d="M518.7919,112.1922 C476.2876,140.4327 422.7508,176.0033 390.3732,197.5154 " fill="none" id="ContractManager-ManagedContract" style="stroke: #383838; stroke-width: 1.0;"/><polygon fill="#383838" points="523.1308,109.3094,513.421,110.9584,518.9662,112.0764,517.8482,117.6217,523.1308,109.3094" style="stroke: #383838; stroke-width: 1.0;"/><!--link ManagedContract to StudentSubmissionDB--><path d="M343.0445,253.932 C332.9021,274.3939 320.0205,300.3817 308.2324,324.1636 " fill="none" id="ManagedContract-StudentSubmissionDB" style="stroke: #383838; stroke-width: 1.0;"/><polygon fill="none" points="336.8138,250.7403,351.9679,235.9296,349.3574,256.9579,336.8138,250.7403" style="stroke: #383838; stroke-width: 1.0;"/><!--link StudentSubmission to StudentSubmissionDB--><path d="M213.5022,263.6508 C222.598,282.2168 233.2149,303.8879 243.0663,323.9962 " fill="none" id="StudentSubmission-StudentSubmissionDB" style="stroke: #383838; stroke-width: 1.0;"/><!--link Student to StudentSubmission--><path d="M240.9175,88.4822 C232.8111,109.0978 219.6599,142.5425 208.8217,170.1052 " fill="none" id="Student-StudentSubmission" style="stroke: #383838; stroke-width: 1.0;"/><!--link Submission to StudentSubmission--><path d="M135.7361,88.4822 C144.5414,109.0978 158.8263,142.5425 170.5988,170.1052 " fill="none" id="Submission-StudentSubmission" style="stroke: #383838; stroke-width: 1.0;"/><!--
@startuml


'skinparam handwritten true
skinparam monochrome true
skinparam shadowing false
skinparam classAttributeIconSize 0
skinparam defaultFontName "Source Sans Pro Semibold"
    







title Owned

class Owned << Contract >> {
  +owner: address
  __
  +Owned()
  .. Modifier ..
  #onlyOwner()
}



title ContractProvider

interface ContractProvider << Interface >> {
  +contracts(name: bytes32) : address
}


title ContractManager

class ContractManager << Contract >> {
  +contracts: mapping {name: bytes32 => address}
  +addContract(contractName: bytes32, contractAddress: address) : bool {onlyOwner}
}

ContractManager -up-|> Owned

ContractManager .down.|> ContractProvider


title ManagedContract

class ManagedContract << Contract >> {
  #MAN: address
  __
  +setContractManagerAddress(contractManagerAddress: address) : bool
  .. Modifier ..
  #permission(permittedSender: bytes32)
}

ManagedContract .right.> ContractProvider : << uses >>
ManagedContract -up-> ContractManager

hide Owned




title StudentDB

class Student << Struct >> {
  name: bytes32
  matrNr: uint
  index: uint
  testParticipationIDs: bytes32[]
  courseParticipationIDs: bytes32[]
  studentSubmissionIDs: bytes32[]
}

class StudentDB << Contract >> {
  -indices: address[]
  -students: mapping {address => Student}
  __
  +isStudent(account: address) : bool {constant}
  +addStudent(account: address, name: bytes32, matrNr: uint)
  +getStudent(account: address) : Tuple { name: bytes32, matrNr: uint } {constant}
  +getStudentAt(index: uint) : Tuple { name: bytes32, matrNr: uint } {constant}
  +getNumStudents() : uint {constant}
  .. Setter for combined values ..
  +addTestParticipationID(account: address, id: bytes32) {permission: "testparticipationdb"}
  +addCourseParticipationID(account: address, id: bytes32) {permission: "courseparticipationdb"}
  +addStudentSubmissionID(account: address, id: bytes32) {permission: "studentsubmissiondb"}
}

StudentDB -up-|> ManagedContract
StudentDB -down- Student

hide ManagedContract members








title CourseDB

class Course << Struct >> {
  description: string
  ectsPoints: uint
  name: bytes32
  assignmentIDs: uint[]
  testIDs: uint[]
  courseParticipationIDs: bytes32[]
  courseSupervisionIDs: bytes32[]
}

class CourseDB << Contract >> {
  -courses: Course[]
  __
  +addCourse(description: string, name: bytes32, ectsPoints: uint) : uint
  +getCourse(id: uint) : Tuple { description: string, name: bytes32, ectsPoints: uint } {constant}
  +getNumCourses() : uint {constant}
  .. Setter for combined values ..
  +addCourseParticipationID(courseID: uint, id: bytes32) {permission: "courseparticipationdb" }
  +addCourseSupervisionID(courseID: uint, id: bytes32) {permission: "coursesupervisiondb"}
  +addAssignmentID(courseID: uint, id: uint) {permission: "assignmentdb"}
  +addTestID(courseID: uint, id: uint) {permission: "testdb"}
}

CourseDB -up-|> ManagedContract
CourseDB -down- Course

hide ManagedContract members


title TestDB

class Test << Struct >> {
  description: string
  maxPoints: uint
  dueDate: uint
  courseID: uint
  submissionIDs: uint[]
  testParticipationIDs: bytes32[]
  testSupervisionIDs: bytes32[]
}

class TestDB << Contract >> {
  -tests: Test[]
  __
  +addTest(description: string, maxPoints: uint, dueDate: uint, courseID: uint) : uint
  +getTest(id: uint) : Tuple { description: string, maxPoints: uint, dueDate: uint, courseID: uint } {constant}
  +getNumTests() : uint {constant}
  .. Setter for combined values ..
  +addTestParticipationID(testID: uint, id: bytes32) {permission: "testparticipationdb"}
  +addTestSupervisionID(testID: uint, id: bytes32) {permission: "testsupervisiondb"}
  +addSubmissionID(testID: uint, id: uint) {permission: "submissiondb"}
}

TestDB -up-|> ManagedContract
TestDB -down- Test
Test -left- Course

hide ManagedContract members
hide CourseDB
hide Course members




title AssignmentDB

class Assignment << Struct >> {
  description: string
  maxPoints: uint
  dueDate: uint
  courseID: uint
  submissionIDs: uint[]
}

class AssignmentDB << Contract >> {
  -assignments: Assignment[]
  __
  +addAssignment(description: string, maxPoints: uint, dueDate: uint, courseID: uint) : uint
  +getAssignment(id: uint) : Tuple { description: string, maxPoints: uint, dueDate: uint, courseID: uint } {constant}
  +getNumAssignments() : uint {constant}
  .. Setter for combined values ..
  +addSubmissionID(assignmentID: uint, id: uint) {permission: "submissiondb"}
}


AssignmentDB -up-|> ManagedContract
AssignmentDB -down- Assignment
Assignment -left- Course

hide ManagedContract members
hide CourseDB
hide Course members


title SubmissionDB

class Submission << Struct >> {
  description: string
  submittedDate: uint
  ref: uint
  referenceID: uint
  assessmentIDs: uint[]
  studentSubmissionIDs: bytes32[]
}
note "References Assignment or Test" as ReferenceNote
Submission .down. ReferenceNote

class SubmissionDB << Contract >> {
  -submissions: Submission[]
  __
  +addSubmission(description: string, submittedDate: uint, ref: uint, referenceID: uint) : uint
  +getSubmission(id: uint) : Tuple { description: string, submittedDate: uint, ref: uint, referenceID: uint } {constant}
  +getNumSubmissions() : uint {constant}
  .. Setter for combined values ..
  +addStudentSubmissionID(submissionID: uint, id: bytes32) {permission: "studentsubmissiondb"}
  +addAssessmentID(submissionID: uint, id: uint) {permission: "assessmentdb"}
}


SubmissionDB -up-|> ManagedContract
SubmissionDB -down- Submission
Submission -left- Assignment
Submission -right- Test

hide ManagedContract members
hide AssignmentDB
hide Assignment members
hide TestDB
hide Test members
hide CourseDB
hide Course


title StudentSubmissionDB

class StudentSubmission << Struct >> {
    studentID: address
    submissionID: uint
    idIndex: uint
}

class StudentSubmissionDB << Contract >> {
  -studentSubmissionIDs: bytes32[]
  -studentSubmissions: mapping {bytes32 => StudentSubmission}
  __
  +exists(studentID: address, submissionID: uint) : bool {constant}
  +addStudentSubmission(studentID: address, submissionID: uint)
  +getStudentSubmissionAt(index: uint) : Tuple { studentID: address, submissionID: uint } {constant}
  +getStudentSubmission(id: bytes32) : Tuple { studentID: address, submissionID: uint } {constant}
}

StudentSubmissionDB -up-|> ManagedContract
StudentSubmissionDB -up- StudentSubmission
StudentSubmission -up- Student
StudentSubmission -up- Submission

hide ManagedContract members
hide StudentDB
hide Student members
hide SubmissionDB
hide Submission members
hide ReferenceNote
hide Test
hide Assignment

@enduml

PlantUML version 1.2017.18(Fri Oct 06 18:56:32 CEST 2017)
(GPL source distribution)
Java Runtime: Java(TM) SE Runtime Environment
JVM: Java HotSpot(TM) 64-Bit Server VM
Java Version: 1.8.0_131-b11
Operating System: Mac OS X
OS Version: 10.12.6
Default Encoding: UTF-8
Language: de
Country: AT
--></g></svg>