<?xml version="1.0" encoding="UTF-8" standalone="no"?><svg xmlns="http://www.w3.org/2000/svg" xmlns:xlink="http://www.w3.org/1999/xlink" contentScriptType="application/ecmascript" contentStyleType="text/css" height="467px" preserveAspectRatio="none" style="width:825px;height:467px;" version="1.1" viewBox="0 0 825 467" width="825px" zoomAndPan="magnify"><defs/><g><text fill="#000000" font-family="Source Sans Pro Semibold" font-size="18" lengthAdjust="spacingAndGlyphs" textLength="189" x="321.5" y="17.4023">StudentSubmissionDB</text><!--class ContractProvider--><rect fill="#F8F8F8" height="67.2207" id="ContractProvider" style="stroke: #383838; stroke-width: 1.5;" width="210" x="507.5" y="183.1992"/><ellipse cx="560.25" cy="202.332" fill="#B1B1B1" rx="11" ry="11" style="stroke: #383838; stroke-width: 1.0;"/><path d="M556.1777,198.0972 L556.1777,195.939 L563.5571,195.939 L563.5571,198.0972 L561.0918,198.0972 L561.0918,206.1738 L563.5571,206.1738 L563.5571,208.332 L556.1777,208.332 L556.1777,206.1738 L558.6431,206.1738 L558.6431,198.0972 Z "/><text fill="#000000" font-family="Source Sans Pro Semibold" font-size="12" font-style="italic" lengthAdjust="spacingAndGlyphs" textLength="62" x="597.75" y="199.8008">«Interface»</text><text fill="#000000" font-family="Source Sans Pro Semibold" font-size="12" font-style="italic" lengthAdjust="spacingAndGlyphs" textLength="96" x="580.75" y="213.9336">ContractProvider</text><line style="stroke: #383838; stroke-width: 1.5;" x1="508.5" x2="716.5" y1="221.4648" y2="221.4648"/><line style="stroke: #383838; stroke-width: 1.5;" x1="508.5" x2="716.5" y1="229.4648" y2="229.4648"/><text fill="#000000" font-family="Source Sans Pro Semibold" font-size="11" lengthAdjust="spacingAndGlyphs" textLength="198" x="513.5" y="244.0996">+contracts(name: bytes32) : address</text><!--class ContractManager--><rect fill="#F8F8F8" height="80.1758" id="ContractManager" style="stroke: #383838; stroke-width: 1.5;" width="463" x="351" y="29.1992"/><ellipse cx="529.25" cy="48.332" fill="#C2C2C2" rx="11" ry="11" style="stroke: #383838; stroke-width: 1.0;"/><path d="M532.2231,53.9751 Q531.6421,54.2739 531.0029,54.4233 Q530.3638,54.5728 529.6582,54.5728 Q527.1514,54.5728 525.8315,52.9209 Q524.5117,51.269 524.5117,48.1479 Q524.5117,45.0186 525.8315,43.3667 Q527.1514,41.7148 529.6582,41.7148 Q530.3638,41.7148 531.0112,41.8643 Q531.6587,42.0137 532.2231,42.3125 L532.2231,45.0352 Q531.5923,44.4541 530.9988,44.1843 Q530.4053,43.9146 529.7744,43.9146 Q528.4297,43.9146 527.7449,44.9812 Q527.0601,46.0479 527.0601,48.1479 Q527.0601,50.2397 527.7449,51.3064 Q528.4297,52.373 529.7744,52.373 Q530.4053,52.373 530.9988,52.1033 Q531.5923,51.8335 532.2231,51.2524 Z "/><text fill="#000000" font-family="Source Sans Pro Semibold" font-size="12" font-style="italic" lengthAdjust="spacingAndGlyphs" textLength="60" x="568.75" y="45.8008">«Contract»</text><text fill="#000000" font-family="Source Sans Pro Semibold" font-size="12" lengthAdjust="spacingAndGlyphs" textLength="98" x="549.75" y="59.9336">ContractManager</text><line style="stroke: #383838; stroke-width: 1.5;" x1="352" x2="813" y1="67.4648" y2="67.4648"/><text fill="#000000" font-family="Source Sans Pro Semibold" font-size="11" lengthAdjust="spacingAndGlyphs" textLength="269" x="357" y="82.0996">+contracts: mapping {name: bytes32 =&gt; address}</text><line style="stroke: #383838; stroke-width: 1.5;" x1="352" x2="813" y1="88.4199" y2="88.4199"/><text fill="#000000" font-family="Source Sans Pro Semibold" font-size="11" lengthAdjust="spacingAndGlyphs" textLength="451" x="357" y="103.0547">+setContract(contractName: bytes32, contractAddress: address) : bool {onlyOwner}</text><!--class ManagedContract--><rect fill="#F8F8F8" height="38.2656" id="ManagedContract" style="stroke: #383838; stroke-width: 1.5;" width="133" x="295" y="197.6992"/><ellipse cx="310" cy="216.832" fill="#C2C2C2" rx="11" ry="11" style="stroke: #383838; stroke-width: 1.0;"/><path d="M312.9731,222.4751 Q312.3921,222.7739 311.7529,222.9233 Q311.1138,223.0728 310.4082,223.0728 Q307.9014,223.0728 306.5815,221.4209 Q305.2617,219.769 305.2617,216.6479 Q305.2617,213.5186 306.5815,211.8667 Q307.9014,210.2148 310.4082,210.2148 Q311.1138,210.2148 311.7612,210.3643 Q312.4087,210.5137 312.9731,210.8125 L312.9731,213.5352 Q312.3423,212.9541 311.7488,212.6843 Q311.1553,212.4146 310.5244,212.4146 Q309.1797,212.4146 308.4949,213.4812 Q307.8101,214.5479 307.8101,216.6479 Q307.8101,218.7397 308.4949,219.8064 Q309.1797,220.873 310.5244,220.873 Q311.1553,220.873 311.7488,220.6033 Q312.3423,220.3335 312.9731,219.7524 Z "/><text fill="#000000" font-family="Source Sans Pro Semibold" font-size="12" font-style="italic" lengthAdjust="spacingAndGlyphs" textLength="60" x="344.5" y="214.3008">«Contract»</text><text fill="#000000" font-family="Source Sans Pro Semibold" font-size="12" lengthAdjust="spacingAndGlyphs" textLength="101" x="324" y="228.4336">ManagedContract</text><!--class Student--><rect fill="#F8F8F8" height="38.2656" id="Student" style="stroke: #383838; stroke-width: 1.5;" width="75" x="212" y="50.1992"/><ellipse cx="227" cy="69.332" fill="#C2C2C2" rx="11" ry="11" style="stroke: #383838; stroke-width: 1.0;"/><path d="M229.9731,74.9751 Q229.3921,75.2739 228.7529,75.4233 Q228.1138,75.5728 227.4082,75.5728 Q224.9014,75.5728 223.5815,73.9209 Q222.2617,72.269 222.2617,69.1479 Q222.2617,66.0186 223.5815,64.3667 Q224.9014,62.7148 227.4082,62.7148 Q228.1138,62.7148 228.7612,62.8643 Q229.4087,63.0137 229.9731,63.3125 L229.9731,66.0352 Q229.3423,65.4541 228.7488,65.1843 Q228.1553,64.9146 227.5244,64.9146 Q226.1797,64.9146 225.4949,65.9812 Q224.8101,67.0479 224.8101,69.1479 Q224.8101,71.2397 225.4949,72.3064 Q226.1797,73.373 227.5244,73.373 Q228.1553,73.373 228.7488,73.1033 Q229.3423,72.8335 229.9731,72.2524 Z "/><text fill="#000000" font-family="Source Sans Pro Semibold" font-size="12" font-style="italic" lengthAdjust="spacingAndGlyphs" textLength="44" x="240.5" y="66.8008">«Struct»</text><text fill="#000000" font-family="Source Sans Pro Semibold" font-size="12" lengthAdjust="spacingAndGlyphs" textLength="43" x="241" y="80.9336">Student</text><!--class Submission--><rect fill="#F8F8F8" height="38.2656" id="Submission" style="stroke: #383838; stroke-width: 1.5;" width="96" x="80.5" y="50.1992"/><ellipse cx="95.5" cy="69.332" fill="#C2C2C2" rx="11" ry="11" style="stroke: #383838; stroke-width: 1.0;"/><path d="M98.4731,74.9751 Q97.8921,75.2739 97.2529,75.4233 Q96.6138,75.5728 95.9082,75.5728 Q93.4014,75.5728 92.0815,73.9209 Q90.7617,72.269 90.7617,69.1479 Q90.7617,66.0186 92.0815,64.3667 Q93.4014,62.7148 95.9082,62.7148 Q96.6138,62.7148 97.2612,62.8643 Q97.9087,63.0137 98.4731,63.3125 L98.4731,66.0352 Q97.8423,65.4541 97.2488,65.1843 Q96.6553,64.9146 96.0244,64.9146 Q94.6797,64.9146 93.9949,65.9812 Q93.3101,67.0479 93.3101,69.1479 Q93.3101,71.2397 93.9949,72.3064 Q94.6797,73.373 96.0244,73.373 Q96.6553,73.373 97.2488,73.1033 Q97.8423,72.8335 98.4731,72.2524 Z "/><text fill="#000000" font-family="Source Sans Pro Semibold" font-size="12" font-style="italic" lengthAdjust="spacingAndGlyphs" textLength="44" x="119.5" y="66.8008">«Struct»</text><text fill="#000000" font-family="Source Sans Pro Semibold" font-size="12" lengthAdjust="spacingAndGlyphs" textLength="64" x="109.5" y="80.9336">Submission</text><!--class StudentSubmission--><rect fill="#F8F8F8" height="93.1309" id="StudentSubmission" style="stroke: #383838; stroke-width: 1.5;" width="139" x="121" y="170.1992"/><ellipse cx="136" cy="189.332" fill="#C2C2C2" rx="11" ry="11" style="stroke: #383838; stroke-width: 1.0;"/><path d="M138.9731,194.9751 Q138.3921,195.2739 137.7529,195.4233 Q137.1138,195.5728 136.4082,195.5728 Q133.9014,195.5728 132.5815,193.9209 Q131.2617,192.269 131.2617,189.1479 Q131.2617,186.0186 132.5815,184.3667 Q133.9014,182.7148 136.4082,182.7148 Q137.1138,182.7148 137.7612,182.8643 Q138.4087,183.0137 138.9731,183.3125 L138.9731,186.0352 Q138.3423,185.4541 137.7488,185.1843 Q137.1553,184.9146 136.5244,184.9146 Q135.1797,184.9146 134.4949,185.9812 Q133.8101,187.0479 133.8101,189.1479 Q133.8101,191.2397 134.4949,192.3064 Q135.1797,193.373 136.5244,193.373 Q137.1553,193.373 137.7488,193.1033 Q138.3423,192.8335 138.9731,192.2524 Z "/><text fill="#000000" font-family="Source Sans Pro Semibold" font-size="12" font-style="italic" lengthAdjust="spacingAndGlyphs" textLength="44" x="181.5" y="186.8008">«Struct»</text><text fill="#000000" font-family="Source Sans Pro Semibold" font-size="12" lengthAdjust="spacingAndGlyphs" textLength="107" x="150" y="200.9336">StudentSubmission</text><line style="stroke: #383838; stroke-width: 1.5;" x1="122" x2="259" y1="208.4648" y2="208.4648"/><text fill="#000000" font-family="Source Sans Pro Semibold" font-size="11" lengthAdjust="spacingAndGlyphs" textLength="101" x="127" y="223.0996">studentID: address</text><text fill="#000000" font-family="Source Sans Pro Semibold" font-size="11" lengthAdjust="spacingAndGlyphs" textLength="100" x="127" y="236.0547">submissionID: uint</text><text fill="#000000" font-family="Source Sans Pro Semibold" font-size="11" lengthAdjust="spacingAndGlyphs" textLength="67" x="127" y="249.0098">idIndex: uint</text><line style="stroke: #383838; stroke-width: 1.5;" x1="122" x2="259" y1="255.3301" y2="255.3301"/><!--class StudentSubmissionDB--><rect fill="#F8F8F8" height="131.9961" id="StudentSubmissionDB" style="stroke: #383838; stroke-width: 1.5;" width="539" x="6" y="324.1992"/><ellipse cx="209.75" cy="343.332" fill="#C2C2C2" rx="11" ry="11" style="stroke: #383838; stroke-width: 1.0;"/><path d="M212.7231,348.9751 Q212.1421,349.2739 211.5029,349.4233 Q210.8638,349.5728 210.1582,349.5728 Q207.6514,349.5728 206.3315,347.9209 Q205.0117,346.269 205.0117,343.1479 Q205.0117,340.0186 206.3315,338.3667 Q207.6514,336.7148 210.1582,336.7148 Q210.8638,336.7148 211.5112,336.8643 Q212.1587,337.0137 212.7231,337.3125 L212.7231,340.0352 Q212.0923,339.4541 211.4988,339.1843 Q210.9053,338.9146 210.2744,338.9146 Q208.9297,338.9146 208.2449,339.9812 Q207.5601,341.0479 207.5601,343.1479 Q207.5601,345.2397 208.2449,346.3064 Q208.9297,347.373 210.2744,347.373 Q210.9053,347.373 211.4988,347.1033 Q212.0923,346.8335 212.7231,346.2524 Z "/><text fill="#000000" font-family="Source Sans Pro Semibold" font-size="12" font-style="italic" lengthAdjust="spacingAndGlyphs" textLength="60" x="261.75" y="340.8008">«Contract»</text><text fill="#000000" font-family="Source Sans Pro Semibold" font-size="12" lengthAdjust="spacingAndGlyphs" textLength="123" x="230.25" y="354.9336">StudentSubmissionDB</text><line style="stroke: #383838; stroke-width: 1.5;" x1="7" x2="544" y1="362.4648" y2="362.4648"/><text fill="#000000" font-family="Source Sans Pro Semibold" font-size="11" lengthAdjust="spacingAndGlyphs" textLength="183" x="12" y="377.0996">-studentSubmissionIDs: bytes32[]</text><text fill="#000000" font-family="Source Sans Pro Semibold" font-size="11" lengthAdjust="spacingAndGlyphs" textLength="349" x="12" y="390.0547">-studentSubmissions: mapping {bytes32 =&gt; StudentSubmission}</text><line style="stroke: #383838; stroke-width: 1.5;" x1="7" x2="544" y1="396.375" y2="396.375"/><text fill="#000000" font-family="Source Sans Pro Semibold" font-size="11" lengthAdjust="spacingAndGlyphs" textLength="347" x="12" y="411.0098">+exists(studentID: address, submissionID: uint) : bool {constant}</text><text fill="#000000" font-family="Source Sans Pro Semibold" font-size="11" lengthAdjust="spacingAndGlyphs" textLength="347" x="12" y="423.9648">+addStudentSubmission(studentID: address, submissionID: uint)</text><text fill="#000000" font-family="Source Sans Pro Semibold" font-size="11" lengthAdjust="spacingAndGlyphs" textLength="527" x="12" y="436.9199">+getStudentSubmissionAt(index: uint) : Tuple { studentID: address, submissionID: uint } {constant}</text><text fill="#000000" font-family="Source Sans Pro Semibold" font-size="11" lengthAdjust="spacingAndGlyphs" textLength="517" x="12" y="449.875">+getStudentSubmission(id: bytes32) : Tuple { studentID: address, submissionID: uint } {constant}</text><!--link ContractManager to ContractProvider--><path d="M590.6976,109.5042 C594.0643,126.0572 598.0111,145.4619 601.6145,163.1786 " fill="none" id="ContractManager-ContractProvider" style="stroke: #383838; stroke-width: 1.0; stroke-dasharray: 7.0,7.0;"/><polygon fill="none" points="608.5048,161.9352,605.6315,182.9291,594.7857,164.7255,608.5048,161.9352" style="stroke: #383838; stroke-width: 1.0;"/><!--link ManagedContract to ContractProvider--><path d="M428.1044,216.6992 C450.8427,216.6992 476.9168,216.6992 502.1605,216.6992 " fill="none" id="ManagedContract-ContractProvider" style="stroke: #383838; stroke-width: 1.0; stroke-dasharray: 7.0,7.0;"/><polygon fill="#383838" points="507.1969,216.6992,498.1969,212.6992,502.1969,216.6992,498.1969,220.6992,507.1969,216.6992" style="stroke: #383838; stroke-width: 1.0;"/><text fill="#000000" font-family="Source Sans Pro Semibold" font-size="13" lengthAdjust="spacingAndGlyphs" textLength="43" x="446.25" y="210.2676">«uses»</text><!--link ContractManager to ManagedContract--><path d="M518.0834,112.1922 C475.7705,140.4327 422.4749,176.0033 390.2431,197.5154 " fill="none" id="ContractManager-ManagedContract" style="stroke: #383838; stroke-width: 1.0;"/><polygon fill="#383838" points="522.4027,109.3094,512.6963,110.9786,518.2439,112.0851,517.1374,117.6327,522.4027,109.3094" style="stroke: #383838; stroke-width: 1.0;"/><!--link ManagedContract to StudentSubmissionDB--><path d="M343.0445,253.932 C332.9021,274.3939 320.0205,300.3817 308.2324,324.1636 " fill="none" id="ManagedContract-StudentSubmissionDB" style="stroke: #383838; stroke-width: 1.0;"/><polygon fill="none" points="336.8138,250.7403,351.9679,235.9296,349.3574,256.9579,336.8138,250.7403" style="stroke: #383838; stroke-width: 1.0;"/><!--link StudentSubmission to StudentSubmissionDB--><path d="M213.5022,263.6508 C222.598,282.2168 233.2149,303.8879 243.0663,323.9962 " fill="none" id="StudentSubmission-StudentSubmissionDB" style="stroke: #383838; stroke-width: 1.0;"/><!--link Student to StudentSubmission--><path d="M241.7868,88.4822 C233.5406,109.0978 220.1627,142.5425 209.1376,170.1052 " fill="none" id="Student-StudentSubmission" style="stroke: #383838; stroke-width: 1.0;"/><!--link Submission to StudentSubmission--><path d="M136.6054,88.4822 C145.2709,109.0978 159.329,142.5425 170.9147,170.1052 " fill="none" id="Submission-StudentSubmission" style="stroke: #383838; stroke-width: 1.0;"/><!--
@startuml


'skinparam handwritten true
skinparam monochrome true
skinparam shadowing false
skinparam classAttributeIconSize 0
skinparam defaultFontName "Source Sans Pro Semibold"
    







title Owned

class Owned << Contract >> {
  +owner: address
  __
  +Owned()
  .. Modifier ..
  #onlyOwner()
}



title ContractProvider

interface ContractProvider << Interface >> {
  +contracts(name: bytes32) : address
}


title ContractManager

class ContractManager << Contract >> {
  +contracts: mapping {name: bytes32 => address}
  +setContract(contractName: bytes32, contractAddress: address) : bool {onlyOwner}
}

ContractManager -up-|> Owned

ContractManager .down.|> ContractProvider


title ManagedContract

class ManagedContract << Contract >> {
  #MAN: address
  __
  +setContractManagerAddress(contractManagerAddress: address) : bool
  .. Modifier ..
  #permission(permittedSender: bytes32)
}

ManagedContract .right.> ContractProvider : << uses >>
ManagedContract -up-> ContractManager

hide Owned




title StudentDB

class Student << Struct >> {
  name: string
  matrNr: uint
  index: uint
  testParticipationIDs: bytes32[]
  courseParticipationIDs: bytes32[]
  studentSubmissionIDs: bytes32[]
}

class StudentDB << Contract >> {
  -indices: address[]
  -students: mapping {address => Student}
  __
  +isStudent(account: address) : bool {constant}
  +addStudent(account: address, name: string, matrNr: uint)
  +getStudent(account: address) : Tuple { name: string, matrNr: uint } {constant}
  +getStudentAt(index: uint) : Tuple { name: string, matrNr: uint } {constant}
  +getNumStudents() : uint {constant}
  .. Setter for combined values ..
  +addTestParticipationID(account: address, id: bytes32) {permission: "testparticipationdb"}
  +addCourseParticipationID(account: address, id: bytes32) {permission: "courseparticipationdb"}
  +addStudentSubmissionID(account: address, id: bytes32) {permission: "studentsubmissiondb"}
}

StudentDB -up-|> ManagedContract
StudentDB -down- Student

hide ManagedContract members








title CourseDB

class Course << Struct >> {
  description: string
  name: string
  ectsPoints: uint
  assignmentIDs: uint[]
  testIDs: uint[]
  courseParticipationIDs: bytes32[]
  courseSupervisionIDs: bytes32[]
}

class CourseDB << Contract >> {
  -courses: Course[]
  __
  +addCourse(description: string, name: string, ectsPoints: uint) : uint
  +getCourse(id: uint) : Tuple { description: string, name: string, ectsPoints: uint } {constant}
  +getNumCourses() : uint {constant}
  .. Setter for combined values ..
  +addCourseParticipationID(courseID: uint, id: bytes32) {permission: "courseparticipationdb" }
  +addCourseSupervisionID(courseID: uint, id: bytes32) {permission: "coursesupervisiondb"}
  +addAssignmentID(courseID: uint, id: uint) {permission: "assignmentdb"}
  +addTestID(courseID: uint, id: uint) {permission: "testdb"}
}

CourseDB -up-|> ManagedContract
CourseDB -down- Course

hide ManagedContract members


title TestDB

class Test << Struct >> {
  description: string
  name: string
  maxPoints: uint
  dueDate: uint
  courseID: uint
  submissionIDs: uint[]
  testParticipationIDs: bytes32[]
  testSupervisionIDs: bytes32[]
}

class TestDB << Contract >> {
  -tests: Test[]
  __
  +addTest(description: string, name: string, maxPoints: uint, dueDate: uint, courseID: uint) : uint
  +getTest(id: uint) : Tuple { description: string, name: string, maxPoints: uint, dueDate: uint, courseID: uint } {constant}
  +getNumTests() : uint {constant}
  .. Setter for combined values ..
  +addTestParticipationID(testID: uint, id: bytes32) {permission: "testparticipationdb"}
  +addTestSupervisionID(testID: uint, id: bytes32) {permission: "testsupervisiondb"}
  +addSubmissionID(testID: uint, id: uint) {permission: "submissiondb"}
}

TestDB -up-|> ManagedContract
TestDB -down- Test
Test -left- Course

hide ManagedContract members
hide CourseDB
hide Course members




title AssignmentDB

class Assignment << Struct >> {
  description: string
  name: string
  maxPoints: uint
  dueDate: uint
  courseID: uint
  submissionIDs: uint[]
}

class AssignmentDB << Contract >> {
  -assignments: Assignment[]
  __
  +addAssignment(description: string, name: string, maxPoints: uint, dueDate: uint, courseID: uint) : uint
  +getAssignment(id: uint) : Tuple { description: string, name: string, maxPoints: uint, dueDate: uint, courseID: uint } {constant}
  +getNumAssignments() : uint {constant}
  .. Setter for combined values ..
  +addSubmissionID(assignmentID: uint, id: uint) {permission: "submissiondb"}
}


AssignmentDB -up-|> ManagedContract
AssignmentDB -down- Assignment
Assignment -left- Course

hide ManagedContract members
hide CourseDB
hide Course members


title SubmissionDB

class Submission << Struct >> {
  description: string
  submittedDate: uint
  ref: uint
  referenceID: uint
  assessmentIDs: uint[]
  studentSubmissionIDs: bytes32[]
}
note "References Assignment or Test" as ReferenceNote
Submission .down. ReferenceNote

class SubmissionDB << Contract >> {
  -submissions: Submission[]
  __
  +addSubmission(description: string, submittedDate: uint, ref: uint, referenceID: uint) : uint
  +getSubmission(id: uint) : Tuple { description: string, submittedDate: uint, ref: uint, referenceID: uint } {constant}
  +getNumSubmissions() : uint {constant}
  .. Setter for combined values ..
  +addStudentSubmissionID(submissionID: uint, id: bytes32) {permission: "studentsubmissiondb"}
  +addAssessmentID(submissionID: uint, id: uint) {permission: "assessmentdb"}
}


SubmissionDB -up-|> ManagedContract
SubmissionDB -down- Submission
Submission -left- Assignment
Submission -right- Test

hide ManagedContract members
hide AssignmentDB
hide Assignment members
hide TestDB
hide Test members
hide CourseDB
hide Course


title StudentSubmissionDB

class StudentSubmission << Struct >> {
    studentID: address
    submissionID: uint
    idIndex: uint
}

class StudentSubmissionDB << Contract >> {
  -studentSubmissionIDs: bytes32[]
  -studentSubmissions: mapping {bytes32 => StudentSubmission}
  __
  +exists(studentID: address, submissionID: uint) : bool {constant}
  +addStudentSubmission(studentID: address, submissionID: uint)
  +getStudentSubmissionAt(index: uint) : Tuple { studentID: address, submissionID: uint } {constant}
  +getStudentSubmission(id: bytes32) : Tuple { studentID: address, submissionID: uint } {constant}
}

StudentSubmissionDB -up-|> ManagedContract
StudentSubmissionDB -up- StudentSubmission
StudentSubmission -up- Student
StudentSubmission -up- Submission

hide ManagedContract members
hide StudentDB
hide Student members
hide SubmissionDB
hide Submission members
hide ReferenceNote
hide Test
hide Assignment

@enduml

PlantUML version 1.2017.18(Fri Oct 06 18:56:32 CEST 2017)
(GPL source distribution)
Java Runtime: Java(TM) SE Runtime Environment
JVM: Java HotSpot(TM) 64-Bit Server VM
Java Version: 1.8.0_131-b11
Operating System: Mac OS X
OS Version: 10.12.6
Default Encoding: UTF-8
Language: de
Country: AT
--></g></svg>