<?xml version="1.0" encoding="UTF-8" standalone="no"?><svg xmlns="http://www.w3.org/2000/svg" xmlns:xlink="http://www.w3.org/1999/xlink" contentScriptType="application/ecmascript" contentStyleType="text/css" height="467px" preserveAspectRatio="none" style="width:852px;height:467px;" version="1.1" viewBox="0 0 852 467" width="852px" zoomAndPan="magnify"><defs/><g><text fill="#000000" font-family="Source Sans Pro Semibold" font-size="18" lengthAdjust="spacingAndGlyphs" textLength="193" x="333" y="17.4023">SupervisorAssessment</text><!--class ContractProvider--><rect fill="#F8F8F8" height="67.2207" id="ContractProvider" style="stroke: #383838; stroke-width: 1.5;" width="210" x="532.5" y="183.1992"/><ellipse cx="585.25" cy="202.332" fill="#B1B1B1" rx="11" ry="11" style="stroke: #383838; stroke-width: 1.0;"/><path d="M581.1777,198.0972 L581.1777,195.939 L588.5571,195.939 L588.5571,198.0972 L586.0918,198.0972 L586.0918,206.1738 L588.5571,206.1738 L588.5571,208.332 L581.1777,208.332 L581.1777,206.1738 L583.6431,206.1738 L583.6431,198.0972 Z "/><text fill="#000000" font-family="Source Sans Pro Semibold" font-size="12" font-style="italic" lengthAdjust="spacingAndGlyphs" textLength="62" x="622.75" y="199.8008">«Interface»</text><text fill="#000000" font-family="Source Sans Pro Semibold" font-size="12" font-style="italic" lengthAdjust="spacingAndGlyphs" textLength="96" x="605.75" y="213.9336">ContractProvider</text><line style="stroke: #383838; stroke-width: 1.5;" x1="533.5" x2="741.5" y1="221.4648" y2="221.4648"/><line style="stroke: #383838; stroke-width: 1.5;" x1="533.5" x2="741.5" y1="229.4648" y2="229.4648"/><text fill="#000000" font-family="Source Sans Pro Semibold" font-size="11" lengthAdjust="spacingAndGlyphs" textLength="198" x="538.5" y="244.0996">+contracts(name: bytes32) : address</text><!--class ContractManager--><rect fill="#F8F8F8" height="80.1758" id="ContractManager" style="stroke: #383838; stroke-width: 1.5;" width="467" x="374" y="29.1992"/><ellipse cx="554.25" cy="48.332" fill="#C2C2C2" rx="11" ry="11" style="stroke: #383838; stroke-width: 1.0;"/><path d="M557.2231,53.9751 Q556.6421,54.2739 556.0029,54.4233 Q555.3638,54.5728 554.6582,54.5728 Q552.1514,54.5728 550.8315,52.9209 Q549.5117,51.269 549.5117,48.1479 Q549.5117,45.0186 550.8315,43.3667 Q552.1514,41.7148 554.6582,41.7148 Q555.3638,41.7148 556.0112,41.8643 Q556.6587,42.0137 557.2231,42.3125 L557.2231,45.0352 Q556.5923,44.4541 555.9988,44.1843 Q555.4053,43.9146 554.7744,43.9146 Q553.4297,43.9146 552.7449,44.9812 Q552.0601,46.0479 552.0601,48.1479 Q552.0601,50.2397 552.7449,51.3064 Q553.4297,52.373 554.7744,52.373 Q555.4053,52.373 555.9988,52.1033 Q556.5923,51.8335 557.2231,51.2524 Z "/><text fill="#000000" font-family="Source Sans Pro Semibold" font-size="12" font-style="italic" lengthAdjust="spacingAndGlyphs" textLength="60" x="593.75" y="45.8008">«Contract»</text><text fill="#000000" font-family="Source Sans Pro Semibold" font-size="12" lengthAdjust="spacingAndGlyphs" textLength="98" x="574.75" y="59.9336">ContractManager</text><line style="stroke: #383838; stroke-width: 1.5;" x1="375" x2="840" y1="67.4648" y2="67.4648"/><text fill="#000000" font-family="Source Sans Pro Semibold" font-size="11" lengthAdjust="spacingAndGlyphs" textLength="269" x="380" y="82.0996">+contracts: mapping {name: bytes32 =&gt; address}</text><line style="stroke: #383838; stroke-width: 1.5;" x1="375" x2="840" y1="88.4199" y2="88.4199"/><text fill="#000000" font-family="Source Sans Pro Semibold" font-size="11" lengthAdjust="spacingAndGlyphs" textLength="455" x="380" y="103.0547">+addContract(contractName: bytes32, contractAddress: address) : bool {onlyOwner}</text><!--class ManagedContract--><rect fill="#F8F8F8" height="38.2656" id="ManagedContract" style="stroke: #383838; stroke-width: 1.5;" width="133" x="320" y="197.6992"/><ellipse cx="335" cy="216.832" fill="#C2C2C2" rx="11" ry="11" style="stroke: #383838; stroke-width: 1.0;"/><path d="M337.9731,222.4751 Q337.3921,222.7739 336.7529,222.9233 Q336.1138,223.0728 335.4082,223.0728 Q332.9014,223.0728 331.5815,221.4209 Q330.2617,219.769 330.2617,216.6479 Q330.2617,213.5186 331.5815,211.8667 Q332.9014,210.2148 335.4082,210.2148 Q336.1138,210.2148 336.7612,210.3643 Q337.4087,210.5137 337.9731,210.8125 L337.9731,213.5352 Q337.3423,212.9541 336.7488,212.6843 Q336.1553,212.4146 335.5244,212.4146 Q334.1797,212.4146 333.4949,213.4812 Q332.8101,214.5479 332.8101,216.6479 Q332.8101,218.7397 333.4949,219.8064 Q334.1797,220.873 335.5244,220.873 Q336.1553,220.873 336.7488,220.6033 Q337.3423,220.3335 337.9731,219.7524 Z "/><text fill="#000000" font-family="Source Sans Pro Semibold" font-size="12" font-style="italic" lengthAdjust="spacingAndGlyphs" textLength="60" x="369.5" y="214.3008">«Contract»</text><text fill="#000000" font-family="Source Sans Pro Semibold" font-size="12" lengthAdjust="spacingAndGlyphs" textLength="101" x="349" y="228.4336">ManagedContract</text><!--class Supervisor--><rect fill="#F8F8F8" height="38.2656" id="Supervisor" style="stroke: #383838; stroke-width: 1.5;" width="92" x="217.5" y="50.1992"/><ellipse cx="232.5" cy="69.332" fill="#C2C2C2" rx="11" ry="11" style="stroke: #383838; stroke-width: 1.0;"/><path d="M235.4731,74.9751 Q234.8921,75.2739 234.2529,75.4233 Q233.6138,75.5728 232.9082,75.5728 Q230.4014,75.5728 229.0815,73.9209 Q227.7617,72.269 227.7617,69.1479 Q227.7617,66.0186 229.0815,64.3667 Q230.4014,62.7148 232.9082,62.7148 Q233.6138,62.7148 234.2612,62.8643 Q234.9087,63.0137 235.4731,63.3125 L235.4731,66.0352 Q234.8423,65.4541 234.2488,65.1843 Q233.6553,64.9146 233.0244,64.9146 Q231.6797,64.9146 230.9949,65.9812 Q230.3101,67.0479 230.3101,69.1479 Q230.3101,71.2397 230.9949,72.3064 Q231.6797,73.373 233.0244,73.373 Q233.6553,73.373 234.2488,73.1033 Q234.8423,72.8335 235.4731,72.2524 Z "/><text fill="#000000" font-family="Source Sans Pro Semibold" font-size="12" font-style="italic" lengthAdjust="spacingAndGlyphs" textLength="44" x="254.5" y="66.8008">«Struct»</text><text fill="#000000" font-family="Source Sans Pro Semibold" font-size="12" lengthAdjust="spacingAndGlyphs" textLength="60" x="246.5" y="80.9336">Supervisor</text><!--class Assessment--><rect fill="#F8F8F8" height="38.2656" id="Assessment" style="stroke: #383838; stroke-width: 1.5;" width="100" x="82.5" y="50.1992"/><ellipse cx="97.5" cy="69.332" fill="#C2C2C2" rx="11" ry="11" style="stroke: #383838; stroke-width: 1.0;"/><path d="M100.4731,74.9751 Q99.8921,75.2739 99.2529,75.4233 Q98.6138,75.5728 97.9082,75.5728 Q95.4014,75.5728 94.0815,73.9209 Q92.7617,72.269 92.7617,69.1479 Q92.7617,66.0186 94.0815,64.3667 Q95.4014,62.7148 97.9082,62.7148 Q98.6138,62.7148 99.2612,62.8643 Q99.9087,63.0137 100.4731,63.3125 L100.4731,66.0352 Q99.8423,65.4541 99.2488,65.1843 Q98.6553,64.9146 98.0244,64.9146 Q96.6797,64.9146 95.9949,65.9812 Q95.3101,67.0479 95.3101,69.1479 Q95.3101,71.2397 95.9949,72.3064 Q96.6797,73.373 98.0244,73.373 Q98.6553,73.373 99.2488,73.1033 Q99.8423,72.8335 100.4731,72.2524 Z "/><text fill="#000000" font-family="Source Sans Pro Semibold" font-size="12" font-style="italic" lengthAdjust="spacingAndGlyphs" textLength="44" x="123.5" y="66.8008">«Struct»</text><text fill="#000000" font-family="Source Sans Pro Semibold" font-size="12" lengthAdjust="spacingAndGlyphs" textLength="68" x="111.5" y="80.9336">Assessment</text><!--class SupervisorAssessment--><rect fill="#F8F8F8" height="93.1309" id="SupervisorAssessment" style="stroke: #383838; stroke-width: 1.5;" width="160" x="124.5" y="170.1992"/><ellipse cx="139.5" cy="189.332" fill="#C2C2C2" rx="11" ry="11" style="stroke: #383838; stroke-width: 1.0;"/><path d="M142.4731,194.9751 Q141.8921,195.2739 141.2529,195.4233 Q140.6138,195.5728 139.9082,195.5728 Q137.4014,195.5728 136.0815,193.9209 Q134.7617,192.269 134.7617,189.1479 Q134.7617,186.0186 136.0815,184.3667 Q137.4014,182.7148 139.9082,182.7148 Q140.6138,182.7148 141.2612,182.8643 Q141.9087,183.0137 142.4731,183.3125 L142.4731,186.0352 Q141.8423,185.4541 141.2488,185.1843 Q140.6553,184.9146 140.0244,184.9146 Q138.6797,184.9146 137.9949,185.9812 Q137.3101,187.0479 137.3101,189.1479 Q137.3101,191.2397 137.9949,192.3064 Q138.6797,193.373 140.0244,193.373 Q140.6553,193.373 141.2488,193.1033 Q141.8423,192.8335 142.4731,192.2524 Z "/><text fill="#000000" font-family="Source Sans Pro Semibold" font-size="12" font-style="italic" lengthAdjust="spacingAndGlyphs" textLength="44" x="195.5" y="186.8008">«Struct»</text><text fill="#000000" font-family="Source Sans Pro Semibold" font-size="12" lengthAdjust="spacingAndGlyphs" textLength="128" x="153.5" y="200.9336">SupervisorAssessment</text><line style="stroke: #383838; stroke-width: 1.5;" x1="125.5" x2="283.5" y1="208.4648" y2="208.4648"/><text fill="#000000" font-family="Source Sans Pro Semibold" font-size="11" lengthAdjust="spacingAndGlyphs" textLength="118" x="130.5" y="223.0996">supervisorID: address</text><text fill="#000000" font-family="Source Sans Pro Semibold" font-size="11" lengthAdjust="spacingAndGlyphs" textLength="101" x="130.5" y="236.0547">assessmentID: uint</text><text fill="#000000" font-family="Source Sans Pro Semibold" font-size="11" lengthAdjust="spacingAndGlyphs" textLength="67" x="130.5" y="249.0098">idIndex: uint</text><line style="stroke: #383838; stroke-width: 1.5;" x1="125.5" x2="283.5" y1="255.3301" y2="255.3301"/><!--class SupervisorAssessmentDB--><rect fill="#F8F8F8" height="131.9961" id="SupervisorAssessmentDB" style="stroke: #383838; stroke-width: 1.5;" width="577" x="6" y="324.1992"/><ellipse cx="218.25" cy="343.332" fill="#C2C2C2" rx="11" ry="11" style="stroke: #383838; stroke-width: 1.0;"/><path d="M221.2231,348.9751 Q220.6421,349.2739 220.0029,349.4233 Q219.3638,349.5728 218.6582,349.5728 Q216.1514,349.5728 214.8315,347.9209 Q213.5117,346.269 213.5117,343.1479 Q213.5117,340.0186 214.8315,338.3667 Q216.1514,336.7148 218.6582,336.7148 Q219.3638,336.7148 220.0112,336.8643 Q220.6587,337.0137 221.2231,337.3125 L221.2231,340.0352 Q220.5923,339.4541 219.9988,339.1843 Q219.4053,338.9146 218.7744,338.9146 Q217.4297,338.9146 216.7449,339.9812 Q216.0601,341.0479 216.0601,343.1479 Q216.0601,345.2397 216.7449,346.3064 Q217.4297,347.373 218.7744,347.373 Q219.4053,347.373 219.9988,347.1033 Q220.5923,346.8335 221.2231,346.2524 Z "/><text fill="#000000" font-family="Source Sans Pro Semibold" font-size="12" font-style="italic" lengthAdjust="spacingAndGlyphs" textLength="60" x="280.75" y="340.8008">«Contract»</text><text fill="#000000" font-family="Source Sans Pro Semibold" font-size="12" lengthAdjust="spacingAndGlyphs" textLength="144" x="238.75" y="354.9336">SupervisorAssessmentDB</text><line style="stroke: #383838; stroke-width: 1.5;" x1="7" x2="582" y1="362.4648" y2="362.4648"/><text fill="#000000" font-family="Source Sans Pro Semibold" font-size="11" lengthAdjust="spacingAndGlyphs" textLength="203" x="12" y="377.0996">-supervisorAssessmentIDs: bytes32[]</text><text fill="#000000" font-family="Source Sans Pro Semibold" font-size="11" lengthAdjust="spacingAndGlyphs" textLength="389" x="12" y="390.0547">-supervisorAssessments: mapping {bytes32 =&gt; SupervisorAssessment}</text><line style="stroke: #383838; stroke-width: 1.5;" x1="7" x2="582" y1="396.375" y2="396.375"/><text fill="#000000" font-family="Source Sans Pro Semibold" font-size="11" lengthAdjust="spacingAndGlyphs" textLength="365" x="12" y="411.0098">+exists(supervisorID: address, assessmentID: uint) : bool {constant}</text><text fill="#000000" font-family="Source Sans Pro Semibold" font-size="11" lengthAdjust="spacingAndGlyphs" textLength="385" x="12" y="423.9648">+addSupervisorAssessment(supervisorID: address, assessmentID: uint)</text><text fill="#000000" font-family="Source Sans Pro Semibold" font-size="11" lengthAdjust="spacingAndGlyphs" textLength="565" x="12" y="436.9199">+getSupervisorAssessmentAt(index: uint) : Tuple { supervisorID: address, assessmentID: uint } {constant}</text><text fill="#000000" font-family="Source Sans Pro Semibold" font-size="11" lengthAdjust="spacingAndGlyphs" textLength="555" x="12" y="449.875">+getSupervisorAssessment(id: bytes32) : Tuple { supervisorID: address, assessmentID: uint } {constant}</text><!--link ContractManager to ContractProvider--><path d="M615.6976,109.5042 C619.0643,126.0572 623.0111,145.4619 626.6145,163.1786 " fill="none" id="ContractManager-ContractProvider" style="stroke: #383838; stroke-width: 1.0; stroke-dasharray: 7.0,7.0;"/><polygon fill="none" points="633.5048,161.9352,630.6315,182.9291,619.7857,164.7255,633.5048,161.9352" style="stroke: #383838; stroke-width: 1.0;"/><!--link ManagedContract to ContractProvider--><path d="M453.1044,216.6992 C475.8427,216.6992 501.9168,216.6992 527.1605,216.6992 " fill="none" id="ManagedContract-ContractProvider" style="stroke: #383838; stroke-width: 1.0; stroke-dasharray: 7.0,7.0;"/><polygon fill="#383838" points="532.1969,216.6992,523.1969,212.6992,527.1969,216.6992,523.1969,220.6992,532.1969,216.6992" style="stroke: #383838; stroke-width: 1.0;"/><text fill="#000000" font-family="Source Sans Pro Semibold" font-size="13" lengthAdjust="spacingAndGlyphs" textLength="43" x="471.25" y="210.2676">«uses»</text><!--link ContractManager to ManagedContract--><path d="M543.0834,112.1922 C500.7705,140.4327 447.4749,176.0033 415.2431,197.5154 " fill="none" id="ContractManager-ManagedContract" style="stroke: #383838; stroke-width: 1.0;"/><polygon fill="#383838" points="547.4027,109.3094,537.6963,110.9786,543.2439,112.0851,542.1374,117.6327,547.4027,109.3094" style="stroke: #383838; stroke-width: 1.0;"/><!--link ManagedContract to SupervisorAssessmentDB--><path d="M366.9254,253.6144 C356.0497,274.1245 342.1919,300.2585 329.516,324.1636 " fill="none" id="ManagedContract-SupervisorAssessmentDB" style="stroke: #383838; stroke-width: 1.0;"/><polygon fill="none" points="360.749,250.3199,376.3029,235.9296,373.1177,256.8785,360.749,250.3199" style="stroke: #383838; stroke-width: 1.0;"/><!--link SupervisorAssessment to SupervisorAssessmentDB--><path d="M228.8553,263.6508 C238.4861,282.2168 249.7276,303.8879 260.1584,323.9962 " fill="none" id="SupervisorAssessment-SupervisorAssessmentDB" style="stroke: #383838; stroke-width: 1.0;"/><!--link Supervisor to SupervisorAssessment--><path d="M255.7868,88.4822 C247.5406,109.0978 234.1627,142.5425 223.1376,170.1052 " fill="none" id="Supervisor-SupervisorAssessment" style="stroke: #383838; stroke-width: 1.0;"/><!--link Assessment to SupervisorAssessment--><path d="M141.9127,88.4822 C151.9759,109.0978 168.3015,142.5425 181.7558,170.1052 " fill="none" id="Assessment-SupervisorAssessment" style="stroke: #383838; stroke-width: 1.0;"/><!--
@startuml


'skinparam handwritten true
skinparam monochrome true
skinparam shadowing false
skinparam classAttributeIconSize 0
skinparam defaultFontName "Source Sans Pro Semibold"
    







title Owned

class Owned << Contract >> {
  +owner: address
  __
  +Owned()
  .. Modifier ..
  #onlyOwner()
}



title ContractProvider

interface ContractProvider << Interface >> {
  +contracts(name: bytes32) : address
}


title ContractManager

class ContractManager << Contract >> {
  +contracts: mapping {name: bytes32 => address}
  +addContract(contractName: bytes32, contractAddress: address) : bool {onlyOwner}
}

ContractManager -up-|> Owned

ContractManager .down.|> ContractProvider


title ManagedContract

class ManagedContract << Contract >> {
  #MAN: address
  __
  +setContractManagerAddress(contractManagerAddress: address) : bool
  .. Modifier ..
  #permission(permittedSender: bytes32)
}

ManagedContract .right.> ContractProvider : << uses >>
ManagedContract -up-> ContractManager

hide Owned




title SupervisorDB

class Supervisor << Struct >> {
  name: bytes32
  uaccountID: bytes32
  index: uint
  courseSupervisionIDs: bytes32[]
  testSupervisionIDs: bytes32[]
  supervisorAssessmentIDs: bytes32[]
}

class SupervisorDB << Contract >> {
  -indices: address[]
  -supervisors: mapping {address => Supervisor}
  __
  +isSupervisor(account: address) : bool {constant}
  +addSupervisor(account: address, name: bytes32, uaccountID: bytes32)
  +getSupervisor(account: address) : Tuple { name: bytes32, uaccountID: bytes32 } {constant}
  +getSupervisorAt(index: uint) : Tuple { name: bytes32, uaccountID: bytes32 } {constant}
  +getNumSupervisors() : uint {constant}
  .. Setter for combined values ..
  +addCourseSupervisionID(account: address, id: bytes32) {permission: "coursesupervisiondb"}
  +addTestSupervisionID(account: address, id: bytes32) {permission: "testsupervisiondb"}
  +addSupervisorAssessmentID(account: address, id: bytes32) {permission: "supervisorassessmentdb"}
}

SupervisorDB -up-|> ManagedContract
SupervisorDB -down- Supervisor

hide ManagedContract members










title CourseDB

class Course << Struct >> {
  description: string
  ectsPoints: uint
  name: bytes32
  assignmentIDs: uint[]
  testIDs: uint[]
  courseParticipationIDs: bytes32[]
  courseSupervisionIDs: bytes32[]
}

class CourseDB << Contract >> {
  -courses: Course[]
  __
  +addCourse(description: string, name: bytes32, ectsPoints: uint) : uint
  +getCourse(id: uint) : Tuple { description: string, name: bytes32, ectsPoints: uint } {constant}
  +getNumCourses() : uint {constant}
  .. Setter for combined values ..
  +addCourseParticipationID(courseID: uint, id: bytes32) {permission: "courseparticipationdb" }
  +addCourseSupervisionID(courseID: uint, id: bytes32) {permission: "coursesupervisiondb"}
  +addAssignmentID(courseID: uint, id: uint) {permission: "assignmentdb"}
  +addTestID(courseID: uint, id: uint) {permission: "testdb"}
}

CourseDB -up-|> ManagedContract
CourseDB -down- Course

hide ManagedContract members


title TestDB

class Test << Struct >> {
  description: string
  maxPoints: uint
  dueDate: uint
  courseID: uint
  submissionIDs: uint[]
  testParticipationIDs: bytes32[]
  testSupervisionIDs: bytes32[]
}

class TestDB << Contract >> {
  -tests: Test[]
  __
  +addTest(description: string, maxPoints: uint, dueDate: uint, courseID: uint) : uint
  +getTest(id: uint) : Tuple { description: string, maxPoints: uint, dueDate: uint, courseID: uint } {constant}
  +getNumTests() : uint {constant}
  .. Setter for combined values ..
  +addTestParticipationID(testID: uint, id: bytes32) {permission: "testparticipationdb"}
  +addTestSupervisionID(testID: uint, id: bytes32) {permission: "testsupervisiondb"}
  +addSubmissionID(testID: uint, id: uint) {permission: "submissiondb"}
}

TestDB -up-|> ManagedContract
TestDB -down- Test
Test -left- Course

hide ManagedContract members
hide CourseDB
hide Course members




title AssignmentDB

class Assignment << Struct >> {
  description: string
  maxPoints: uint
  dueDate: uint
  courseID: uint
  submissionIDs: uint[]
}

class AssignmentDB << Contract >> {
  -assignments: Assignment[]
  __
  +addAssignment(description: string, maxPoints: uint, dueDate: uint, courseID: uint) : uint
  +getAssignment(id: uint) : Tuple { description: string, maxPoints: uint, dueDate: uint, courseID: uint } {constant}
  +getNumAssignments() : uint {constant}
  .. Setter for combined values ..
  +addSubmissionID(assignmentID: uint, id: uint) {permission: "submissiondb"}
}


AssignmentDB -up-|> ManagedContract
AssignmentDB -down- Assignment
Assignment -left- Course

hide ManagedContract members
hide CourseDB
hide Course members


title SubmissionDB

class Submission << Struct >> {
  description: string
  submittedDate: uint
  ref: uint
  referenceID: uint
  assessmentIDs: uint[]
  studentSubmissionIDs: bytes32[]
}
note "References Assignment or Test" as ReferenceNote
Submission .down. ReferenceNote

class SubmissionDB << Contract >> {
  -submissions: Submission[]
  __
  +addSubmission(description: string, submittedDate: uint, ref: uint, referenceID: uint) : uint
  +getSubmission(id: uint) : Tuple { description: string, submittedDate: uint, ref: uint, referenceID: uint } {constant}
  +getNumSubmissions() : uint {constant}
  .. Setter for combined values ..
  +addStudentSubmissionID(submissionID: uint, id: bytes32) {permission: "studentsubmissiondb"}
  +addAssessmentID(submissionID: uint, id: uint) {permission: "assessmentdb"}
}


SubmissionDB -up-|> ManagedContract
SubmissionDB -down- Submission
Submission -left- Assignment
Submission -right- Test

hide ManagedContract members
hide AssignmentDB
hide Assignment members
hide TestDB
hide Test members
hide CourseDB
hide Course


title AssessmentDB

class Assessment << Struct >> {
  description: string
  obtainedPoints: uint
  submissionID: uint
  supervisorAssessmentIDs: bytes32[]
}

class AssessmentDB << Contract >> {
  -assessments: Assessment[]
  __
  +addAssessment(description: string, obtainedPoints: uint, submissionID: uint) : uint
  +getAssessment(id: uint) : Tuple { description: string, obtainedPoints: uint, submissionID: uint } {constant}
  +getNumAssessments() : uint {constant}
  .. Setter for combined values ..
  +addSupervisorAssessmentID(assessmentID: uint, id: bytes32) permission("supervisorassessmentdb")
}

AssessmentDB -up-|> ManagedContract
AssessmentDB -down- Assessment
Assessment -left- Submission

hide ManagedContract members
hide SubmissionDB
hide Submission members
hide ReferenceNote
hide Test
hide Assignment


title SupervisorAssessment

class SupervisorAssessment << Struct >> {
    supervisorID: address
    assessmentID: uint
    idIndex: uint
}

class SupervisorAssessmentDB << Contract >> {
  -supervisorAssessmentIDs: bytes32[]
  -supervisorAssessments: mapping {bytes32 => SupervisorAssessment}
  __
  +exists(supervisorID: address, assessmentID: uint) : bool {constant}
  +addSupervisorAssessment(supervisorID: address, assessmentID: uint)
  +getSupervisorAssessmentAt(index: uint) : Tuple { supervisorID: address, assessmentID: uint } {constant}
  +getSupervisorAssessment(id: bytes32) : Tuple { supervisorID: address, assessmentID: uint } {constant}
}

SupervisorAssessmentDB -up-|> ManagedContract
SupervisorAssessmentDB -up- SupervisorAssessment
SupervisorAssessment -up- Supervisor
SupervisorAssessment -up- Assessment

hide ManagedContract members
hide SupervisorDB
hide Supervisor members
hide AssessmentDB
hide Assessment members
hide Submission

@enduml

PlantUML version 1.2017.18(Fri Oct 06 18:56:32 CEST 2017)
(GPL source distribution)
Java Runtime: Java(TM) SE Runtime Environment
JVM: Java HotSpot(TM) 64-Bit Server VM
Java Version: 1.8.0_131-b11
Operating System: Mac OS X
OS Version: 10.12.6
Default Encoding: UTF-8
Language: de
Country: AT
--></g></svg>