<?xml version="1.0" encoding="UTF-8" standalone="no"?><svg xmlns="http://www.w3.org/2000/svg" xmlns:xlink="http://www.w3.org/1999/xlink" contentScriptType="application/ecmascript" contentStyleType="text/css" height="412px" preserveAspectRatio="none" style="width:1094px;height:412px;" version="1.1" viewBox="0 0 1094 412" width="1094px" zoomAndPan="magnify"><defs/><g><text fill="#000000" font-family="Source Sans Pro Semibold" font-size="18" lengthAdjust="spacingAndGlyphs" textLength="165" x="468" y="17.4023">SupervisorManager</text><!--class ContractProvider--><rect fill="#F8F8F8" height="67.2207" id="ContractProvider" style="stroke: #383838; stroke-width: 1.5;" width="210" x="824.5" y="312.6992"/><ellipse cx="877.25" cy="331.832" fill="#B1B1B1" rx="11" ry="11" style="stroke: #383838; stroke-width: 1.0;"/><path d="M873.1777,327.5972 L873.1777,325.439 L880.5571,325.439 L880.5571,327.5972 L878.0918,327.5972 L878.0918,335.6738 L880.5571,335.6738 L880.5571,337.832 L873.1777,337.832 L873.1777,335.6738 L875.6431,335.6738 L875.6431,327.5972 Z "/><text fill="#000000" font-family="Source Sans Pro Semibold" font-size="12" font-style="italic" lengthAdjust="spacingAndGlyphs" textLength="62" x="914.75" y="329.3008">«Interface»</text><text fill="#000000" font-family="Source Sans Pro Semibold" font-size="12" font-style="italic" lengthAdjust="spacingAndGlyphs" textLength="96" x="897.75" y="343.4336">ContractProvider</text><line style="stroke: #383838; stroke-width: 1.5;" x1="825.5" x2="1033.5" y1="350.9648" y2="350.9648"/><line style="stroke: #383838; stroke-width: 1.5;" x1="825.5" x2="1033.5" y1="358.9648" y2="358.9648"/><text fill="#000000" font-family="Source Sans Pro Semibold" font-size="11" lengthAdjust="spacingAndGlyphs" textLength="198" x="830.5" y="373.5996">+contracts(name: bytes32) : address</text><!--class ManagedContract--><rect fill="#F8F8F8" height="110.0859" id="ManagedContract" style="stroke: #383838; stroke-width: 1.5;" width="401" x="344" y="291.1992"/><ellipse cx="489.75" cy="310.332" fill="#C2C2C2" rx="11" ry="11" style="stroke: #383838; stroke-width: 1.0;"/><path d="M492.7231,315.9751 Q492.1421,316.2739 491.5029,316.4233 Q490.8638,316.5728 490.1582,316.5728 Q487.6514,316.5728 486.3315,314.9209 Q485.0117,313.269 485.0117,310.1479 Q485.0117,307.0186 486.3315,305.3667 Q487.6514,303.7148 490.1582,303.7148 Q490.8638,303.7148 491.5112,303.8643 Q492.1587,304.0137 492.7231,304.3125 L492.7231,307.0352 Q492.0923,306.4541 491.4988,306.1843 Q490.9053,305.9146 490.2744,305.9146 Q488.9297,305.9146 488.2449,306.9812 Q487.5601,308.0479 487.5601,310.1479 Q487.5601,312.2397 488.2449,313.3064 Q488.9297,314.373 490.2744,314.373 Q490.9053,314.373 491.4988,314.1033 Q492.0923,313.8335 492.7231,313.2524 Z "/><text fill="#000000" font-family="Source Sans Pro Semibold" font-size="12" font-style="italic" lengthAdjust="spacingAndGlyphs" textLength="60" x="530.75" y="307.8008">«Contract»</text><text fill="#000000" font-family="Source Sans Pro Semibold" font-size="12" lengthAdjust="spacingAndGlyphs" textLength="101" x="510.25" y="321.9336">ManagedContract</text><line style="stroke: #383838; stroke-width: 1.5;" x1="345" x2="744" y1="329.4648" y2="329.4648"/><text fill="#000000" font-family="Source Sans Pro Semibold" font-size="11" lengthAdjust="spacingAndGlyphs" textLength="81" x="350" y="344.0996">#MAN: address</text><line style="stroke: #383838; stroke-width: 1.5;" x1="345" x2="744" y1="350.4199" y2="350.4199"/><text fill="#000000" font-family="Source Sans Pro Semibold" font-size="11" lengthAdjust="spacingAndGlyphs" textLength="389" x="350" y="365.0547">+setContractManagerAddress(contractManagerAddress: address) : bool</text><text fill="#000000" font-family="Source Sans Pro Semibold" font-size="11" lengthAdjust="spacingAndGlyphs" textLength="213" x="350" y="394.9648">#permission(permittedSender: bytes32)</text><line style="stroke: #383838; stroke-width: 1.0; stroke-dasharray: 1.0,2.0;" x1="345" x2="522.5" y1="377.8525" y2="377.8525"/><text fill="#000000" font-family="Source Sans Pro Semibold" font-size="11" lengthAdjust="spacingAndGlyphs" textLength="44" x="522.5" y="381.5098">Modifier</text><line style="stroke: #383838; stroke-width: 1.0; stroke-dasharray: 1.0,2.0;" x1="566.5" x2="744" y1="377.8525" y2="377.8525"/><!--class SupervisorManager--><rect fill="#F8F8F8" height="200.7715" id="SupervisorManager" style="stroke: #383838; stroke-width: 1.5;" width="1077" x="6" y="29.1992"/><ellipse cx="485.25" cy="48.332" fill="#C2C2C2" rx="11" ry="11" style="stroke: #383838; stroke-width: 1.0;"/><path d="M488.2231,53.9751 Q487.6421,54.2739 487.0029,54.4233 Q486.3638,54.5728 485.6582,54.5728 Q483.1514,54.5728 481.8315,52.9209 Q480.5117,51.269 480.5117,48.1479 Q480.5117,45.0186 481.8315,43.3667 Q483.1514,41.7148 485.6582,41.7148 Q486.3638,41.7148 487.0112,41.8643 Q487.6587,42.0137 488.2231,42.3125 L488.2231,45.0352 Q487.5923,44.4541 486.9988,44.1843 Q486.4053,43.9146 485.7744,43.9146 Q484.4297,43.9146 483.7449,44.9812 Q483.0601,46.0479 483.0601,48.1479 Q483.0601,50.2397 483.7449,51.3064 Q484.4297,52.373 485.7744,52.373 Q486.4053,52.373 486.9988,52.1033 Q487.5923,51.8335 488.2231,51.2524 Z "/><text fill="#000000" font-family="Source Sans Pro Semibold" font-size="12" font-style="italic" lengthAdjust="spacingAndGlyphs" textLength="60" x="530.75" y="45.8008">«Contract»</text><text fill="#000000" font-family="Source Sans Pro Semibold" font-size="12" lengthAdjust="spacingAndGlyphs" textLength="110" x="505.75" y="59.9336">SupervisorManager</text><line style="stroke: #383838; stroke-width: 1.5;" x1="7" x2="1082" y1="67.4648" y2="67.4648"/><line style="stroke: #383838; stroke-width: 1.5;" x1="7" x2="1082" y1="75.4648" y2="75.4648"/><text fill="#000000" font-family="Source Sans Pro Semibold" font-size="11" lengthAdjust="spacingAndGlyphs" textLength="875" x="12" y="90.0996">+createCourse(description: string, name: bytes32, ectsPoints: uint, helpingSupervisors: address[]) {onlySupervisor} {containsOnlySupervisors: helpingSupervisors}</text><text fill="#000000" font-family="Source Sans Pro Semibold" font-size="11" lengthAdjust="spacingAndGlyphs" textLength="689" x="12" y="103.0547">+createAssignment(description: string, maxPoints: uint, dueDate: uint, courseID: uint) {onlySupervisor} {isOwnCourse: courseID}</text><text fill="#000000" font-family="Source Sans Pro Semibold" font-size="11" lengthAdjust="spacingAndGlyphs" textLength="1065" x="12" y="116.0098">+createTest(description: string, maxPoints: uint, dueDate: uint, courseID: uint, helpingSupervisors: address[]) isOwnCourse(courseID) {onlySupervisor} {containsOnlySupervisors: helpingSupervisors}</text><text fill="#000000" font-family="Source Sans Pro Semibold" font-size="11" lengthAdjust="spacingAndGlyphs" textLength="658" x="12" y="128.9648">+assess(description: string, obtainedPoints: uint, submissionID: uint) {onlySupervisor} {assessmentAllowed: submissionID}</text><text fill="#000000" font-family="Source Sans Pro Semibold" font-size="11" lengthAdjust="spacingAndGlyphs" textLength="721" x="12" y="141.9199">+getAssignmentSubmissionIDs(assignmentID: uint) : Tuple { numAssignmentSubmissions: uint, ids: uint[], bool[] assessed } {constant}</text><text fill="#000000" font-family="Source Sans Pro Semibold" font-size="11" lengthAdjust="spacingAndGlyphs" textLength="597" x="12" y="154.875">+getTestSubmissionIDs(testID: uint) : Tuple { numTestSubmissions: uint, ids: uint[], bool[] assessed } {constant}</text><text fill="#000000" font-family="Source Sans Pro Semibold" font-size="11" lengthAdjust="spacingAndGlyphs" textLength="96" x="12" y="184.7852">#onlySupervisor()</text><text fill="#000000" font-family="Source Sans Pro Semibold" font-size="11" lengthAdjust="spacingAndGlyphs" textLength="256" x="12" y="197.7402">#containsOnlySupervisors(accounts: address[])</text><text fill="#000000" font-family="Source Sans Pro Semibold" font-size="11" lengthAdjust="spacingAndGlyphs" textLength="162" x="12" y="210.6953">#isOwnCourse(courseID: uint)</text><text fill="#000000" font-family="Source Sans Pro Semibold" font-size="11" lengthAdjust="spacingAndGlyphs" textLength="220" x="12" y="223.6504">#assessmentAllowed(submissionID: uint)</text><line style="stroke: #383838; stroke-width: 1.0; stroke-dasharray: 1.0,2.0;" x1="7" x2="522.5" y1="167.6729" y2="167.6729"/><text fill="#000000" font-family="Source Sans Pro Semibold" font-size="11" lengthAdjust="spacingAndGlyphs" textLength="44" x="522.5" y="171.3301">Modifier</text><line style="stroke: #383838; stroke-width: 1.0; stroke-dasharray: 1.0,2.0;" x1="566.5" x2="1082" y1="167.6729" y2="167.6729"/><!--link ManagedContract to ContractProvider--><path d="M745.1753,346.1992 C770.628,346.1992 795.8898,346.1992 819.1764,346.1992 " fill="none" id="ManagedContract-ContractProvider" style="stroke: #383838; stroke-width: 1.0; stroke-dasharray: 7.0,7.0;"/><polygon fill="#383838" points="824.4253,346.1992,815.4253,342.1992,819.4253,346.1992,815.4253,350.1992,824.4253,346.1992" style="stroke: #383838; stroke-width: 1.0;"/><text fill="#000000" font-family="Source Sans Pro Semibold" font-size="13" lengthAdjust="spacingAndGlyphs" textLength="43" x="763.25" y="339.7676">«uses»</text><!--link SupervisorManager to ManagedContract--><path d="M544.5,230.3434 C544.5,243.8765 544.5,257.569 544.5,270.569 " fill="none" id="SupervisorManager-ManagedContract" style="stroke: #383838; stroke-width: 1.0;"/><polygon fill="none" points="551.5001,270.9675,544.5,290.9675,537.5001,270.9674,551.5001,270.9675" style="stroke: #383838; stroke-width: 1.0;"/><!--
@startuml


'skinparam handwritten true
skinparam monochrome true
skinparam shadowing false
skinparam classAttributeIconSize 0
skinparam defaultFontName "Source Sans Pro Semibold"
    







title Owned

class Owned << Contract >> {
  +owner: address
  __
  +Owned()
  .. Modifier ..
  #onlyOwner()
}



title ContractProvider

interface ContractProvider << Interface >> {
  +contracts(name: bytes32) : address
}


title ContractManager

class ContractManager << Contract >> {
  +contracts: mapping {name: bytes32 => address}
  +addContract(contractName: bytes32, contractAddress: address) : bool {onlyOwner}
}

ContractManager -up-|> Owned

ContractManager .down.|> ContractProvider


title ManagedContract

class ManagedContract << Contract >> {
  #MAN: address
  __
  +setContractManagerAddress(contractManagerAddress: address) : bool
  .. Modifier ..
  #permission(permittedSender: bytes32)
}

ManagedContract .right.> ContractProvider : << uses >>
ManagedContract -up-> ContractManager

hide Owned


title SupervisorManager

class SupervisorManager << Contract >> {
  __
  +createCourse(description: string, name: bytes32, ectsPoints: uint, helpingSupervisors: address[]) {onlySupervisor} {containsOnlySupervisors: helpingSupervisors}
  +createAssignment(description: string, maxPoints: uint, dueDate: uint, courseID: uint) {onlySupervisor} {isOwnCourse: courseID}
  +createTest(description: string, maxPoints: uint, dueDate: uint, courseID: uint, helpingSupervisors: address[]) isOwnCourse(courseID) {onlySupervisor} {containsOnlySupervisors: helpingSupervisors}
  +assess(description: string, obtainedPoints: uint, submissionID: uint) {onlySupervisor} {assessmentAllowed: submissionID}
  +getAssignmentSubmissionIDs(assignmentID: uint) : Tuple { numAssignmentSubmissions: uint, ids: uint[], bool[] assessed } {constant}
  +getTestSubmissionIDs(testID: uint) : Tuple { numTestSubmissions: uint, ids: uint[], bool[] assessed } {constant}
  .. Modifier ..
  #onlySupervisor()
  #containsOnlySupervisors(accounts: address[])
  #isOwnCourse(courseID: uint)
  #assessmentAllowed(submissionID: uint)
}

SupervisorManager -down-|> ManagedContract

hide ContractManager

@enduml

PlantUML version 1.2017.18(Fri Oct 06 18:56:32 CEST 2017)
(GPL source distribution)
Java Runtime: Java(TM) SE Runtime Environment
JVM: Java HotSpot(TM) 64-Bit Server VM
Java Version: 1.8.0_131-b11
Operating System: Mac OS X
OS Version: 10.12.6
Default Encoding: UTF-8
Language: de
Country: AT
--></g></svg>