<?xml version="1.0" encoding="UTF-8" standalone="no"?><svg xmlns="http://www.w3.org/2000/svg" xmlns:xlink="http://www.w3.org/1999/xlink" contentScriptType="application/ecmascript" contentStyleType="text/css" height="702px" preserveAspectRatio="none" style="width:1649px;height:702px;" version="1.1" viewBox="0 0 1649 702" width="1649px" zoomAndPan="magnify"><defs/><g><text fill="#000000" font-family="Source Sans Pro Semibold" font-size="14" font-weight="bold" lengthAdjust="spacingAndGlyphs" textLength="125" x="763" y="23.5352">U0 Create Course</text><rect fill="#FFFFFF" height="101.6211" style="stroke: #383838; stroke-width: 1.0;" width="10" x="274.5" y="143.9766"/><rect fill="#FFFFFF" height="411.4609" style="stroke: #383838; stroke-width: 1.0;" width="10" x="707.5" y="215.5977"/><rect fill="#FFFFFF" height="70.7988" style="stroke: #383838; stroke-width: 1.0;" width="10" x="997.5" y="274.9082"/><rect fill="#FFFFFF" height="30" style="stroke: #383838; stroke-width: 1.0;" width="10" x="997.5" y="494.4375"/><rect fill="#FFFFFF" height="199.7305" style="stroke: #383838; stroke-width: 1.0;" width="10" x="1264.5" y="399.3281"/><rect fill="#FFFFFF" height="54.9316" style="stroke: #383838; stroke-width: 1.0;" width="10" x="1264.5" y="627.0586"/><rect fill="#FFFFFF" height="30" style="stroke: #383838; stroke-width: 1.0;" width="10" x="1560.5" y="553.748"/><rect fill="#F8F8F8" height="30.4883" style="stroke: #383838; stroke-width: 1.5;" width="63" x="1053" y="283.2188"/><text fill="#000000" font-family="Source Sans Pro Semibold" font-size="14" lengthAdjust="spacingAndGlyphs" textLength="49" x="1060" y="303.7539">Course</text><rect fill="#FFFFFF" height="238.041" style="stroke: #000000; stroke-width: 2.0;" width="1009" x="629" y="361.0176"/><rect fill="#FFFFFF" height="177.4199" style="stroke: #000000; stroke-width: 2.0;" width="676" x="952" y="414.6387"/><rect fill="#F8F8F8" height="30.4883" style="stroke: #383838; stroke-width: 1.5;" width="143" x="1360" y="431.9492"/><text fill="#000000" font-family="Source Sans Pro Semibold" font-size="14" lengthAdjust="spacingAndGlyphs" textLength="129" x="1367" y="452.4844">CourseSupervision</text><line style="stroke: #383838; stroke-width: 1.0; stroke-dasharray: 5.0,5.0;" x1="44" x2="44" y1="112.9766" y2="690.9902"/><line style="stroke: #383838; stroke-width: 1.0; stroke-dasharray: 5.0,5.0;" x1="279.5" x2="279.5" y1="112.9766" y2="690.9902"/><line style="stroke: #383838; stroke-width: 1.0; stroke-dasharray: 5.0,5.0;" x1="712" x2="712" y1="112.9766" y2="690.9902"/><line style="stroke: #383838; stroke-width: 1.0; stroke-dasharray: 5.0,5.0;" x1="1002" x2="1002" y1="112.9766" y2="690.9902"/><line style="stroke: #383838; stroke-width: 1.0; stroke-dasharray: 5.0,5.0;" x1="1084" x2="1084" y1="313.9629" y2="690.9902"/><line style="stroke: #383838; stroke-width: 1.0; stroke-dasharray: 5.0,5.0;" x1="1269" x2="1269" y1="112.9766" y2="690.9902"/><line style="stroke: #383838; stroke-width: 1.0; stroke-dasharray: 5.0,5.0;" x1="1431" x2="1431" y1="462.6934" y2="690.9902"/><line style="stroke: #383838; stroke-width: 1.0; stroke-dasharray: 5.0,5.0;" x1="1565" x2="1565" y1="112.9766" y2="690.9902"/><text fill="#000000" font-family="Source Sans Pro Semibold" font-size="14" lengthAdjust="spacingAndGlyphs" textLength="67" x="8" y="110.0234">Instructor</text><ellipse cx="44.5" cy="43.4883" fill="#F8F8F8" rx="8" ry="8" style="stroke: #383838; stroke-width: 2.0;"/><path d="M44.5,51.4883 L44.5,78.4883 M31.5,59.4883 L57.5,59.4883 M44.5,78.4883 L31.5,93.4883 M44.5,78.4883 L57.5,93.4883 " fill="#F8F8F8" style="stroke: #383838; stroke-width: 2.0;"/><rect fill="#F8F8F8" height="30.4883" style="stroke: #383838; stroke-width: 1.5;" width="42" x="258.5" y="81.4883"/><text fill="#000000" font-family="Source Sans Pro Semibold" font-size="14" lengthAdjust="spacingAndGlyphs" textLength="28" x="265.5" y="102.0234">App</text><rect fill="#F8F8F8" height="30.4883" style="stroke: #383838; stroke-width: 1.5;" width="147" x="639" y="81.4883"/><text fill="#000000" font-family="Source Sans Pro Semibold" font-size="14" lengthAdjust="spacingAndGlyphs" textLength="133" x="646" y="102.0234">SupervisorManager</text><rect fill="#F8F8F8" height="30.4883" style="stroke: #383838; stroke-width: 1.5;" width="81" x="962" y="81.4883"/><text fill="#000000" font-family="Source Sans Pro Semibold" font-size="14" lengthAdjust="spacingAndGlyphs" textLength="67" x="969" y="102.0234">CourseDB</text><rect fill="#F8F8F8" height="30.4883" style="stroke: #383838; stroke-width: 1.5;" width="161" x="1189" y="81.4883"/><text fill="#000000" font-family="Source Sans Pro Semibold" font-size="14" lengthAdjust="spacingAndGlyphs" textLength="147" x="1196" y="102.0234">CourseSupervisionDB</text><rect fill="#F8F8F8" height="30.4883" style="stroke: #383838; stroke-width: 1.5;" width="105" x="1513" y="81.4883"/><text fill="#000000" font-family="Source Sans Pro Semibold" font-size="14" lengthAdjust="spacingAndGlyphs" textLength="91" x="1520" y="102.0234">SupervisorDB</text><rect fill="#FFFFFF" height="101.6211" style="stroke: #383838; stroke-width: 1.0;" width="10" x="274.5" y="143.9766"/><rect fill="#FFFFFF" height="411.4609" style="stroke: #383838; stroke-width: 1.0;" width="10" x="707.5" y="215.5977"/><rect fill="#FFFFFF" height="70.7988" style="stroke: #383838; stroke-width: 1.0;" width="10" x="997.5" y="274.9082"/><rect fill="#FFFFFF" height="30" style="stroke: #383838; stroke-width: 1.0;" width="10" x="997.5" y="494.4375"/><rect fill="#FFFFFF" height="199.7305" style="stroke: #383838; stroke-width: 1.0;" width="10" x="1264.5" y="399.3281"/><rect fill="#FFFFFF" height="54.9316" style="stroke: #383838; stroke-width: 1.0;" width="10" x="1264.5" y="627.0586"/><rect fill="#FFFFFF" height="30" style="stroke: #383838; stroke-width: 1.0;" width="10" x="1560.5" y="553.748"/><polygon fill="#383838" points="262.5,139.9766,272.5,143.9766,262.5,147.9766,266.5,143.9766" style="stroke: #383838; stroke-width: 1.0;"/><line style="stroke: #383838; stroke-width: 1.0;" x1="44.5" x2="268.5" y1="143.9766" y2="143.9766"/><text fill="#000000" font-family="Source Sans Pro Semibold" font-size="13" lengthAdjust="spacingAndGlyphs" textLength="211" x="51.5" y="139.5449">submitCourseCreationForm(form)</text><line style="stroke: #383838; stroke-width: 1.0;" x1="284.5" x2="326.5" y1="173.5977" y2="173.5977"/><line style="stroke: #383838; stroke-width: 1.0;" x1="326.5" x2="326.5" y1="173.5977" y2="186.5977"/><line style="stroke: #383838; stroke-width: 1.0;" x1="285.5" x2="326.5" y1="186.5977" y2="186.5977"/><polygon fill="#383838" points="295.5,182.5977,285.5,186.5977,295.5,190.5977,291.5,186.5977" style="stroke: #383838; stroke-width: 1.0;"/><text fill="#000000" font-family="Source Sans Pro Semibold" font-size="13" lengthAdjust="spacingAndGlyphs" textLength="57" x="291.5" y="168.8555">validate()</text><polygon fill="#383838" points="695.5,211.5977,705.5,215.5977,695.5,219.5977,699.5,215.5977" style="stroke: #383838; stroke-width: 1.0;"/><line style="stroke: #383838; stroke-width: 1.0;" x1="284.5" x2="701.5" y1="215.5977" y2="215.5977"/><text fill="#000000" font-family="Source Sans Pro Semibold" font-size="13" lengthAdjust="spacingAndGlyphs" textLength="404" x="291.5" y="211.166">createCourse(description, name, ectsPoints, helpingSupervisors)</text><polygon fill="#383838" points="985.5,270.9082,995.5,274.9082,985.5,278.9082,989.5,274.9082" style="stroke: #383838; stroke-width: 1.0;"/><line style="stroke: #383838; stroke-width: 1.0;" x1="717.5" x2="991.5" y1="274.9082" y2="274.9082"/><text fill="#000000" font-family="Source Sans Pro Semibold" font-size="13" lengthAdjust="spacingAndGlyphs" textLength="261" x="724.5" y="270.4766">addCourse(description, name, ectsPoints)</text><polygon fill="#383838" points="1041,285.2188,1051,289.2188,1041,293.2188,1045,289.2188" style="stroke: #383838; stroke-width: 1.0;"/><line style="stroke: #383838; stroke-width: 1.0;" x1="1007.5" x2="1047" y1="289.2188" y2="289.2188"/><rect fill="#F8F8F8" height="30.4883" style="stroke: #383838; stroke-width: 1.5;" width="63" x="1053" y="283.2188"/><text fill="#000000" font-family="Source Sans Pro Semibold" font-size="14" lengthAdjust="spacingAndGlyphs" textLength="49" x="1060" y="303.7539">Course</text><polygon fill="#383838" points="728.5,341.707,718.5,345.707,728.5,349.707,724.5,345.707" style="stroke: #383838; stroke-width: 1.0;"/><line style="stroke: #383838; stroke-width: 1.0; stroke-dasharray: 2.0,2.0;" x1="722.5" x2="1001.5" y1="345.707" y2="345.707"/><text fill="#000000" font-family="Source Sans Pro Semibold" font-size="13" lengthAdjust="spacingAndGlyphs" textLength="56" x="734.5" y="341.2754">courseID</text><rect fill="none" height="238.041" style="stroke: #000000; stroke-width: 2.0;" width="1009" x="629" y="361.0176"/><polygon fill="#EEEEEE" points="629,361.0176,703,361.0176,703,368.0176,693,378.0176,629,378.0176,629,361.0176" style="stroke: #000000; stroke-width: 2.0;"/><text fill="#000000" font-family="Source Sans Pro Semibold" font-size="13" font-weight="bold" lengthAdjust="spacingAndGlyphs" textLength="29" x="644" y="374.5859">loop</text><text fill="#000000" font-family="Source Sans Pro Semibold" font-size="11" font-weight="bold" lengthAdjust="spacingAndGlyphs" textLength="214" x="718" y="373.6523">[times number of helpingSupervisors]</text><polygon fill="#383838" points="1252.5,395.3281,1262.5,399.3281,1252.5,403.3281,1256.5,399.3281" style="stroke: #383838; stroke-width: 1.0;"/><line style="stroke: #383838; stroke-width: 1.0;" x1="717.5" x2="1258.5" y1="399.3281" y2="399.3281"/><text fill="#000000" font-family="Source Sans Pro Semibold" font-size="13" lengthAdjust="spacingAndGlyphs" textLength="292" x="724.5" y="394.8965">addCourseSupervision(supervisorID, courseID)</text><rect fill="none" height="177.4199" style="stroke: #000000; stroke-width: 2.0;" width="676" x="952" y="414.6387"/><polygon fill="#EEEEEE" points="952,414.6387,1151,414.6387,1151,421.6387,1141,431.6387,952,431.6387,952,414.6387" style="stroke: #000000; stroke-width: 2.0;"/><text fill="#000000" font-family="Source Sans Pro Semibold" font-size="13" font-weight="bold" lengthAdjust="spacingAndGlyphs" textLength="154" x="967" y="428.207">AddCourseSupervision</text><polygon fill="#383838" points="1348,433.9492,1358,437.9492,1348,441.9492,1352,437.9492" style="stroke: #383838; stroke-width: 1.0;"/><line style="stroke: #383838; stroke-width: 1.0;" x1="1274.5" x2="1354" y1="437.9492" y2="437.9492"/><rect fill="#F8F8F8" height="30.4883" style="stroke: #383838; stroke-width: 1.5;" width="143" x="1360" y="431.9492"/><text fill="#000000" font-family="Source Sans Pro Semibold" font-size="14" lengthAdjust="spacingAndGlyphs" textLength="129" x="1367" y="452.4844">CourseSupervision</text><polygon fill="#383838" points="1018.5,490.4375,1008.5,494.4375,1018.5,498.4375,1014.5,494.4375" style="stroke: #383838; stroke-width: 1.0;"/><line style="stroke: #383838; stroke-width: 1.0;" x1="1012.5" x2="1263.5" y1="494.4375" y2="494.4375"/><text fill="#000000" font-family="Source Sans Pro Semibold" font-size="13" lengthAdjust="spacingAndGlyphs" textLength="238" x="1024.5" y="490.0059">addCourseSupervisionID(courseID, id)</text><polygon fill="#383838" points="1548.5,549.748,1558.5,553.748,1548.5,557.748,1552.5,553.748" style="stroke: #383838; stroke-width: 1.0;"/><line style="stroke: #383838; stroke-width: 1.0;" x1="1274.5" x2="1554.5" y1="553.748" y2="553.748"/><text fill="#000000" font-family="Source Sans Pro Semibold" font-size="13" lengthAdjust="spacingAndGlyphs" textLength="262" x="1281.5" y="549.3164">addCourseSupervisionID(supervisorID, id)</text><polygon fill="#383838" points="1252.5,623.0586,1262.5,627.0586,1252.5,631.0586,1256.5,627.0586" style="stroke: #383838; stroke-width: 1.0;"/><line style="stroke: #383838; stroke-width: 1.0;" x1="712.5" x2="1258.5" y1="627.0586" y2="627.0586"/><text fill="#000000" font-family="Source Sans Pro Semibold" font-size="13" lengthAdjust="spacingAndGlyphs" textLength="334" x="719.5" y="622.627">addCourseSupervision(senderSupervisorID, courseID)</text><rect fill="#FFFFFF" height="40.6211" style="stroke: #000000; stroke-width: 2.0;" width="662" x="959" y="635.3691"/><polygon fill="#EEEEEE" points="959,635.3691,1023,635.3691,1023,642.3691,1013,652.3691,959,652.3691,959,635.3691" style="stroke: #000000; stroke-width: 2.0;"/><text fill="#000000" font-family="Source Sans Pro Semibold" font-size="13" font-weight="bold" lengthAdjust="spacingAndGlyphs" textLength="19" x="972" y="649.9375">ref</text><text fill="#000000" font-family="Source Sans Pro Semibold" font-size="13" lengthAdjust="spacingAndGlyphs" textLength="142" x="1219" y="668.9375">AddCourseSupervision</text><!--
@startuml


'skinparam handwritten true
skinparam monochrome true
skinparam shadowing false
skinparam classAttributeIconSize 0
skinparam defaultFontName "Source Sans Pro Semibold"
    

title U0 Create Course

actor Instructor

Instructor -> App: submitCourseCreationForm(form)
activate App

App -> App: validate()

App -> SupervisorManager: createCourse(description, name, ectsPoints, helpingSupervisors)
activate SupervisorManager
deactivate App

SupervisorManager -> CourseDB: addCourse(description, name, ectsPoints)
activate CourseDB

create Course
CourseDB -> Course

CourseDB - -> SupervisorManager: courseID
deactivate CourseDB

loop times number of helpingSupervisors
  SupervisorManager -> CourseSupervisionDB: addCourseSupervision(supervisorID, courseID)
  activate CourseSupervisionDB

  group AddCourseSupervision

    create CourseSupervision
    CourseSupervisionDB -> CourseSupervision

    CourseSupervisionDB -> CourseDB: addCourseSupervisionID(courseID, id)
    activate CourseDB
    deactivate CourseDB

    CourseSupervisionDB -> SupervisorDB: addCourseSupervisionID(supervisorID, id)
    activate SupervisorDB
    deactivate SupervisorDB

  end
  
  deactivate CourseSupervisionDB
end

SupervisorManager -> CourseSupervisionDB: addCourseSupervision(senderSupervisorID, courseID)
deactivate SupervisorManager

ref over CourseSupervisionDB, CourseSupervision, CourseDB, SupervisorDB: AddCourseSupervision
activate CourseSupervisionDB
deactivate CourseSupervisionDB

hide footbox

@enduml

PlantUML version 1.2017.18(Fri Oct 06 18:56:32 CEST 2017)
(GPL source distribution)
Java Runtime: Java(TM) SE Runtime Environment
JVM: Java HotSpot(TM) 64-Bit Server VM
Java Version: 1.8.0_131-b11
Operating System: Mac OS X
OS Version: 10.12.6
Default Encoding: UTF-8
Language: de
Country: AT
--></g></svg>