<?xml version="1.0" encoding="UTF-8" standalone="no"?><svg xmlns="http://www.w3.org/2000/svg" xmlns:xlink="http://www.w3.org/1999/xlink" contentScriptType="application/ecmascript" contentStyleType="text/css" height="420px" preserveAspectRatio="none" style="width:1494px;height:420px;" version="1.1" viewBox="0 0 1494 420" width="1494px" zoomAndPan="magnify"><defs/><g><text fill="#000000" font-family="Source Sans Pro Semibold" font-size="14" font-weight="bold" lengthAdjust="spacingAndGlyphs" textLength="173" x="659" y="23.5352">U3.1 Create Assignment</text><rect fill="#FFFFFF" height="101.6211" style="stroke: #383838; stroke-width: 1.0;" width="10" x="305.5" y="143.9766"/><rect fill="#FFFFFF" height="174.4199" style="stroke: #383838; stroke-width: 1.0;" width="10" x="766.5" y="215.5977"/><rect fill="#FFFFFF" height="115.1094" style="stroke: #383838; stroke-width: 1.0;" width="10" x="1212.5" y="274.9082"/><rect fill="#FFFFFF" height="30" style="stroke: #383838; stroke-width: 1.0;" width="10" x="1437.5" y="345.707"/><rect fill="#F8F8F8" height="30.4883" style="stroke: #383838; stroke-width: 1.5;" width="95" x="1284" y="283.2188"/><text fill="#000000" font-family="Source Sans Pro Semibold" font-size="14" lengthAdjust="spacingAndGlyphs" textLength="81" x="1291" y="303.7539">Assignment</text><line style="stroke: #383838; stroke-width: 1.0; stroke-dasharray: 5.0,5.0;" x1="44" x2="44" y1="112.9766" y2="408.0176"/><line style="stroke: #383838; stroke-width: 1.0; stroke-dasharray: 5.0,5.0;" x1="310.5" x2="310.5" y1="112.9766" y2="408.0176"/><line style="stroke: #383838; stroke-width: 1.0; stroke-dasharray: 5.0,5.0;" x1="771" x2="771" y1="112.9766" y2="408.0176"/><line style="stroke: #383838; stroke-width: 1.0; stroke-dasharray: 5.0,5.0;" x1="1217" x2="1217" y1="112.9766" y2="408.0176"/><line style="stroke: #383838; stroke-width: 1.0; stroke-dasharray: 5.0,5.0;" x1="1331" x2="1331" y1="313.9629" y2="408.0176"/><line style="stroke: #383838; stroke-width: 1.0; stroke-dasharray: 5.0,5.0;" x1="1442" x2="1442" y1="112.9766" y2="408.0176"/><text fill="#000000" font-family="Source Sans Pro Semibold" font-size="14" lengthAdjust="spacingAndGlyphs" textLength="67" x="8" y="110.0234">Instructor</text><ellipse cx="44.5" cy="43.4883" fill="#F8F8F8" rx="8" ry="8" style="stroke: #383838; stroke-width: 2.0;"/><path d="M44.5,51.4883 L44.5,78.4883 M31.5,59.4883 L57.5,59.4883 M44.5,78.4883 L31.5,93.4883 M44.5,78.4883 L57.5,93.4883 " fill="#F8F8F8" style="stroke: #383838; stroke-width: 2.0;"/><rect fill="#F8F8F8" height="30.4883" style="stroke: #383838; stroke-width: 1.5;" width="42" x="289.5" y="81.4883"/><text fill="#000000" font-family="Source Sans Pro Semibold" font-size="14" lengthAdjust="spacingAndGlyphs" textLength="28" x="296.5" y="102.0234">App</text><rect fill="#F8F8F8" height="30.4883" style="stroke: #383838; stroke-width: 1.5;" width="147" x="698" y="81.4883"/><text fill="#000000" font-family="Source Sans Pro Semibold" font-size="14" lengthAdjust="spacingAndGlyphs" textLength="133" x="705" y="102.0234">SupervisorManager</text><rect fill="#F8F8F8" height="30.4883" style="stroke: #383838; stroke-width: 1.5;" width="113" x="1161" y="81.4883"/><text fill="#000000" font-family="Source Sans Pro Semibold" font-size="14" lengthAdjust="spacingAndGlyphs" textLength="99" x="1168" y="102.0234">AssignmentDB</text><rect fill="#F8F8F8" height="30.4883" style="stroke: #383838; stroke-width: 1.5;" width="81" x="1402" y="81.4883"/><text fill="#000000" font-family="Source Sans Pro Semibold" font-size="14" lengthAdjust="spacingAndGlyphs" textLength="67" x="1409" y="102.0234">CourseDB</text><rect fill="#FFFFFF" height="101.6211" style="stroke: #383838; stroke-width: 1.0;" width="10" x="305.5" y="143.9766"/><rect fill="#FFFFFF" height="174.4199" style="stroke: #383838; stroke-width: 1.0;" width="10" x="766.5" y="215.5977"/><rect fill="#FFFFFF" height="115.1094" style="stroke: #383838; stroke-width: 1.0;" width="10" x="1212.5" y="274.9082"/><rect fill="#FFFFFF" height="30" style="stroke: #383838; stroke-width: 1.0;" width="10" x="1437.5" y="345.707"/><polygon fill="#383838" points="293.5,139.9766,303.5,143.9766,293.5,147.9766,297.5,143.9766" style="stroke: #383838; stroke-width: 1.0;"/><line style="stroke: #383838; stroke-width: 1.0;" x1="44.5" x2="299.5" y1="143.9766" y2="143.9766"/><text fill="#000000" font-family="Source Sans Pro Semibold" font-size="13" lengthAdjust="spacingAndGlyphs" textLength="242" x="51.5" y="139.5449">submitAssignmentCreationForm(form)</text><line style="stroke: #383838; stroke-width: 1.0;" x1="315.5" x2="357.5" y1="173.5977" y2="173.5977"/><line style="stroke: #383838; stroke-width: 1.0;" x1="357.5" x2="357.5" y1="173.5977" y2="186.5977"/><line style="stroke: #383838; stroke-width: 1.0;" x1="316.5" x2="357.5" y1="186.5977" y2="186.5977"/><polygon fill="#383838" points="326.5,182.5977,316.5,186.5977,326.5,190.5977,322.5,186.5977" style="stroke: #383838; stroke-width: 1.0;"/><text fill="#000000" font-family="Source Sans Pro Semibold" font-size="13" lengthAdjust="spacingAndGlyphs" textLength="57" x="322.5" y="168.8555">validate()</text><polygon fill="#383838" points="754.5,211.5977,764.5,215.5977,754.5,219.5977,758.5,215.5977" style="stroke: #383838; stroke-width: 1.0;"/><line style="stroke: #383838; stroke-width: 1.0;" x1="315.5" x2="760.5" y1="215.5977" y2="215.5977"/><text fill="#000000" font-family="Source Sans Pro Semibold" font-size="13" lengthAdjust="spacingAndGlyphs" textLength="432" x="322.5" y="211.166">createAssignment(description, name, maxPoints, dueDate, courseID)</text><polygon fill="#383838" points="1200.5,270.9082,1210.5,274.9082,1200.5,278.9082,1204.5,274.9082" style="stroke: #383838; stroke-width: 1.0;"/><line style="stroke: #383838; stroke-width: 1.0;" x1="776.5" x2="1206.5" y1="274.9082" y2="274.9082"/><text fill="#000000" font-family="Source Sans Pro Semibold" font-size="13" lengthAdjust="spacingAndGlyphs" textLength="417" x="783.5" y="270.4766">addAssignment(description, name, maxPoints, dueDate, courseID)</text><polygon fill="#383838" points="1272,285.2188,1282,289.2188,1272,293.2188,1276,289.2188" style="stroke: #383838; stroke-width: 1.0;"/><line style="stroke: #383838; stroke-width: 1.0;" x1="1222.5" x2="1278" y1="289.2188" y2="289.2188"/><rect fill="#F8F8F8" height="30.4883" style="stroke: #383838; stroke-width: 1.5;" width="95" x="1284" y="283.2188"/><text fill="#000000" font-family="Source Sans Pro Semibold" font-size="14" lengthAdjust="spacingAndGlyphs" textLength="81" x="1291" y="303.7539">Assignment</text><polygon fill="#383838" points="1425.5,341.707,1435.5,345.707,1425.5,349.707,1429.5,345.707" style="stroke: #383838; stroke-width: 1.0;"/><line style="stroke: #383838; stroke-width: 1.0;" x1="1222.5" x2="1431.5" y1="345.707" y2="345.707"/><text fill="#000000" font-family="Source Sans Pro Semibold" font-size="13" lengthAdjust="spacingAndGlyphs" textLength="196" x="1229.5" y="341.2754">addAssignmentID(courseID, id)</text><polygon fill="#383838" points="782.5,386.0176,772.5,390.0176,782.5,394.0176,778.5,390.0176" style="stroke: #383838; stroke-width: 1.0;"/><line style="stroke: #383838; stroke-width: 1.0; stroke-dasharray: 2.0,2.0;" x1="776.5" x2="1216.5" y1="390.0176" y2="390.0176"/><!--
@startuml


'skinparam handwritten true
skinparam monochrome true
skinparam shadowing false
skinparam classAttributeIconSize 0
skinparam defaultFontName "Source Sans Pro Semibold"
    

title U3.1 Create Assignment

actor Instructor

Instructor -> App: submitAssignmentCreationForm(form)
activate App

App -> App: validate()

App -> SupervisorManager: createAssignment(description, name, maxPoints, dueDate, courseID)
activate SupervisorManager
deactivate App

SupervisorManager -> AssignmentDB: addAssignment(description, name, maxPoints, dueDate, courseID)
activate AssignmentDB

create Assignment
AssignmentDB -> Assignment

AssignmentDB -> CourseDB: addAssignmentID(courseID, id)
activate CourseDB
deactivate CourseDB

AssignmentDB - -> SupervisorManager
deactivate AssignmentDB

deactivate SupervisorManager

hide footbox

@enduml

PlantUML version 1.2017.18(Fri Oct 06 18:56:32 CEST 2017)
(GPL source distribution)
Java Runtime: Java(TM) SE Runtime Environment
JVM: Java HotSpot(TM) 64-Bit Server VM
Java Version: 1.8.0_131-b11
Operating System: Mac OS X
OS Version: 10.12.6
Default Encoding: UTF-8
Language: de
Country: AT
--></g></svg>