<?xml version="1.0" encoding="UTF-8" standalone="no"?><svg xmlns="http://www.w3.org/2000/svg" xmlns:xlink="http://www.w3.org/1999/xlink" contentScriptType="application/ecmascript" contentStyleType="text/css" height="762px" preserveAspectRatio="none" style="width:1729px;height:762px;" version="1.1" viewBox="0 0 1729 762" width="1729px" zoomAndPan="magnify"><defs/><g><text fill="#000000" font-family="Source Sans Pro Semibold" font-size="14" font-weight="bold" lengthAdjust="spacingAndGlyphs" textLength="159" x="786" y="23.5352">U0 + U3.1 Create Test</text><rect fill="#FFFFFF" height="101.6211" style="stroke: #383838; stroke-width: 1.0;" width="10" x="257.5" y="143.9766"/><rect fill="#FFFFFF" height="470.7715" style="stroke: #383838; stroke-width: 1.0;" width="10" x="670.5" y="215.5977"/><rect fill="#FFFFFF" height="130.1094" style="stroke: #383838; stroke-width: 1.0;" width="10" x="1068.5" y="274.9082"/><rect fill="#FFFFFF" height="30" style="stroke: #383838; stroke-width: 1.0;" width="10" x="1068.5" y="553.748"/><rect fill="#FFFFFF" height="30" style="stroke: #383838; stroke-width: 1.0;" width="10" x="1245.5" y="345.707"/><rect fill="#FFFFFF" height="199.7305" style="stroke: #383838; stroke-width: 1.0;" width="10" x="1366.5" y="458.6387"/><rect fill="#FFFFFF" height="54.9316" style="stroke: #383838; stroke-width: 1.0;" width="10" x="1366.5" y="686.3691"/><rect fill="#FFFFFF" height="30" style="stroke: #383838; stroke-width: 1.0;" width="10" x="1640.5" y="613.0586"/><rect fill="#F8F8F8" height="30.4883" style="stroke: #383838; stroke-width: 1.5;" width="43" x="1114" y="283.2188"/><text fill="#000000" font-family="Source Sans Pro Semibold" font-size="14" lengthAdjust="spacingAndGlyphs" textLength="29" x="1121" y="303.7539">Test</text><rect fill="#FFFFFF" height="238.041" style="stroke: #000000; stroke-width: 2.0;" width="1126" x="592" y="420.3281"/><rect fill="#FFFFFF" height="177.4199" style="stroke: #000000; stroke-width: 2.0;" width="675" x="1033" y="473.9492"/><rect fill="#F8F8F8" height="30.4883" style="stroke: #383838; stroke-width: 1.5;" width="123" x="1452" y="491.2598"/><text fill="#000000" font-family="Source Sans Pro Semibold" font-size="14" lengthAdjust="spacingAndGlyphs" textLength="109" x="1459" y="511.7949">TestSupervision</text><line style="stroke: #383838; stroke-width: 1.0; stroke-dasharray: 5.0,5.0;" x1="44" x2="44" y1="112.9766" y2="750.3008"/><line style="stroke: #383838; stroke-width: 1.0; stroke-dasharray: 5.0,5.0;" x1="262.5" x2="262.5" y1="112.9766" y2="750.3008"/><line style="stroke: #383838; stroke-width: 1.0; stroke-dasharray: 5.0,5.0;" x1="675" x2="675" y1="112.9766" y2="750.3008"/><line style="stroke: #383838; stroke-width: 1.0; stroke-dasharray: 5.0,5.0;" x1="1073" x2="1073" y1="112.9766" y2="750.3008"/><line style="stroke: #383838; stroke-width: 1.0; stroke-dasharray: 5.0,5.0;" x1="1135" x2="1135" y1="313.9629" y2="750.3008"/><line style="stroke: #383838; stroke-width: 1.0; stroke-dasharray: 5.0,5.0;" x1="1250" x2="1250" y1="112.9766" y2="750.3008"/><line style="stroke: #383838; stroke-width: 1.0; stroke-dasharray: 5.0,5.0;" x1="1371" x2="1371" y1="112.9766" y2="750.3008"/><line style="stroke: #383838; stroke-width: 1.0; stroke-dasharray: 5.0,5.0;" x1="1513" x2="1513" y1="522.0039" y2="750.3008"/><line style="stroke: #383838; stroke-width: 1.0; stroke-dasharray: 5.0,5.0;" x1="1645" x2="1645" y1="112.9766" y2="750.3008"/><text fill="#000000" font-family="Source Sans Pro Semibold" font-size="14" lengthAdjust="spacingAndGlyphs" textLength="67" x="8" y="110.0234">Instructor</text><ellipse cx="44.5" cy="43.4883" fill="#F8F8F8" rx="8" ry="8" style="stroke: #383838; stroke-width: 2.0;"/><path d="M44.5,51.4883 L44.5,78.4883 M31.5,59.4883 L57.5,59.4883 M44.5,78.4883 L31.5,93.4883 M44.5,78.4883 L57.5,93.4883 " fill="#F8F8F8" style="stroke: #383838; stroke-width: 2.0;"/><rect fill="#F8F8F8" height="30.4883" style="stroke: #383838; stroke-width: 1.5;" width="42" x="241.5" y="81.4883"/><text fill="#000000" font-family="Source Sans Pro Semibold" font-size="14" lengthAdjust="spacingAndGlyphs" textLength="28" x="248.5" y="102.0234">App</text><rect fill="#F8F8F8" height="30.4883" style="stroke: #383838; stroke-width: 1.5;" width="147" x="602" y="81.4883"/><text fill="#000000" font-family="Source Sans Pro Semibold" font-size="14" lengthAdjust="spacingAndGlyphs" textLength="133" x="609" y="102.0234">SupervisorManager</text><rect fill="#F8F8F8" height="30.4883" style="stroke: #383838; stroke-width: 1.5;" width="61" x="1043" y="81.4883"/><text fill="#000000" font-family="Source Sans Pro Semibold" font-size="14" lengthAdjust="spacingAndGlyphs" textLength="47" x="1050" y="102.0234">TestDB</text><rect fill="#F8F8F8" height="30.4883" style="stroke: #383838; stroke-width: 1.5;" width="81" x="1210" y="81.4883"/><text fill="#000000" font-family="Source Sans Pro Semibold" font-size="14" lengthAdjust="spacingAndGlyphs" textLength="67" x="1217" y="102.0234">CourseDB</text><rect fill="#F8F8F8" height="30.4883" style="stroke: #383838; stroke-width: 1.5;" width="141" x="1301" y="81.4883"/><text fill="#000000" font-family="Source Sans Pro Semibold" font-size="14" lengthAdjust="spacingAndGlyphs" textLength="127" x="1308" y="102.0234">TestSupervisionDB</text><rect fill="#F8F8F8" height="30.4883" style="stroke: #383838; stroke-width: 1.5;" width="105" x="1593" y="81.4883"/><text fill="#000000" font-family="Source Sans Pro Semibold" font-size="14" lengthAdjust="spacingAndGlyphs" textLength="91" x="1600" y="102.0234">SupervisorDB</text><rect fill="#FFFFFF" height="101.6211" style="stroke: #383838; stroke-width: 1.0;" width="10" x="257.5" y="143.9766"/><rect fill="#FFFFFF" height="470.7715" style="stroke: #383838; stroke-width: 1.0;" width="10" x="670.5" y="215.5977"/><rect fill="#FFFFFF" height="130.1094" style="stroke: #383838; stroke-width: 1.0;" width="10" x="1068.5" y="274.9082"/><rect fill="#FFFFFF" height="30" style="stroke: #383838; stroke-width: 1.0;" width="10" x="1068.5" y="553.748"/><rect fill="#FFFFFF" height="30" style="stroke: #383838; stroke-width: 1.0;" width="10" x="1245.5" y="345.707"/><rect fill="#FFFFFF" height="199.7305" style="stroke: #383838; stroke-width: 1.0;" width="10" x="1366.5" y="458.6387"/><rect fill="#FFFFFF" height="54.9316" style="stroke: #383838; stroke-width: 1.0;" width="10" x="1366.5" y="686.3691"/><rect fill="#FFFFFF" height="30" style="stroke: #383838; stroke-width: 1.0;" width="10" x="1640.5" y="613.0586"/><polygon fill="#383838" points="245.5,139.9766,255.5,143.9766,245.5,147.9766,249.5,143.9766" style="stroke: #383838; stroke-width: 1.0;"/><line style="stroke: #383838; stroke-width: 1.0;" x1="44.5" x2="251.5" y1="143.9766" y2="143.9766"/><text fill="#000000" font-family="Source Sans Pro Semibold" font-size="13" lengthAdjust="spacingAndGlyphs" textLength="194" x="51.5" y="139.5449">submitTestCreationForm(form)</text><line style="stroke: #383838; stroke-width: 1.0;" x1="267.5" x2="309.5" y1="173.5977" y2="173.5977"/><line style="stroke: #383838; stroke-width: 1.0;" x1="309.5" x2="309.5" y1="173.5977" y2="186.5977"/><line style="stroke: #383838; stroke-width: 1.0;" x1="268.5" x2="309.5" y1="186.5977" y2="186.5977"/><polygon fill="#383838" points="278.5,182.5977,268.5,186.5977,278.5,190.5977,274.5,186.5977" style="stroke: #383838; stroke-width: 1.0;"/><text fill="#000000" font-family="Source Sans Pro Semibold" font-size="13" lengthAdjust="spacingAndGlyphs" textLength="57" x="274.5" y="168.8555">validate()</text><polygon fill="#383838" points="658.5,211.5977,668.5,215.5977,658.5,219.5977,662.5,215.5977" style="stroke: #383838; stroke-width: 1.0;"/><line style="stroke: #383838; stroke-width: 1.0;" x1="267.5" x2="664.5" y1="215.5977" y2="215.5977"/><text fill="#000000" font-family="Source Sans Pro Semibold" font-size="13" lengthAdjust="spacingAndGlyphs" textLength="384" x="274.5" y="211.166">createTest(description, name, maxPoints, dueDate, courseID)</text><polygon fill="#383838" points="1056.5,270.9082,1066.5,274.9082,1056.5,278.9082,1060.5,274.9082" style="stroke: #383838; stroke-width: 1.0;"/><line style="stroke: #383838; stroke-width: 1.0;" x1="680.5" x2="1062.5" y1="274.9082" y2="274.9082"/><text fill="#000000" font-family="Source Sans Pro Semibold" font-size="13" lengthAdjust="spacingAndGlyphs" textLength="369" x="687.5" y="270.4766">addTest(description, name, maxPoints, dueDate, courseID)</text><polygon fill="#383838" points="1102,285.2188,1112,289.2188,1102,293.2188,1106,289.2188" style="stroke: #383838; stroke-width: 1.0;"/><line style="stroke: #383838; stroke-width: 1.0;" x1="1078.5" x2="1108" y1="289.2188" y2="289.2188"/><rect fill="#F8F8F8" height="30.4883" style="stroke: #383838; stroke-width: 1.5;" width="43" x="1114" y="283.2188"/><text fill="#000000" font-family="Source Sans Pro Semibold" font-size="14" lengthAdjust="spacingAndGlyphs" textLength="29" x="1121" y="303.7539">Test</text><polygon fill="#383838" points="1233.5,341.707,1243.5,345.707,1233.5,349.707,1237.5,345.707" style="stroke: #383838; stroke-width: 1.0;"/><line style="stroke: #383838; stroke-width: 1.0;" x1="1078.5" x2="1239.5" y1="345.707" y2="345.707"/><text fill="#000000" font-family="Source Sans Pro Semibold" font-size="13" lengthAdjust="spacingAndGlyphs" textLength="148" x="1085.5" y="341.2754">addTestID(courseID, id)</text><polygon fill="#383838" points="691.5,401.0176,681.5,405.0176,691.5,409.0176,687.5,405.0176" style="stroke: #383838; stroke-width: 1.0;"/><line style="stroke: #383838; stroke-width: 1.0; stroke-dasharray: 2.0,2.0;" x1="685.5" x2="1072.5" y1="405.0176" y2="405.0176"/><text fill="#000000" font-family="Source Sans Pro Semibold" font-size="13" lengthAdjust="spacingAndGlyphs" textLength="38" x="697.5" y="400.5859">testID</text><rect fill="none" height="238.041" style="stroke: #000000; stroke-width: 2.0;" width="1126" x="592" y="420.3281"/><polygon fill="#EEEEEE" points="592,420.3281,666,420.3281,666,427.3281,656,437.3281,592,437.3281,592,420.3281" style="stroke: #000000; stroke-width: 2.0;"/><text fill="#000000" font-family="Source Sans Pro Semibold" font-size="13" font-weight="bold" lengthAdjust="spacingAndGlyphs" textLength="29" x="607" y="433.8965">loop</text><text fill="#000000" font-family="Source Sans Pro Semibold" font-size="11" font-weight="bold" lengthAdjust="spacingAndGlyphs" textLength="214" x="681" y="432.9629">[times number of helpingSupervisors]</text><polygon fill="#383838" points="1354.5,454.6387,1364.5,458.6387,1354.5,462.6387,1358.5,458.6387" style="stroke: #383838; stroke-width: 1.0;"/><line style="stroke: #383838; stroke-width: 1.0;" x1="680.5" x2="1360.5" y1="458.6387" y2="458.6387"/><text fill="#000000" font-family="Source Sans Pro Semibold" font-size="13" lengthAdjust="spacingAndGlyphs" textLength="257" x="687.5" y="454.207">addTestSupervision(supervisorID, testID)</text><rect fill="none" height="177.4199" style="stroke: #000000; stroke-width: 2.0;" width="675" x="1033" y="473.9492"/><polygon fill="#EEEEEE" points="1033,473.9492,1214,473.9492,1214,480.9492,1204,490.9492,1033,490.9492,1033,473.9492" style="stroke: #000000; stroke-width: 2.0;"/><text fill="#000000" font-family="Source Sans Pro Semibold" font-size="13" font-weight="bold" lengthAdjust="spacingAndGlyphs" textLength="136" x="1048" y="487.5176">AddTestSupervision</text><polygon fill="#383838" points="1440,493.2598,1450,497.2598,1440,501.2598,1444,497.2598" style="stroke: #383838; stroke-width: 1.0;"/><line style="stroke: #383838; stroke-width: 1.0;" x1="1376.5" x2="1446" y1="497.2598" y2="497.2598"/><rect fill="#F8F8F8" height="30.4883" style="stroke: #383838; stroke-width: 1.5;" width="123" x="1452" y="491.2598"/><text fill="#000000" font-family="Source Sans Pro Semibold" font-size="14" lengthAdjust="spacingAndGlyphs" textLength="109" x="1459" y="511.7949">TestSupervision</text><polygon fill="#383838" points="1089.5,549.748,1079.5,553.748,1089.5,557.748,1085.5,553.748" style="stroke: #383838; stroke-width: 1.0;"/><line style="stroke: #383838; stroke-width: 1.0;" x1="1083.5" x2="1365.5" y1="553.748" y2="553.748"/><text fill="#000000" font-family="Source Sans Pro Semibold" font-size="13" lengthAdjust="spacingAndGlyphs" textLength="203" x="1095.5" y="549.3164">addTestSupervisionID(testID, id)</text><polygon fill="#383838" points="1628.5,609.0586,1638.5,613.0586,1628.5,617.0586,1632.5,613.0586" style="stroke: #383838; stroke-width: 1.0;"/><line style="stroke: #383838; stroke-width: 1.0;" x1="1376.5" x2="1634.5" y1="613.0586" y2="613.0586"/><text fill="#000000" font-family="Source Sans Pro Semibold" font-size="13" lengthAdjust="spacingAndGlyphs" textLength="245" x="1383.5" y="608.627">addTestSupervisionID(supervisorID, id)</text><polygon fill="#383838" points="1354.5,682.3691,1364.5,686.3691,1354.5,690.3691,1358.5,686.3691" style="stroke: #383838; stroke-width: 1.0;"/><line style="stroke: #383838; stroke-width: 1.0;" x1="675.5" x2="1360.5" y1="686.3691" y2="686.3691"/><text fill="#000000" font-family="Source Sans Pro Semibold" font-size="13" lengthAdjust="spacingAndGlyphs" textLength="299" x="682.5" y="681.9375">addTestSupervision(senderSupervisorID, testID)</text><rect fill="#FFFFFF" height="40.6211" style="stroke: #000000; stroke-width: 2.0;" width="661" x="1040" y="694.6797"/><polygon fill="#EEEEEE" points="1040,694.6797,1104,694.6797,1104,701.6797,1094,711.6797,1040,711.6797,1040,694.6797" style="stroke: #000000; stroke-width: 2.0;"/><text fill="#000000" font-family="Source Sans Pro Semibold" font-size="13" font-weight="bold" lengthAdjust="spacingAndGlyphs" textLength="19" x="1053" y="709.248">ref</text><text fill="#000000" font-family="Source Sans Pro Semibold" font-size="13" lengthAdjust="spacingAndGlyphs" textLength="125" x="1308" y="728.248">AddTestSupervision</text><!--
@startuml


'skinparam handwritten true
skinparam monochrome true
skinparam shadowing false
skinparam classAttributeIconSize 0
skinparam defaultFontName "Source Sans Pro Semibold"
    

title U0 + U3.1 Create Test

actor Instructor

Instructor -> App: submitTestCreationForm(form)
activate App

App -> App: validate()

App -> SupervisorManager: createTest(description, name, maxPoints, dueDate, courseID)
activate SupervisorManager
deactivate App

SupervisorManager -> TestDB: addTest(description, name, maxPoints, dueDate, courseID)
activate TestDB

create Test
TestDB -> Test

TestDB -> CourseDB: addTestID(courseID, id)
activate CourseDB
deactivate CourseDB

TestDB - -> SupervisorManager: testID
deactivate TestDB

loop times number of helpingSupervisors
  SupervisorManager -> TestSupervisionDB: addTestSupervision(supervisorID, testID)
  activate TestSupervisionDB

  group AddTestSupervision

    create TestSupervision
    TestSupervisionDB -> TestSupervision

    TestSupervisionDB -> TestDB: addTestSupervisionID(testID, id)
    activate TestDB
    deactivate TestDB

    TestSupervisionDB -> SupervisorDB: addTestSupervisionID(supervisorID, id)
    activate SupervisorDB
    deactivate SupervisorDB

  end
  
  deactivate TestSupervisionDB
end

SupervisorManager -> TestSupervisionDB: addTestSupervision(senderSupervisorID, testID)
deactivate SupervisorManager

ref over TestSupervisionDB, TestSupervision, TestDB, SupervisorDB: AddTestSupervision
activate TestSupervisionDB
deactivate TestSupervisionDB

hide footbox

@enduml

PlantUML version 1.2017.18(Fri Oct 06 18:56:32 CEST 2017)
(GPL source distribution)
Java Runtime: Java(TM) SE Runtime Environment
JVM: Java HotSpot(TM) 64-Bit Server VM
Java Version: 1.8.0_131-b11
Operating System: Mac OS X
OS Version: 10.12.6
Default Encoding: UTF-8
Language: de
Country: AT
--></g></svg>