<?xml version="1.0" encoding="UTF-8" standalone="no"?><svg xmlns="http://www.w3.org/2000/svg" xmlns:xlink="http://www.w3.org/1999/xlink" contentScriptType="application/ecmascript" contentStyleType="text/css" height="762px" preserveAspectRatio="none" style="width:1645px;height:762px;" version="1.1" viewBox="0 0 1645 762" width="1645px" zoomAndPan="magnify"><defs/><g><text fill="#000000" font-family="Source Sans Pro Semibold" font-size="14" font-weight="bold" lengthAdjust="spacingAndGlyphs" textLength="159" x="744" y="23.5352">U0 + U3.1 Create Test</text><rect fill="#FFFFFF" height="101.6211" style="stroke: #383838; stroke-width: 1.0;" width="10" x="257.5" y="143.9766"/><rect fill="#FFFFFF" height="470.7715" style="stroke: #383838; stroke-width: 1.0;" width="10" x="628.5" y="215.5977"/><rect fill="#FFFFFF" height="130.1094" style="stroke: #383838; stroke-width: 1.0;" width="10" x="984.5" y="274.9082"/><rect fill="#FFFFFF" height="30" style="stroke: #383838; stroke-width: 1.0;" width="10" x="984.5" y="553.748"/><rect fill="#FFFFFF" height="30" style="stroke: #383838; stroke-width: 1.0;" width="10" x="1161.5" y="345.707"/><rect fill="#FFFFFF" height="199.7305" style="stroke: #383838; stroke-width: 1.0;" width="10" x="1282.5" y="458.6387"/><rect fill="#FFFFFF" height="54.9316" style="stroke: #383838; stroke-width: 1.0;" width="10" x="1282.5" y="686.3691"/><rect fill="#FFFFFF" height="30" style="stroke: #383838; stroke-width: 1.0;" width="10" x="1556.5" y="613.0586"/><rect fill="#F8F8F8" height="30.4883" style="stroke: #383838; stroke-width: 1.5;" width="43" x="1030" y="283.2188"/><text fill="#000000" font-family="Source Sans Pro Semibold" font-size="14" lengthAdjust="spacingAndGlyphs" textLength="29" x="1037" y="303.7539">Test</text><rect fill="#FFFFFF" height="238.041" style="stroke: #000000; stroke-width: 2.0;" width="1084" x="550" y="420.3281"/><rect fill="#FFFFFF" height="177.4199" style="stroke: #000000; stroke-width: 2.0;" width="675" x="949" y="473.9492"/><rect fill="#F8F8F8" height="30.4883" style="stroke: #383838; stroke-width: 1.5;" width="123" x="1368" y="491.2598"/><text fill="#000000" font-family="Source Sans Pro Semibold" font-size="14" lengthAdjust="spacingAndGlyphs" textLength="109" x="1375" y="511.7949">TestSupervision</text><line style="stroke: #383838; stroke-width: 1.0; stroke-dasharray: 5.0,5.0;" x1="44" x2="44" y1="112.9766" y2="750.3008"/><line style="stroke: #383838; stroke-width: 1.0; stroke-dasharray: 5.0,5.0;" x1="262.5" x2="262.5" y1="112.9766" y2="750.3008"/><line style="stroke: #383838; stroke-width: 1.0; stroke-dasharray: 5.0,5.0;" x1="633" x2="633" y1="112.9766" y2="750.3008"/><line style="stroke: #383838; stroke-width: 1.0; stroke-dasharray: 5.0,5.0;" x1="989" x2="989" y1="112.9766" y2="750.3008"/><line style="stroke: #383838; stroke-width: 1.0; stroke-dasharray: 5.0,5.0;" x1="1051" x2="1051" y1="313.9629" y2="750.3008"/><line style="stroke: #383838; stroke-width: 1.0; stroke-dasharray: 5.0,5.0;" x1="1166" x2="1166" y1="112.9766" y2="750.3008"/><line style="stroke: #383838; stroke-width: 1.0; stroke-dasharray: 5.0,5.0;" x1="1287" x2="1287" y1="112.9766" y2="750.3008"/><line style="stroke: #383838; stroke-width: 1.0; stroke-dasharray: 5.0,5.0;" x1="1429" x2="1429" y1="522.0039" y2="750.3008"/><line style="stroke: #383838; stroke-width: 1.0; stroke-dasharray: 5.0,5.0;" x1="1561" x2="1561" y1="112.9766" y2="750.3008"/><text fill="#000000" font-family="Source Sans Pro Semibold" font-size="14" lengthAdjust="spacingAndGlyphs" textLength="67" x="8" y="110.0234">Instructor</text><ellipse cx="44.5" cy="43.4883" fill="#F8F8F8" rx="8" ry="8" style="stroke: #383838; stroke-width: 2.0;"/><path d="M44.5,51.4883 L44.5,78.4883 M31.5,59.4883 L57.5,59.4883 M44.5,78.4883 L31.5,93.4883 M44.5,78.4883 L57.5,93.4883 " fill="#F8F8F8" style="stroke: #383838; stroke-width: 2.0;"/><rect fill="#F8F8F8" height="30.4883" style="stroke: #383838; stroke-width: 1.5;" width="42" x="241.5" y="81.4883"/><text fill="#000000" font-family="Source Sans Pro Semibold" font-size="14" lengthAdjust="spacingAndGlyphs" textLength="28" x="248.5" y="102.0234">App</text><rect fill="#F8F8F8" height="30.4883" style="stroke: #383838; stroke-width: 1.5;" width="147" x="560" y="81.4883"/><text fill="#000000" font-family="Source Sans Pro Semibold" font-size="14" lengthAdjust="spacingAndGlyphs" textLength="133" x="567" y="102.0234">SupervisorManager</text><rect fill="#F8F8F8" height="30.4883" style="stroke: #383838; stroke-width: 1.5;" width="61" x="959" y="81.4883"/><text fill="#000000" font-family="Source Sans Pro Semibold" font-size="14" lengthAdjust="spacingAndGlyphs" textLength="47" x="966" y="102.0234">TestDB</text><rect fill="#F8F8F8" height="30.4883" style="stroke: #383838; stroke-width: 1.5;" width="81" x="1126" y="81.4883"/><text fill="#000000" font-family="Source Sans Pro Semibold" font-size="14" lengthAdjust="spacingAndGlyphs" textLength="67" x="1133" y="102.0234">CourseDB</text><rect fill="#F8F8F8" height="30.4883" style="stroke: #383838; stroke-width: 1.5;" width="141" x="1217" y="81.4883"/><text fill="#000000" font-family="Source Sans Pro Semibold" font-size="14" lengthAdjust="spacingAndGlyphs" textLength="127" x="1224" y="102.0234">TestSupervisionDB</text><rect fill="#F8F8F8" height="30.4883" style="stroke: #383838; stroke-width: 1.5;" width="105" x="1509" y="81.4883"/><text fill="#000000" font-family="Source Sans Pro Semibold" font-size="14" lengthAdjust="spacingAndGlyphs" textLength="91" x="1516" y="102.0234">SupervisorDB</text><rect fill="#FFFFFF" height="101.6211" style="stroke: #383838; stroke-width: 1.0;" width="10" x="257.5" y="143.9766"/><rect fill="#FFFFFF" height="470.7715" style="stroke: #383838; stroke-width: 1.0;" width="10" x="628.5" y="215.5977"/><rect fill="#FFFFFF" height="130.1094" style="stroke: #383838; stroke-width: 1.0;" width="10" x="984.5" y="274.9082"/><rect fill="#FFFFFF" height="30" style="stroke: #383838; stroke-width: 1.0;" width="10" x="984.5" y="553.748"/><rect fill="#FFFFFF" height="30" style="stroke: #383838; stroke-width: 1.0;" width="10" x="1161.5" y="345.707"/><rect fill="#FFFFFF" height="199.7305" style="stroke: #383838; stroke-width: 1.0;" width="10" x="1282.5" y="458.6387"/><rect fill="#FFFFFF" height="54.9316" style="stroke: #383838; stroke-width: 1.0;" width="10" x="1282.5" y="686.3691"/><rect fill="#FFFFFF" height="30" style="stroke: #383838; stroke-width: 1.0;" width="10" x="1556.5" y="613.0586"/><polygon fill="#383838" points="245.5,139.9766,255.5,143.9766,245.5,147.9766,249.5,143.9766" style="stroke: #383838; stroke-width: 1.0;"/><line style="stroke: #383838; stroke-width: 1.0;" x1="44.5" x2="251.5" y1="143.9766" y2="143.9766"/><text fill="#000000" font-family="Source Sans Pro Semibold" font-size="13" lengthAdjust="spacingAndGlyphs" textLength="194" x="51.5" y="139.5449">submitTestCreationForm(form)</text><line style="stroke: #383838; stroke-width: 1.0;" x1="267.5" x2="309.5" y1="173.5977" y2="173.5977"/><line style="stroke: #383838; stroke-width: 1.0;" x1="309.5" x2="309.5" y1="173.5977" y2="186.5977"/><line style="stroke: #383838; stroke-width: 1.0;" x1="268.5" x2="309.5" y1="186.5977" y2="186.5977"/><polygon fill="#383838" points="278.5,182.5977,268.5,186.5977,278.5,190.5977,274.5,186.5977" style="stroke: #383838; stroke-width: 1.0;"/><text fill="#000000" font-family="Source Sans Pro Semibold" font-size="13" lengthAdjust="spacingAndGlyphs" textLength="57" x="274.5" y="168.8555">validate()</text><polygon fill="#383838" points="616.5,211.5977,626.5,215.5977,616.5,219.5977,620.5,215.5977" style="stroke: #383838; stroke-width: 1.0;"/><line style="stroke: #383838; stroke-width: 1.0;" x1="267.5" x2="622.5" y1="215.5977" y2="215.5977"/><text fill="#000000" font-family="Source Sans Pro Semibold" font-size="13" lengthAdjust="spacingAndGlyphs" textLength="342" x="274.5" y="211.166">createTest(description, maxPoints, dueDate, courseID)</text><polygon fill="#383838" points="972.5,270.9082,982.5,274.9082,972.5,278.9082,976.5,274.9082" style="stroke: #383838; stroke-width: 1.0;"/><line style="stroke: #383838; stroke-width: 1.0;" x1="638.5" x2="978.5" y1="274.9082" y2="274.9082"/><text fill="#000000" font-family="Source Sans Pro Semibold" font-size="13" lengthAdjust="spacingAndGlyphs" textLength="327" x="645.5" y="270.4766">addTest(description, maxPoints, dueDate, courseID)</text><polygon fill="#383838" points="1018,285.2188,1028,289.2188,1018,293.2188,1022,289.2188" style="stroke: #383838; stroke-width: 1.0;"/><line style="stroke: #383838; stroke-width: 1.0;" x1="994.5" x2="1024" y1="289.2188" y2="289.2188"/><rect fill="#F8F8F8" height="30.4883" style="stroke: #383838; stroke-width: 1.5;" width="43" x="1030" y="283.2188"/><text fill="#000000" font-family="Source Sans Pro Semibold" font-size="14" lengthAdjust="spacingAndGlyphs" textLength="29" x="1037" y="303.7539">Test</text><polygon fill="#383838" points="1149.5,341.707,1159.5,345.707,1149.5,349.707,1153.5,345.707" style="stroke: #383838; stroke-width: 1.0;"/><line style="stroke: #383838; stroke-width: 1.0;" x1="994.5" x2="1155.5" y1="345.707" y2="345.707"/><text fill="#000000" font-family="Source Sans Pro Semibold" font-size="13" lengthAdjust="spacingAndGlyphs" textLength="148" x="1001.5" y="341.2754">addTestID(courseID, id)</text><polygon fill="#383838" points="649.5,401.0176,639.5,405.0176,649.5,409.0176,645.5,405.0176" style="stroke: #383838; stroke-width: 1.0;"/><line style="stroke: #383838; stroke-width: 1.0; stroke-dasharray: 2.0,2.0;" x1="643.5" x2="988.5" y1="405.0176" y2="405.0176"/><text fill="#000000" font-family="Source Sans Pro Semibold" font-size="13" lengthAdjust="spacingAndGlyphs" textLength="38" x="655.5" y="400.5859">testID</text><rect fill="none" height="238.041" style="stroke: #000000; stroke-width: 2.0;" width="1084" x="550" y="420.3281"/><polygon fill="#EEEEEE" points="550,420.3281,624,420.3281,624,427.3281,614,437.3281,550,437.3281,550,420.3281" style="stroke: #000000; stroke-width: 2.0;"/><text fill="#000000" font-family="Source Sans Pro Semibold" font-size="13" font-weight="bold" lengthAdjust="spacingAndGlyphs" textLength="29" x="565" y="433.8965">loop</text><text fill="#000000" font-family="Source Sans Pro Semibold" font-size="11" font-weight="bold" lengthAdjust="spacingAndGlyphs" textLength="214" x="639" y="432.9629">[times number of helpingSupervisors]</text><polygon fill="#383838" points="1270.5,454.6387,1280.5,458.6387,1270.5,462.6387,1274.5,458.6387" style="stroke: #383838; stroke-width: 1.0;"/><line style="stroke: #383838; stroke-width: 1.0;" x1="638.5" x2="1276.5" y1="458.6387" y2="458.6387"/><text fill="#000000" font-family="Source Sans Pro Semibold" font-size="13" lengthAdjust="spacingAndGlyphs" textLength="257" x="645.5" y="454.207">addTestSupervision(supervisorID, testID)</text><rect fill="none" height="177.4199" style="stroke: #000000; stroke-width: 2.0;" width="675" x="949" y="473.9492"/><polygon fill="#EEEEEE" points="949,473.9492,1130,473.9492,1130,480.9492,1120,490.9492,949,490.9492,949,473.9492" style="stroke: #000000; stroke-width: 2.0;"/><text fill="#000000" font-family="Source Sans Pro Semibold" font-size="13" font-weight="bold" lengthAdjust="spacingAndGlyphs" textLength="136" x="964" y="487.5176">AddTestSupervision</text><polygon fill="#383838" points="1356,493.2598,1366,497.2598,1356,501.2598,1360,497.2598" style="stroke: #383838; stroke-width: 1.0;"/><line style="stroke: #383838; stroke-width: 1.0;" x1="1292.5" x2="1362" y1="497.2598" y2="497.2598"/><rect fill="#F8F8F8" height="30.4883" style="stroke: #383838; stroke-width: 1.5;" width="123" x="1368" y="491.2598"/><text fill="#000000" font-family="Source Sans Pro Semibold" font-size="14" lengthAdjust="spacingAndGlyphs" textLength="109" x="1375" y="511.7949">TestSupervision</text><polygon fill="#383838" points="1005.5,549.748,995.5,553.748,1005.5,557.748,1001.5,553.748" style="stroke: #383838; stroke-width: 1.0;"/><line style="stroke: #383838; stroke-width: 1.0;" x1="999.5" x2="1281.5" y1="553.748" y2="553.748"/><text fill="#000000" font-family="Source Sans Pro Semibold" font-size="13" lengthAdjust="spacingAndGlyphs" textLength="203" x="1011.5" y="549.3164">addTestSupervisionID(testID, id)</text><polygon fill="#383838" points="1544.5,609.0586,1554.5,613.0586,1544.5,617.0586,1548.5,613.0586" style="stroke: #383838; stroke-width: 1.0;"/><line style="stroke: #383838; stroke-width: 1.0;" x1="1292.5" x2="1550.5" y1="613.0586" y2="613.0586"/><text fill="#000000" font-family="Source Sans Pro Semibold" font-size="13" lengthAdjust="spacingAndGlyphs" textLength="245" x="1299.5" y="608.627">addTestSupervisionID(supervisorID, id)</text><polygon fill="#383838" points="1270.5,682.3691,1280.5,686.3691,1270.5,690.3691,1274.5,686.3691" style="stroke: #383838; stroke-width: 1.0;"/><line style="stroke: #383838; stroke-width: 1.0;" x1="633.5" x2="1276.5" y1="686.3691" y2="686.3691"/><text fill="#000000" font-family="Source Sans Pro Semibold" font-size="13" lengthAdjust="spacingAndGlyphs" textLength="299" x="640.5" y="681.9375">addTestSupervision(senderSupervisorID, testID)</text><rect fill="#FFFFFF" height="40.6211" style="stroke: #000000; stroke-width: 2.0;" width="661" x="956" y="694.6797"/><polygon fill="#EEEEEE" points="956,694.6797,1020,694.6797,1020,701.6797,1010,711.6797,956,711.6797,956,694.6797" style="stroke: #000000; stroke-width: 2.0;"/><text fill="#000000" font-family="Source Sans Pro Semibold" font-size="13" font-weight="bold" lengthAdjust="spacingAndGlyphs" textLength="19" x="969" y="709.248">ref</text><text fill="#000000" font-family="Source Sans Pro Semibold" font-size="13" lengthAdjust="spacingAndGlyphs" textLength="125" x="1224" y="728.248">AddTestSupervision</text><!--
@startuml


'skinparam handwritten true
skinparam monochrome true
skinparam shadowing false
skinparam classAttributeIconSize 0
skinparam defaultFontName "Source Sans Pro Semibold"
    

title U0 + U3.1 Create Test

actor Instructor

Instructor -> App: submitTestCreationForm(form)
activate App

App -> App: validate()

App -> SupervisorManager: createTest(description, maxPoints, dueDate, courseID)
activate SupervisorManager
deactivate App

SupervisorManager -> TestDB: addTest(description, maxPoints, dueDate, courseID)
activate TestDB

create Test
TestDB -> Test

TestDB -> CourseDB: addTestID(courseID, id)
activate CourseDB
deactivate CourseDB

TestDB - -> SupervisorManager: testID
deactivate TestDB

loop times number of helpingSupervisors
  SupervisorManager -> TestSupervisionDB: addTestSupervision(supervisorID, testID)
  activate TestSupervisionDB

  group AddTestSupervision

    create TestSupervision
    TestSupervisionDB -> TestSupervision

    TestSupervisionDB -> TestDB: addTestSupervisionID(testID, id)
    activate TestDB
    deactivate TestDB

    TestSupervisionDB -> SupervisorDB: addTestSupervisionID(supervisorID, id)
    activate SupervisorDB
    deactivate SupervisorDB

  end
  
  deactivate TestSupervisionDB
end

SupervisorManager -> TestSupervisionDB: addTestSupervision(senderSupervisorID, testID)
deactivate SupervisorManager

ref over TestSupervisionDB, TestSupervision, TestDB, SupervisorDB: AddTestSupervision
activate TestSupervisionDB
deactivate TestSupervisionDB

hide footbox

@enduml

PlantUML version 1.2017.18(Fri Oct 06 18:56:32 CEST 2017)
(GPL source distribution)
Java Runtime: Java(TM) SE Runtime Environment
JVM: Java HotSpot(TM) 64-Bit Server VM
Java Version: 1.8.0_131-b11
Operating System: Mac OS X
OS Version: 10.12.6
Default Encoding: UTF-8
Language: de
Country: AT
--></g></svg>