<?xml version="1.0" encoding="UTF-8" standalone="no"?><svg xmlns="http://www.w3.org/2000/svg" xmlns:xlink="http://www.w3.org/1999/xlink" contentScriptType="application/ecmascript" contentStyleType="text/css" height="1953px" preserveAspectRatio="none" style="width:1260px;height:1953px;" version="1.1" viewBox="0 0 1260 1953" width="1260px" zoomAndPan="magnify"><defs/><g><text fill="#000000" font-family="Source Sans Pro Semibold" font-size="14" font-weight="bold" lengthAdjust="spacingAndGlyphs" textLength="229" x="516.5" y="23.5352">U7 Generate Report [Simplified]</text><rect fill="#FFFFFF" height="1789.0117" style="stroke: #383838; stroke-width: 1.0;" width="10" x="264.5" y="143.9766"/><rect fill="#FFFFFF" height="29.3105" style="stroke: #383838; stroke-width: 1.0;" width="10" x="552.5" y="173.2871"/><rect fill="#FFFFFF" height="145.2422" style="stroke: #383838; stroke-width: 1.0;" width="10" x="552.5" y="618.6348"/><rect fill="#FFFFFF" height="29.3105" style="stroke: #383838; stroke-width: 1.0;" width="10" x="552.5" y="1349.1563"/><rect fill="#FFFFFF" height="74.9316" style="stroke: #383838; stroke-width: 1.0;" width="10" x="552.5" y="1723.5039"/><rect fill="#FFFFFF" height="29.3105" style="stroke: #383838; stroke-width: 1.0;" width="10" x="552.5" y="1827.7461"/><rect fill="#FFFFFF" height="1063.627" style="stroke: #383838; stroke-width: 1.0;" width="10" x="772.5" y="256.2188"/><rect fill="#FFFFFF" height="806.1426" style="stroke: #383838; stroke-width: 1.0;" width="10" x="777.5" y="293.5293"/><rect fill="#FFFFFF" height="605.2793" style="stroke: #383838; stroke-width: 1.0;" width="10" x="782.5" y="384.4609"/><rect fill="#FFFFFF" height="435.7266" style="stroke: #383838; stroke-width: 1.0;" width="10" x="787.5" y="451.082"/><rect fill="#FFFFFF" height="40.3105" style="stroke: #383838; stroke-width: 1.0;" width="10" x="792.5" y="517.7031"/><rect fill="#FFFFFF" height="85.9316" style="stroke: #383838; stroke-width: 1.0;" width="10" x="777.5" y="1143.9824"/><rect fill="#FFFFFF" height="74.9316" style="stroke: #383838; stroke-width: 1.0;" width="10" x="772.5" y="1432.0879"/><rect fill="#FFFFFF" height="74.9316" style="stroke: #383838; stroke-width: 1.0;" width="10" x="772.5" y="1536.3301"/><rect fill="#FFFFFF" height="29.3105" style="stroke: #383838; stroke-width: 1.0;" width="10" x="772.5" y="1640.5723"/><rect fill="#FFFFFF" height="1707.0801" style="stroke: #000000; stroke-width: 2.0;" width="1030.5" x="218.5" y="217.9082"/><rect fill="#FFFFFF" height="751.832" style="stroke: #000000; stroke-width: 2.0;" width="794" x="445" y="313.8398"/><rect fill="#FFFFFF" height="674.9004" style="stroke: #000000; stroke-width: 2.0;" width="774" x="455" y="338.1504"/><rect fill="#FFFFFF" height="550.9688" style="stroke: #000000; stroke-width: 2.0;" width="754" x="465" y="404.7715"/><rect fill="#FFFFFF" height="381.416" style="stroke: #000000; stroke-width: 2.0;" width="734" x="475" y="471.3926"/><rect fill="#FFFFFF" height="265.4844" style="stroke: #000000; stroke-width: 2.0;" width="714" x="485" y="580.3242"/><rect fill="#FFFFFF" height="101.9316" style="stroke: #000000; stroke-width: 2.0;" width="276.5" x="495" y="633.9453"/><rect fill="#FFFFFF" height="59.6211" style="stroke: #000000; stroke-width: 2.0;" width="485" x="704" y="779.1875"/><rect fill="#FFFFFF" height="478.5898" style="stroke: #000000; stroke-width: 2.0;" width="622.5" x="228.5" y="1393.7773"/><rect fill="#FFFFFF" height="180.1738" style="stroke: #000000; stroke-width: 2.0;" width="381.5" x="238.5" y="1685.1934"/><line style="stroke: #383838; stroke-width: 1.0; stroke-dasharray: 5.0,5.0;" x1="37" x2="37" y1="112.9766" y2="1941.9883"/><line style="stroke: #383838; stroke-width: 1.0; stroke-dasharray: 5.0,5.0;" x1="269.5" x2="269.5" y1="112.9766" y2="1941.9883"/><line style="stroke: #383838; stroke-width: 1.0; stroke-dasharray: 5.0,5.0;" x1="557" x2="557" y1="112.9766" y2="1941.9883"/><line style="stroke: #383838; stroke-width: 1.0; stroke-dasharray: 5.0,5.0;" x1="777" x2="777" y1="112.9766" y2="1941.9883"/><text fill="#000000" font-family="Source Sans Pro Semibold" font-size="14" lengthAdjust="spacingAndGlyphs" textLength="53" x="8" y="110.0234">Student</text><ellipse cx="37.5" cy="43.4883" fill="#F8F8F8" rx="8" ry="8" style="stroke: #383838; stroke-width: 2.0;"/><path d="M37.5,51.4883 L37.5,78.4883 M24.5,59.4883 L50.5,59.4883 M37.5,78.4883 L24.5,93.4883 M37.5,78.4883 L50.5,93.4883 " fill="#F8F8F8" style="stroke: #383838; stroke-width: 2.0;"/><rect fill="#F8F8F8" height="30.4883" style="stroke: #383838; stroke-width: 1.5;" width="42" x="248.5" y="81.4883"/><text fill="#000000" font-family="Source Sans Pro Semibold" font-size="14" lengthAdjust="spacingAndGlyphs" textLength="28" x="255.5" y="102.0234">App</text><rect fill="#F8F8F8" height="30.4883" style="stroke: #383838; stroke-width: 1.5;" width="105" x="505" y="81.4883"/><text fill="#000000" font-family="Source Sans Pro Semibold" font-size="14" lengthAdjust="spacingAndGlyphs" textLength="91" x="512" y="102.0234">DataManager</text><rect fill="#F8F8F8" height="30.4883" style="stroke: #383838; stroke-width: 1.5;" width="127" x="714" y="81.4883"/><text fill="#000000" font-family="Source Sans Pro Semibold" font-size="14" lengthAdjust="spacingAndGlyphs" textLength="113" x="721" y="102.0234">StudentManager</text><rect fill="#FFFFFF" height="1789.0117" style="stroke: #383838; stroke-width: 1.0;" width="10" x="264.5" y="143.9766"/><rect fill="#FFFFFF" height="29.3105" style="stroke: #383838; stroke-width: 1.0;" width="10" x="552.5" y="173.2871"/><rect fill="#FFFFFF" height="145.2422" style="stroke: #383838; stroke-width: 1.0;" width="10" x="552.5" y="618.6348"/><rect fill="#FFFFFF" height="29.3105" style="stroke: #383838; stroke-width: 1.0;" width="10" x="552.5" y="1349.1563"/><rect fill="#FFFFFF" height="74.9316" style="stroke: #383838; stroke-width: 1.0;" width="10" x="552.5" y="1723.5039"/><rect fill="#FFFFFF" height="29.3105" style="stroke: #383838; stroke-width: 1.0;" width="10" x="552.5" y="1827.7461"/><rect fill="#FFFFFF" height="1063.627" style="stroke: #383838; stroke-width: 1.0;" width="10" x="772.5" y="256.2188"/><rect fill="#FFFFFF" height="806.1426" style="stroke: #383838; stroke-width: 1.0;" width="10" x="777.5" y="293.5293"/><rect fill="#FFFFFF" height="605.2793" style="stroke: #383838; stroke-width: 1.0;" width="10" x="782.5" y="384.4609"/><rect fill="#FFFFFF" height="435.7266" style="stroke: #383838; stroke-width: 1.0;" width="10" x="787.5" y="451.082"/><rect fill="#FFFFFF" height="40.3105" style="stroke: #383838; stroke-width: 1.0;" width="10" x="792.5" y="517.7031"/><rect fill="#FFFFFF" height="85.9316" style="stroke: #383838; stroke-width: 1.0;" width="10" x="777.5" y="1143.9824"/><rect fill="#FFFFFF" height="74.9316" style="stroke: #383838; stroke-width: 1.0;" width="10" x="772.5" y="1432.0879"/><rect fill="#FFFFFF" height="74.9316" style="stroke: #383838; stroke-width: 1.0;" width="10" x="772.5" y="1536.3301"/><rect fill="#FFFFFF" height="29.3105" style="stroke: #383838; stroke-width: 1.0;" width="10" x="772.5" y="1640.5723"/><polygon fill="#383838" points="252.5,139.9766,262.5,143.9766,252.5,147.9766,256.5,143.9766" style="stroke: #383838; stroke-width: 1.0;"/><line style="stroke: #383838; stroke-width: 1.0;" x1="37.5" x2="258.5" y1="143.9766" y2="143.9766"/><text fill="#000000" font-family="Source Sans Pro Semibold" font-size="13" lengthAdjust="spacingAndGlyphs" textLength="208" x="44.5" y="139.5449">submit report generation request</text><polygon fill="#383838" points="540.5,169.2871,550.5,173.2871,540.5,177.2871,544.5,173.2871" style="stroke: #383838; stroke-width: 1.0;"/><line style="stroke: #383838; stroke-width: 1.0;" x1="274.5" x2="546.5" y1="173.2871" y2="173.2871"/><text fill="#000000" font-family="Source Sans Pro Semibold" font-size="13" lengthAdjust="spacingAndGlyphs" textLength="132" x="281.5" y="168.8555">getPersonalCourses()</text><polygon fill="#383838" points="285.5,198.5977,275.5,202.5977,285.5,206.5977,281.5,202.5977" style="stroke: #383838; stroke-width: 1.0;"/><line style="stroke: #383838; stroke-width: 1.0; stroke-dasharray: 2.0,2.0;" x1="279.5" x2="556.5" y1="202.5977" y2="202.5977"/><text fill="#000000" font-family="Source Sans Pro Semibold" font-size="13" lengthAdjust="spacingAndGlyphs" textLength="49" x="291.5" y="198.166">courses</text><rect fill="none" height="1707.0801" style="stroke: #000000; stroke-width: 2.0;" width="1030.5" x="218.5" y="217.9082"/><polygon fill="#EEEEEE" points="218.5,217.9082,292.5,217.9082,292.5,224.9082,282.5,234.9082,218.5,234.9082,218.5,217.9082" style="stroke: #000000; stroke-width: 2.0;"/><text fill="#000000" font-family="Source Sans Pro Semibold" font-size="13" font-weight="bold" lengthAdjust="spacingAndGlyphs" textLength="29" x="233.5" y="231.4766">loop</text><text fill="#000000" font-family="Source Sans Pro Semibold" font-size="11" font-weight="bold" lengthAdjust="spacingAndGlyphs" textLength="141" x="307.5" y="230.543">[number of own courses]</text><polygon fill="#383838" points="760.5,252.2188,770.5,256.2188,760.5,260.2188,764.5,256.2188" style="stroke: #383838; stroke-width: 1.0;"/><line style="stroke: #383838; stroke-width: 1.0;" x1="274.5" x2="766.5" y1="256.2188" y2="256.2188"/><text fill="#000000" font-family="Source Sans Pro Semibold" font-size="13" lengthAdjust="spacingAndGlyphs" textLength="152" x="281.5" y="251.7871">passedCourse(courseID)</text><line style="stroke: #383838; stroke-width: 1.0;" x1="782.5" x2="829.5" y1="280.8398" y2="280.8398"/><line style="stroke: #383838; stroke-width: 1.0;" x1="829.5" x2="829.5" y1="280.8398" y2="293.8398"/><line style="stroke: #383838; stroke-width: 1.0;" x1="788.5" x2="829.5" y1="293.8398" y2="293.8398"/><polygon fill="#383838" points="798.5,289.8398,788.5,293.8398,798.5,297.8398,794.5,293.8398" style="stroke: #383838; stroke-width: 1.0;"/><text fill="#000000" font-family="Source Sans Pro Semibold" font-size="13" lengthAdjust="spacingAndGlyphs" textLength="234" x="794.5" y="276.0977">passedCourseAssignments(courseID)</text><rect fill="none" height="751.832" style="stroke: #000000; stroke-width: 2.0;" width="794" x="445" y="313.8398"/><polygon fill="#EEEEEE" points="445,313.8398,677,313.8398,677,320.8398,667,330.8398,445,330.8398,445,313.8398" style="stroke: #000000; stroke-width: 2.0;"/><text fill="#000000" font-family="Source Sans Pro Semibold" font-size="13" font-weight="bold" lengthAdjust="spacingAndGlyphs" textLength="187" x="460" y="327.4082">passed course assignments</text><rect fill="none" height="674.9004" style="stroke: #000000; stroke-width: 2.0;" width="774" x="455" y="338.1504"/><polygon fill="#EEEEEE" points="455,338.1504,529,338.1504,529,345.1504,519,355.1504,455,355.1504,455,338.1504" style="stroke: #000000; stroke-width: 2.0;"/><text fill="#000000" font-family="Source Sans Pro Semibold" font-size="13" font-weight="bold" lengthAdjust="spacingAndGlyphs" textLength="29" x="470" y="351.7188">loop</text><text fill="#000000" font-family="Source Sans Pro Semibold" font-size="11" font-weight="bold" lengthAdjust="spacingAndGlyphs" textLength="141" x="544" y="350.7852">[number of assignments]</text><line style="stroke: #383838; stroke-width: 1.0;" x1="787.5" x2="834.5" y1="371.7715" y2="371.7715"/><line style="stroke: #383838; stroke-width: 1.0;" x1="834.5" x2="834.5" y1="371.7715" y2="384.7715"/><line style="stroke: #383838; stroke-width: 1.0;" x1="793.5" x2="834.5" y1="384.7715" y2="384.7715"/><polygon fill="#383838" points="803.5,380.7715,793.5,384.7715,803.5,388.7715,799.5,384.7715" style="stroke: #383838; stroke-width: 1.0;"/><text fill="#000000" font-family="Source Sans Pro Semibold" font-size="13" lengthAdjust="spacingAndGlyphs" textLength="214" x="799.5" y="367.0293">passedAssignment(assignmentID)</text><rect fill="none" height="550.9688" style="stroke: #000000; stroke-width: 2.0;" width="754" x="465" y="404.7715"/><polygon fill="#EEEEEE" points="465,404.7715,641,404.7715,641,411.7715,631,421.7715,465,421.7715,465,404.7715" style="stroke: #000000; stroke-width: 2.0;"/><text fill="#000000" font-family="Source Sans Pro Semibold" font-size="13" font-weight="bold" lengthAdjust="spacingAndGlyphs" textLength="131" x="480" y="418.3398">passed assignment</text><line style="stroke: #383838; stroke-width: 1.0;" x1="792.5" x2="839.5" y1="438.3926" y2="438.3926"/><line style="stroke: #383838; stroke-width: 1.0;" x1="839.5" x2="839.5" y1="438.3926" y2="451.3926"/><line style="stroke: #383838; stroke-width: 1.0;" x1="798.5" x2="839.5" y1="451.3926" y2="451.3926"/><polygon fill="#383838" points="808.5,447.3926,798.5,451.3926,808.5,455.3926,804.5,451.3926" style="stroke: #383838; stroke-width: 1.0;"/><text fill="#000000" font-family="Source Sans Pro Semibold" font-size="13" lengthAdjust="spacingAndGlyphs" textLength="268" x="804.5" y="433.6504">getAssignmentPerformance(assignmentID)</text><rect fill="none" height="381.416" style="stroke: #000000; stroke-width: 2.0;" width="734" x="475" y="471.3926"/><polygon fill="#EEEEEE" points="475,471.3926,690,471.3926,690,478.3926,680,488.3926,475,488.3926,475,471.3926" style="stroke: #000000; stroke-width: 2.0;"/><text fill="#000000" font-family="Source Sans Pro Semibold" font-size="13" font-weight="bold" lengthAdjust="spacingAndGlyphs" textLength="170" x="490" y="484.9609">assignment performance</text><line style="stroke: #383838; stroke-width: 1.0;" x1="797.5" x2="844.5" y1="505.0137" y2="505.0137"/><line style="stroke: #383838; stroke-width: 1.0;" x1="844.5" x2="844.5" y1="505.0137" y2="518.0137"/><line style="stroke: #383838; stroke-width: 1.0;" x1="803.5" x2="844.5" y1="518.0137" y2="518.0137"/><polygon fill="#383838" points="813.5,514.0137,803.5,518.0137,813.5,522.0137,809.5,518.0137" style="stroke: #383838; stroke-width: 1.0;"/><text fill="#000000" font-family="Source Sans Pro Semibold" font-size="13" lengthAdjust="spacingAndGlyphs" textLength="284" x="809.5" y="500.2715">getAssignmentSubmissionIDs(assignmentID)</text><line style="stroke: #383838; stroke-width: 1.0; stroke-dasharray: 2.0,2.0;" x1="802.5" x2="844.5" y1="557.3242" y2="557.3242"/><line style="stroke: #383838; stroke-width: 1.0; stroke-dasharray: 2.0,2.0;" x1="844.5" x2="844.5" y1="557.3242" y2="570.3242"/><line style="stroke: #383838; stroke-width: 1.0; stroke-dasharray: 2.0,2.0;" x1="797.5" x2="844.5" y1="570.3242" y2="570.3242"/><polygon fill="#383838" points="807.5,566.3242,797.5,570.3242,807.5,574.3242,803.5,570.3242" style="stroke: #383838; stroke-width: 1.0;"/><text fill="#000000" font-family="Source Sans Pro Semibold" font-size="13" lengthAdjust="spacingAndGlyphs" textLength="80" x="809.5" y="552.582">submissions</text><rect fill="none" height="265.4844" style="stroke: #000000; stroke-width: 2.0;" width="714" x="485" y="580.3242"/><polygon fill="#EEEEEE" points="485,580.3242,559,580.3242,559,587.3242,549,597.3242,485,597.3242,485,580.3242" style="stroke: #000000; stroke-width: 2.0;"/><text fill="#000000" font-family="Source Sans Pro Semibold" font-size="13" font-weight="bold" lengthAdjust="spacingAndGlyphs" textLength="29" x="500" y="593.8926">loop</text><text fill="#000000" font-family="Source Sans Pro Semibold" font-size="11" font-weight="bold" lengthAdjust="spacingAndGlyphs" textLength="142" x="574" y="592.959">[number of submissions]</text><polygon fill="#383838" points="573.5,614.6348,563.5,618.6348,573.5,622.6348,569.5,618.6348" style="stroke: #383838; stroke-width: 1.0;"/><line style="stroke: #383838; stroke-width: 1.0;" x1="567.5" x2="786.5" y1="618.6348" y2="618.6348"/><text fill="#000000" font-family="Source Sans Pro Semibold" font-size="13" lengthAdjust="spacingAndGlyphs" textLength="191" x="579.5" y="614.2031">getAssessment(submissionID)</text><rect fill="none" height="101.9316" style="stroke: #000000; stroke-width: 2.0;" width="276.5" x="495" y="633.9453"/><polygon fill="#EEEEEE" points="495,633.9453,652,633.9453,652,640.9453,642,650.9453,495,650.9453,495,633.9453" style="stroke: #000000; stroke-width: 2.0;"/><text fill="#000000" font-family="Source Sans Pro Semibold" font-size="13" font-weight="bold" lengthAdjust="spacingAndGlyphs" textLength="112" x="510" y="647.5137">best assessment</text><line style="stroke: #383838; stroke-width: 1.0;" x1="562.5" x2="604.5" y1="672.5664" y2="672.5664"/><line style="stroke: #383838; stroke-width: 1.0;" x1="604.5" x2="604.5" y1="672.5664" y2="685.5664"/><line style="stroke: #383838; stroke-width: 1.0;" x1="563.5" x2="604.5" y1="685.5664" y2="685.5664"/><polygon fill="#383838" points="573.5,681.5664,563.5,685.5664,573.5,689.5664,569.5,685.5664" style="stroke: #383838; stroke-width: 1.0;"/><text fill="#000000" font-family="Source Sans Pro Semibold" font-size="13" lengthAdjust="spacingAndGlyphs" textLength="190" x="569.5" y="667.8242">retrieve ID of first assessment</text><line style="stroke: #383838; stroke-width: 1.0;" x1="562.5" x2="604.5" y1="714.877" y2="714.877"/><line style="stroke: #383838; stroke-width: 1.0;" x1="604.5" x2="604.5" y1="714.877" y2="727.877"/><line style="stroke: #383838; stroke-width: 1.0;" x1="563.5" x2="604.5" y1="727.877" y2="727.877"/><polygon fill="#383838" points="573.5,723.877,563.5,727.877,573.5,731.877,569.5,727.877" style="stroke: #383838; stroke-width: 1.0;"/><text fill="#000000" font-family="Source Sans Pro Semibold" font-size="13" lengthAdjust="spacingAndGlyphs" textLength="144" x="569.5" y="710.1348">find better assessment</text><polygon fill="#383838" points="775.5,759.877,785.5,763.877,775.5,767.877,779.5,763.877" style="stroke: #383838; stroke-width: 1.0;"/><line style="stroke: #383838; stroke-width: 1.0; stroke-dasharray: 2.0,2.0;" x1="557.5" x2="781.5" y1="763.877" y2="763.877"/><text fill="#000000" font-family="Source Sans Pro Semibold" font-size="13" lengthAdjust="spacingAndGlyphs" textLength="105" x="564.5" y="759.4453">best assessment</text><rect fill="none" height="59.6211" style="stroke: #000000; stroke-width: 2.0;" width="485" x="704" y="779.1875"/><polygon fill="#EEEEEE" points="704,779.1875,771,779.1875,771,786.1875,761,796.1875,704,796.1875,704,779.1875" style="stroke: #000000; stroke-width: 2.0;"/><text fill="#000000" font-family="Source Sans Pro Semibold" font-size="13" font-weight="bold" lengthAdjust="spacingAndGlyphs" textLength="22" x="719" y="792.7559">opt</text><text fill="#000000" font-family="Source Sans Pro Semibold" font-size="11" font-weight="bold" lengthAdjust="spacingAndGlyphs" textLength="398" x="786" y="791.8223">[assessment.assessed &amp;&amp; assessment.obtainedPoints &gt; obtainedPoints]</text><line style="stroke: #383838; stroke-width: 1.0;" x1="797.5" x2="839.5" y1="817.8086" y2="817.8086"/><line style="stroke: #383838; stroke-width: 1.0;" x1="839.5" x2="839.5" y1="817.8086" y2="830.8086"/><line style="stroke: #383838; stroke-width: 1.0;" x1="798.5" x2="839.5" y1="830.8086" y2="830.8086"/><polygon fill="#383838" points="808.5,826.8086,798.5,830.8086,808.5,834.8086,804.5,830.8086" style="stroke: #383838; stroke-width: 1.0;"/><text fill="#000000" font-family="Source Sans Pro Semibold" font-size="13" lengthAdjust="spacingAndGlyphs" textLength="250" x="804.5" y="813.0664">remember maximum of obtained points</text><line style="stroke: #383838; stroke-width: 1.0; stroke-dasharray: 2.0,2.0;" x1="797.5" x2="839.5" y1="886.1191" y2="886.1191"/><line style="stroke: #383838; stroke-width: 1.0; stroke-dasharray: 2.0,2.0;" x1="839.5" x2="839.5" y1="886.1191" y2="899.1191"/><line style="stroke: #383838; stroke-width: 1.0; stroke-dasharray: 2.0,2.0;" x1="792.5" x2="839.5" y1="899.1191" y2="899.1191"/><polygon fill="#383838" points="802.5,895.1191,792.5,899.1191,802.5,903.1191,798.5,899.1191" style="stroke: #383838; stroke-width: 1.0;"/><text fill="#000000" font-family="Source Sans Pro Semibold" font-size="13" lengthAdjust="spacingAndGlyphs" textLength="94" x="804.5" y="881.377">obtainedPoints</text><rect fill="#FFFFFF" height="40.6211" style="stroke: #000000; stroke-width: 2.0;" width="278" x="711" y="910.1191"/><polygon fill="#EEEEEE" points="711,910.1191,775,910.1191,775,917.1191,765,927.1191,711,927.1191,711,910.1191" style="stroke: #000000; stroke-width: 2.0;"/><text fill="#000000" font-family="Source Sans Pro Semibold" font-size="13" font-weight="bold" lengthAdjust="spacingAndGlyphs" textLength="19" x="724" y="924.6875">ref</text><text fill="#000000" font-family="Source Sans Pro Semibold" font-size="13" lengthAdjust="spacingAndGlyphs" textLength="270" x="715" y="943.6875">decide whether we passed that assignment</text><line style="stroke: #383838; stroke-width: 1.0; stroke-dasharray: 2.0,2.0;" x1="792.5" x2="834.5" y1="989.0508" y2="989.0508"/><line style="stroke: #383838; stroke-width: 1.0; stroke-dasharray: 2.0,2.0;" x1="834.5" x2="834.5" y1="989.0508" y2="1002.0508"/><line style="stroke: #383838; stroke-width: 1.0; stroke-dasharray: 2.0,2.0;" x1="787.5" x2="834.5" y1="1002.0508" y2="1002.0508"/><polygon fill="#383838" points="797.5,998.0508,787.5,1002.0508,797.5,1006.0508,793.5,1002.0508" style="stroke: #383838; stroke-width: 1.0;"/><text fill="#000000" font-family="Source Sans Pro Semibold" font-size="13" lengthAdjust="spacingAndGlyphs" textLength="128" x="799.5" y="984.3086">passedAssignment ?</text><rect fill="#FFFFFF" height="40.6211" style="stroke: #000000; stroke-width: 2.0;" width="333" x="711" y="1020.0508"/><polygon fill="#EEEEEE" points="711,1020.0508,775,1020.0508,775,1027.0508,765,1037.0508,711,1037.0508,711,1020.0508" style="stroke: #000000; stroke-width: 2.0;"/><text fill="#000000" font-family="Source Sans Pro Semibold" font-size="13" font-weight="bold" lengthAdjust="spacingAndGlyphs" textLength="19" x="724" y="1034.6191">ref</text><text fill="#000000" font-family="Source Sans Pro Semibold" font-size="13" lengthAdjust="spacingAndGlyphs" textLength="325" x="715" y="1053.6191">decide whether we passed the courses assignments</text><line style="stroke: #383838; stroke-width: 1.0; stroke-dasharray: 2.0,2.0;" x1="787.5" x2="829.5" y1="1098.9824" y2="1098.9824"/><line style="stroke: #383838; stroke-width: 1.0; stroke-dasharray: 2.0,2.0;" x1="829.5" x2="829.5" y1="1098.9824" y2="1111.9824"/><line style="stroke: #383838; stroke-width: 1.0; stroke-dasharray: 2.0,2.0;" x1="782.5" x2="829.5" y1="1111.9824" y2="1111.9824"/><polygon fill="#383838" points="792.5,1107.9824,782.5,1111.9824,792.5,1115.9824,788.5,1111.9824" style="stroke: #383838; stroke-width: 1.0;"/><text fill="#000000" font-family="Source Sans Pro Semibold" font-size="13" lengthAdjust="spacingAndGlyphs" textLength="179" x="794.5" y="1094.2402">passedCourseAssignments ?</text><line style="stroke: #383838; stroke-width: 1.0; stroke-dasharray: 2.0,2.0;" x1="782.5" x2="829.5" y1="1131.293" y2="1131.293"/><line style="stroke: #383838; stroke-width: 1.0; stroke-dasharray: 2.0,2.0;" x1="829.5" x2="829.5" y1="1131.293" y2="1144.293"/><line style="stroke: #383838; stroke-width: 1.0; stroke-dasharray: 2.0,2.0;" x1="788.5" x2="829.5" y1="1144.293" y2="1144.293"/><polygon fill="#383838" points="798.5,1140.293,788.5,1144.293,798.5,1148.293,794.5,1144.293" style="stroke: #383838; stroke-width: 1.0;"/><text fill="#000000" font-family="Source Sans Pro Semibold" font-size="13" lengthAdjust="spacingAndGlyphs" textLength="186" x="794.5" y="1126.5508">passedCourseTests(courseID)</text><rect fill="#FFFFFF" height="40.6211" style="stroke: #000000; stroke-width: 2.0;" width="133" x="711" y="1157.293"/><polygon fill="#EEEEEE" points="711,1157.293,775,1157.293,775,1164.293,765,1174.293,711,1174.293,711,1157.293" style="stroke: #000000; stroke-width: 2.0;"/><text fill="#000000" font-family="Source Sans Pro Semibold" font-size="13" font-weight="bold" lengthAdjust="spacingAndGlyphs" textLength="19" x="724" y="1171.8613">ref</text><text fill="#000000" font-family="Source Sans Pro Semibold" font-size="13" lengthAdjust="spacingAndGlyphs" textLength="125" x="715" y="1190.8613">passed course tests</text><line style="stroke: #383838; stroke-width: 1.0;" x1="787.5" x2="829.5" y1="1229.2246" y2="1229.2246"/><line style="stroke: #383838; stroke-width: 1.0;" x1="829.5" x2="829.5" y1="1229.2246" y2="1242.2246"/><line style="stroke: #383838; stroke-width: 1.0;" x1="782.5" x2="829.5" y1="1242.2246" y2="1242.2246"/><polygon fill="#383838" points="792.5,1238.2246,782.5,1242.2246,792.5,1246.2246,788.5,1242.2246" style="stroke: #383838; stroke-width: 1.0;"/><text fill="#000000" font-family="Source Sans Pro Semibold" font-size="13" lengthAdjust="spacingAndGlyphs" textLength="131" x="794.5" y="1224.4824">passedCourseTests ?</text><rect fill="#FFFFFF" height="40.6211" style="stroke: #000000; stroke-width: 2.0;" width="242" x="711" y="1253.2246"/><polygon fill="#EEEEEE" points="711,1253.2246,775,1253.2246,775,1260.2246,765,1270.2246,711,1270.2246,711,1253.2246" style="stroke: #000000; stroke-width: 2.0;"/><text fill="#000000" font-family="Source Sans Pro Semibold" font-size="13" font-weight="bold" lengthAdjust="spacingAndGlyphs" textLength="19" x="724" y="1267.793">ref</text><text fill="#000000" font-family="Source Sans Pro Semibold" font-size="13" lengthAdjust="spacingAndGlyphs" textLength="234" x="715" y="1286.793">decide whether we passed the course</text><polygon fill="#383838" points="285.5,1315.8457,275.5,1319.8457,285.5,1323.8457,281.5,1319.8457" style="stroke: #383838; stroke-width: 1.0;"/><line style="stroke: #383838; stroke-width: 1.0; stroke-dasharray: 2.0,2.0;" x1="279.5" x2="776.5" y1="1319.8457" y2="1319.8457"/><text fill="#000000" font-family="Source Sans Pro Semibold" font-size="13" lengthAdjust="spacingAndGlyphs" textLength="97" x="291.5" y="1315.4141">passedCourse ?</text><polygon fill="#383838" points="540.5,1345.1563,550.5,1349.1563,540.5,1353.1563,544.5,1349.1563" style="stroke: #383838; stroke-width: 1.0;"/><line style="stroke: #383838; stroke-width: 1.0;" x1="274.5" x2="546.5" y1="1349.1563" y2="1349.1563"/><text fill="#000000" font-family="Source Sans Pro Semibold" font-size="13" lengthAdjust="spacingAndGlyphs" textLength="210" x="281.5" y="1344.7246">getCourseAssignments(courseID)</text><polygon fill="#383838" points="285.5,1374.4668,275.5,1378.4668,285.5,1382.4668,281.5,1378.4668" style="stroke: #383838; stroke-width: 1.0;"/><line style="stroke: #383838; stroke-width: 1.0; stroke-dasharray: 2.0,2.0;" x1="279.5" x2="556.5" y1="1378.4668" y2="1378.4668"/><text fill="#000000" font-family="Source Sans Pro Semibold" font-size="13" lengthAdjust="spacingAndGlyphs" textLength="80" x="291.5" y="1374.0352">assignments</text><rect fill="none" height="478.5898" style="stroke: #000000; stroke-width: 2.0;" width="622.5" x="228.5" y="1393.7773"/><polygon fill="#EEEEEE" points="228.5,1393.7773,302.5,1393.7773,302.5,1400.7773,292.5,1410.7773,228.5,1410.7773,228.5,1393.7773" style="stroke: #000000; stroke-width: 2.0;"/><text fill="#000000" font-family="Source Sans Pro Semibold" font-size="13" font-weight="bold" lengthAdjust="spacingAndGlyphs" textLength="29" x="243.5" y="1407.3457">loop</text><text fill="#000000" font-family="Source Sans Pro Semibold" font-size="11" font-weight="bold" lengthAdjust="spacingAndGlyphs" textLength="141" x="317.5" y="1406.4121">[number of assignments]</text><polygon fill="#383838" points="760.5,1428.0879,770.5,1432.0879,760.5,1436.0879,764.5,1432.0879" style="stroke: #383838; stroke-width: 1.0;"/><line style="stroke: #383838; stroke-width: 1.0;" x1="274.5" x2="766.5" y1="1432.0879" y2="1432.0879"/><text fill="#000000" font-family="Source Sans Pro Semibold" font-size="13" lengthAdjust="spacingAndGlyphs" textLength="268" x="281.5" y="1427.6563">getAssignmentPerformance(assignmentID)</text><rect fill="#FFFFFF" height="40.6211" style="stroke: #000000; stroke-width: 2.0;" width="164" x="711" y="1440.3984"/><polygon fill="#EEEEEE" points="711,1440.3984,775,1440.3984,775,1447.3984,765,1457.3984,711,1457.3984,711,1440.3984" style="stroke: #000000; stroke-width: 2.0;"/><text fill="#000000" font-family="Source Sans Pro Semibold" font-size="13" font-weight="bold" lengthAdjust="spacingAndGlyphs" textLength="19" x="724" y="1454.9668">ref</text><text fill="#000000" font-family="Source Sans Pro Semibold" font-size="13" lengthAdjust="spacingAndGlyphs" textLength="156" x="715" y="1473.9668">assignment performance</text><polygon fill="#383838" points="285.5,1503.0195,275.5,1507.0195,285.5,1511.0195,281.5,1507.0195" style="stroke: #383838; stroke-width: 1.0;"/><line style="stroke: #383838; stroke-width: 1.0; stroke-dasharray: 2.0,2.0;" x1="279.5" x2="776.5" y1="1507.0195" y2="1507.0195"/><text fill="#000000" font-family="Source Sans Pro Semibold" font-size="13" lengthAdjust="spacingAndGlyphs" textLength="94" x="291.5" y="1502.5879">obtainedPoints</text><polygon fill="#383838" points="760.5,1532.3301,770.5,1536.3301,760.5,1540.3301,764.5,1536.3301" style="stroke: #383838; stroke-width: 1.0;"/><line style="stroke: #383838; stroke-width: 1.0;" x1="274.5" x2="766.5" y1="1536.3301" y2="1536.3301"/><text fill="#000000" font-family="Source Sans Pro Semibold" font-size="13" lengthAdjust="spacingAndGlyphs" textLength="214" x="281.5" y="1531.8984">passedAssignment(assignmentID)</text><rect fill="#FFFFFF" height="40.6211" style="stroke: #000000; stroke-width: 2.0;" width="133" x="711" y="1544.6406"/><polygon fill="#EEEEEE" points="711,1544.6406,775,1544.6406,775,1551.6406,765,1561.6406,711,1561.6406,711,1544.6406" style="stroke: #000000; stroke-width: 2.0;"/><text fill="#000000" font-family="Source Sans Pro Semibold" font-size="13" font-weight="bold" lengthAdjust="spacingAndGlyphs" textLength="19" x="724" y="1559.209">ref</text><text fill="#000000" font-family="Source Sans Pro Semibold" font-size="13" lengthAdjust="spacingAndGlyphs" textLength="121" x="717" y="1578.209">passed assignment</text><polygon fill="#383838" points="285.5,1607.2617,275.5,1611.2617,285.5,1615.2617,281.5,1611.2617" style="stroke: #383838; stroke-width: 1.0;"/><line style="stroke: #383838; stroke-width: 1.0; stroke-dasharray: 2.0,2.0;" x1="279.5" x2="776.5" y1="1611.2617" y2="1611.2617"/><text fill="#000000" font-family="Source Sans Pro Semibold" font-size="13" lengthAdjust="spacingAndGlyphs" textLength="128" x="291.5" y="1606.8301">passedAssignment ?</text><polygon fill="#383838" points="760.5,1636.5723,770.5,1640.5723,760.5,1644.5723,764.5,1640.5723" style="stroke: #383838; stroke-width: 1.0;"/><line style="stroke: #383838; stroke-width: 1.0;" x1="274.5" x2="766.5" y1="1640.5723" y2="1640.5723"/><text fill="#000000" font-family="Source Sans Pro Semibold" font-size="13" lengthAdjust="spacingAndGlyphs" textLength="284" x="281.5" y="1636.1406">getAssignmentSubmissionIDs(assignmentID)</text><polygon fill="#383838" points="285.5,1665.8828,275.5,1669.8828,285.5,1673.8828,281.5,1669.8828" style="stroke: #383838; stroke-width: 1.0;"/><line style="stroke: #383838; stroke-width: 1.0; stroke-dasharray: 2.0,2.0;" x1="279.5" x2="776.5" y1="1669.8828" y2="1669.8828"/><text fill="#000000" font-family="Source Sans Pro Semibold" font-size="13" lengthAdjust="spacingAndGlyphs" textLength="80" x="291.5" y="1665.4512">submissions</text><rect fill="none" height="180.1738" style="stroke: #000000; stroke-width: 2.0;" width="381.5" x="238.5" y="1685.1934"/><polygon fill="#EEEEEE" points="238.5,1685.1934,312.5,1685.1934,312.5,1692.1934,302.5,1702.1934,238.5,1702.1934,238.5,1685.1934" style="stroke: #000000; stroke-width: 2.0;"/><text fill="#000000" font-family="Source Sans Pro Semibold" font-size="13" font-weight="bold" lengthAdjust="spacingAndGlyphs" textLength="29" x="253.5" y="1698.7617">loop</text><text fill="#000000" font-family="Source Sans Pro Semibold" font-size="11" font-weight="bold" lengthAdjust="spacingAndGlyphs" textLength="142" x="327.5" y="1697.8281">[number of submissions]</text><polygon fill="#383838" points="540.5,1719.5039,550.5,1723.5039,540.5,1727.5039,544.5,1723.5039" style="stroke: #383838; stroke-width: 1.0;"/><line style="stroke: #383838; stroke-width: 1.0;" x1="274.5" x2="546.5" y1="1723.5039" y2="1723.5039"/><text fill="#000000" font-family="Source Sans Pro Semibold" font-size="13" lengthAdjust="spacingAndGlyphs" textLength="191" x="281.5" y="1719.0723">getAssessment(submissionID)</text><rect fill="#FFFFFF" height="40.6211" style="stroke: #000000; stroke-width: 2.0;" width="113" x="502" y="1731.8145"/><polygon fill="#EEEEEE" points="502,1731.8145,566,1731.8145,566,1738.8145,556,1748.8145,502,1748.8145,502,1731.8145" style="stroke: #000000; stroke-width: 2.0;"/><text fill="#000000" font-family="Source Sans Pro Semibold" font-size="13" font-weight="bold" lengthAdjust="spacingAndGlyphs" textLength="19" x="515" y="1746.3828">ref</text><text fill="#000000" font-family="Source Sans Pro Semibold" font-size="13" lengthAdjust="spacingAndGlyphs" textLength="105" x="506" y="1765.3828">best assessment</text><polygon fill="#383838" points="285.5,1794.4355,275.5,1798.4355,285.5,1802.4355,281.5,1798.4355" style="stroke: #383838; stroke-width: 1.0;"/><line style="stroke: #383838; stroke-width: 1.0; stroke-dasharray: 2.0,2.0;" x1="279.5" x2="556.5" y1="1798.4355" y2="1798.4355"/><text fill="#000000" font-family="Source Sans Pro Semibold" font-size="13" lengthAdjust="spacingAndGlyphs" textLength="74" x="291.5" y="1794.0039">assessment</text><polygon fill="#383838" points="540.5,1823.7461,550.5,1827.7461,540.5,1831.7461,544.5,1827.7461" style="stroke: #383838; stroke-width: 1.0;"/><line style="stroke: #383838; stroke-width: 1.0;" x1="274.5" x2="546.5" y1="1827.7461" y2="1827.7461"/><text fill="#000000" font-family="Source Sans Pro Semibold" font-size="13" lengthAdjust="spacingAndGlyphs" textLength="259" x="281.5" y="1823.3145">getSubmissionRelatedInfo(submissionID)</text><polygon fill="#383838" points="285.5,1853.0566,275.5,1857.0566,285.5,1861.0566,281.5,1857.0566" style="stroke: #383838; stroke-width: 1.0;"/><line style="stroke: #383838; stroke-width: 1.0; stroke-dasharray: 2.0,2.0;" x1="279.5" x2="556.5" y1="1857.0566" y2="1857.0566"/><text fill="#000000" font-family="Source Sans Pro Semibold" font-size="13" lengthAdjust="spacingAndGlyphs" textLength="236" x="291.5" y="1852.625">maxPoints, submissionDate, dueDate</text><rect fill="#FFFFFF" height="40.6211" style="stroke: #000000; stroke-width: 2.0;" width="598.5" x="245.5" y="1879.3672"/><polygon fill="#EEEEEE" points="245.5,1879.3672,309.5,1879.3672,309.5,1886.3672,299.5,1896.3672,245.5,1896.3672,245.5,1879.3672" style="stroke: #000000; stroke-width: 2.0;"/><text fill="#000000" font-family="Source Sans Pro Semibold" font-size="13" font-weight="bold" lengthAdjust="spacingAndGlyphs" textLength="19" x="258.5" y="1893.9355">ref</text><text fill="#000000" font-family="Source Sans Pro Semibold" font-size="13" lengthAdjust="spacingAndGlyphs" textLength="132" x="478.75" y="1912.9355">loop for tests as well</text><!--
@startuml


'skinparam handwritten true
skinparam monochrome true
skinparam shadowing false
skinparam classAttributeIconSize 0
skinparam defaultFontName "Source Sans Pro Semibold"
    

title U7 Generate Report [Simplified]

actor Student

Student -> App: submit report generation request
activate App

App -> DataManager: getPersonalCourses()
activate DataManager

DataManager - -> App: courses
deactivate DataManager

loop number of own courses
  App -> StudentManager: passedCourse(courseID)
  activate StudentManager

  StudentManager -> StudentManager: passedCourseAssignments(courseID)
  activate StudentManager

  group passed course assignments

    loop number of assignments
      StudentManager -> StudentManager: passedAssignment(assignmentID)
      activate StudentManager

      group passed assignment
        StudentManager -> StudentManager: getAssignmentPerformance(assignmentID)
        activate StudentManager

        group assignment performance
          StudentManager -> StudentManager: getAssignmentSubmissionIDs(assignmentID)
          activate StudentManager

          StudentManager - -> StudentManager: submissions
          deactivate StudentManager

          loop number of submissions
            StudentManager -> DataManager: getAssessment(submissionID)
            activate DataManager

            group best assessment
              DataManager -> DataManager: retrieve ID of first assessment
              DataManager -> DataManager: find better assessment
            end

            DataManager - -> StudentManager: best assessment
            deactivate DataManager

            opt assessment.assessed && assessment.obtainedPoints > obtainedPoints
              StudentManager -> StudentManager: remember maximum of obtained points
            end
          end
        end

        StudentManager - -> StudentManager: obtainedPoints
        deactivate StudentManager
        ||8||
        
        ref over StudentManager: decide whether we passed that assignment

      end

      StudentManager - -> StudentManager: passedAssignment ?
      deactivate StudentManager
      ||8||
    end

    ref over StudentManager: decide whether we passed the courses assignments

  end

  StudentManager - -> StudentManager: passedCourseAssignments ?
  deactivate StudentManager

  StudentManager - -> StudentManager: passedCourseTests(courseID)
  activate StudentManager

  ref over StudentManager: passed course tests

  StudentManager -> StudentManager: passedCourseTests ?
  deactivate StudentManager
  ||8||

  ref over StudentManager: decide whether we passed the course

  StudentManager - -> App: passedCourse ?
  deactivate StudentManager

  App -> DataManager: getCourseAssignments(courseID)
  activate DataManager
  
  DataManager - -> App: assignments
  deactivate DataManager

  loop number of assignments
    App -> StudentManager: getAssignmentPerformance(assignmentID)
    activate StudentManager

    ref over StudentManager: assignment performance

    StudentManager - -> App: obtainedPoints
    deactivate StudentManager

    App -> StudentManager: passedAssignment(assignmentID)
    activate StudentManager

    ref over StudentManager: passed assignment

    StudentManager - -> App: passedAssignment ?
    deactivate StudentManager
    
    App -> StudentManager: getAssignmentSubmissionIDs(assignmentID)
    activate StudentManager

    StudentManager - -> App: submissions
    deactivate StudentManager

    loop number of submissions
      App -> DataManager: getAssessment(submissionID)
      activate DataManager

      ref over DataManager: best assessment

      DataManager - -> App: assessment
      deactivate DataManager

      App -> DataManager: getSubmissionRelatedInfo(submissionID)
      activate DataManager

      DataManager - -> App: maxPoints, submissionDate, dueDate
      deactivate DataManager
    end
  end

  ref over App, DataManager, StudentManager: loop for tests as well

end


deactivate StudentManager

hide footbox

@enduml

PlantUML version 1.2017.18(Fri Oct 06 18:56:32 CEST 2017)
(GPL source distribution)
Java Runtime: Java(TM) SE Runtime Environment
JVM: Java HotSpot(TM) 64-Bit Server VM
Java Version: 1.8.0_131-b11
Operating System: Mac OS X
OS Version: 10.12.6
Default Encoding: UTF-8
Language: de
Country: AT
--></g></svg>