<?xml version="1.0" encoding="UTF-8" standalone="no"?><svg xmlns="http://www.w3.org/2000/svg" xmlns:xlink="http://www.w3.org/1999/xlink" contentScriptType="application/ecmascript" contentStyleType="text/css" height="2023px" preserveAspectRatio="none" style="width:2165px;height:2023px;" version="1.1" viewBox="0 0 2165 2023" width="2165px" zoomAndPan="magnify"><defs/><g><text fill="#000000" font-family="Source Sans Pro Semibold" font-size="14" font-weight="bold" lengthAdjust="spacingAndGlyphs" textLength="140" x="1013.75" y="23.5352">U7 Generate Report</text><rect fill="#FFFFFF" height="1858.209" style="stroke: #383838; stroke-width: 1.0;" width="10" x="264.5" y="143.9766"/><rect fill="#FFFFFF" height="295.1055" style="stroke: #383838; stroke-width: 1.0;" width="10" x="552.5" y="173.2871"/><rect fill="#FFFFFF" height="236.4844" style="stroke: #383838; stroke-width: 1.0;" width="10" x="552.5" y="522.0137"/><rect fill="#FFFFFF" height="192.8184" style="stroke: #383838; stroke-width: 1.0;" width="10" x="552.5" y="1733.4355"/><rect fill="#FFFFFF" height="29.3105" style="stroke: #383838; stroke-width: 1.0;" width="10" x="911.5" y="202.5977"/><rect fill="#FFFFFF" height="29.3105" style="stroke: #383838; stroke-width: 1.0;" width="10" x="911.5" y="285.5293"/><rect fill="#FFFFFF" height="29.3105" style="stroke: #383838; stroke-width: 1.0;" width="10" x="911.5" y="883.7402"/><rect fill="#FFFFFF" height="29.3105" style="stroke: #383838; stroke-width: 1.0;" width="10" x="911.5" y="966.6719"/><rect fill="#FFFFFF" height="29.3105" style="stroke: #383838; stroke-width: 1.0;" width="10" x="1047.5" y="344.1504"/><rect fill="#FFFFFF" height="29.3105" style="stroke: #383838; stroke-width: 1.0;" width="10" x="1181.5" y="402.7715"/><rect fill="#FFFFFF" height="29.3105" style="stroke: #383838; stroke-width: 1.0;" width="10" x="1181.5" y="551.3242"/><rect fill="#FFFFFF" height="29.3105" style="stroke: #383838; stroke-width: 1.0;" width="10" x="1181.5" y="634.2559"/><rect fill="#FFFFFF" height="29.3105" style="stroke: #383838; stroke-width: 1.0;" width="10" x="1288.5" y="692.877"/><rect fill="#FFFFFF" height="29.3105" style="stroke: #383838; stroke-width: 1.0;" width="10" x="1288.5" y="1845.6777"/><rect fill="#FFFFFF" height="379.7266" style="stroke: #383838; stroke-width: 1.0;" width="10" x="1418.5" y="812.1191"/><rect fill="#FFFFFF" height="306.1055" style="stroke: #383838; stroke-width: 1.0;" width="10" x="1423.5" y="849.4297"/><rect fill="#FFFFFF" height="458.6582" style="stroke: #383838; stroke-width: 1.0;" width="10" x="1418.5" y="1245.4668"/><rect fill="#FFFFFF" height="29.3105" style="stroke: #383838; stroke-width: 1.0;" width="10" x="1773.5" y="1025.293"/><rect fill="#FFFFFF" height="29.3105" style="stroke: #383838; stroke-width: 1.0;" width="10" x="1921" y="1083.9141"/><rect fill="#FFFFFF" height="29.3105" style="stroke: #383838; stroke-width: 1.0;" width="10" x="1921" y="1274.7773"/><rect fill="#FFFFFF" height="29.3105" style="stroke: #383838; stroke-width: 1.0;" width="10" x="1921" y="1416.3301"/><rect fill="#FFFFFF" height="29.3105" style="stroke: #383838; stroke-width: 1.0;" width="10" x="1921" y="1499.2617"/><rect fill="#FFFFFF" height="29.3105" style="stroke: #383838; stroke-width: 1.0;" width="10" x="1921" y="1762.7461"/><rect fill="#FFFFFF" height="29.3105" style="stroke: #383838; stroke-width: 1.0;" width="10" x="2043" y="1333.3984"/><rect fill="#FFFFFF" height="29.3105" style="stroke: #383838; stroke-width: 1.0;" width="10" x="2043" y="1557.8828"/><rect fill="#FFFFFF" height="193.1738" style="stroke: #000000; stroke-width: 2.0;" width="742" x="495" y="247.2188"/><rect fill="#FFFFFF" height="1510.4824" style="stroke: #000000; stroke-width: 2.0;" width="1936" x="218.5" y="483.7031"/><rect fill="#FFFFFF" height="134.5527" style="stroke: #000000; stroke-width: 2.0;" width="865" x="495" y="595.9453"/><rect fill="#FFFFFF" height="1167.7559" style="stroke: #000000; stroke-width: 2.0;" width="1916" x="228.5" y="773.8086"/><rect fill="#FFFFFF" height="193.1738" style="stroke: #000000; stroke-width: 2.0;" width="1127.5" x="864" y="928.3613"/><rect fill="#FFFFFF" height="727.4082" style="stroke: #000000; stroke-width: 2.0;" width="1896" x="238.5" y="1207.1563"/><rect fill="#FFFFFF" height="298.1055" style="stroke: #000000; stroke-width: 2.0;" width="794.5" x="1330" y="1378.0195"/><rect fill="#FFFFFF" height="208.1738" style="stroke: #000000; stroke-width: 2.0;" width="774.5" x="1340" y="1460.9512"/><rect fill="#FFFFFF" height="59.6211" style="stroke: #000000; stroke-width: 2.0;" width="438" x="1350" y="1602.5039"/><rect fill="#FFFFFF" height="90.8867" style="stroke: #000000; stroke-width: 2.0;" width="865" x="495" y="1807.3672"/><rect fill="#FFFFFF" height="14.9551" style="stroke: none; stroke-width: 1.0;" width="865" x="495" y="1883.2988"/><line style="stroke: #383838; stroke-width: 1.0; stroke-dasharray: 5.0,5.0;" x1="37" x2="37" y1="112.9766" y2="2011.1855"/><line style="stroke: #383838; stroke-width: 1.0; stroke-dasharray: 5.0,5.0;" x1="269.5" x2="269.5" y1="112.9766" y2="2011.1855"/><line style="stroke: #383838; stroke-width: 1.0; stroke-dasharray: 5.0,5.0;" x1="557" x2="557" y1="112.9766" y2="2011.1855"/><line style="stroke: #383838; stroke-width: 1.0; stroke-dasharray: 5.0,5.0;" x1="916" x2="916" y1="112.9766" y2="2011.1855"/><line style="stroke: #383838; stroke-width: 1.0; stroke-dasharray: 5.0,5.0;" x1="1052" x2="1052" y1="112.9766" y2="2011.1855"/><line style="stroke: #383838; stroke-width: 1.0; stroke-dasharray: 5.0,5.0;" x1="1186" x2="1186" y1="112.9766" y2="2011.1855"/><line style="stroke: #383838; stroke-width: 1.0; stroke-dasharray: 5.0,5.0;" x1="1293" x2="1293" y1="112.9766" y2="2011.1855"/><line style="stroke: #383838; stroke-width: 1.0; stroke-dasharray: 5.0,5.0;" x1="1423" x2="1423" y1="112.9766" y2="2011.1855"/><line style="stroke: #383838; stroke-width: 1.0; stroke-dasharray: 5.0,5.0;" x1="1778.5" x2="1778.5" y1="112.9766" y2="2011.1855"/><line style="stroke: #383838; stroke-width: 1.0; stroke-dasharray: 5.0,5.0;" x1="1925.5" x2="1925.5" y1="112.9766" y2="2011.1855"/><line style="stroke: #383838; stroke-width: 1.0; stroke-dasharray: 5.0,5.0;" x1="2047.5" x2="2047.5" y1="112.9766" y2="2011.1855"/><text fill="#000000" font-family="Source Sans Pro Semibold" font-size="14" lengthAdjust="spacingAndGlyphs" textLength="53" x="8" y="110.0234">Student</text><ellipse cx="37.5" cy="43.4883" fill="#F8F8F8" rx="8" ry="8" style="stroke: #383838; stroke-width: 2.0;"/><path d="M37.5,51.4883 L37.5,78.4883 M24.5,59.4883 L50.5,59.4883 M37.5,78.4883 L24.5,93.4883 M37.5,78.4883 L50.5,93.4883 " fill="#F8F8F8" style="stroke: #383838; stroke-width: 2.0;"/><rect fill="#F8F8F8" height="30.4883" style="stroke: #383838; stroke-width: 1.5;" width="42" x="248.5" y="81.4883"/><text fill="#000000" font-family="Source Sans Pro Semibold" font-size="14" lengthAdjust="spacingAndGlyphs" textLength="28" x="255.5" y="102.0234">App</text><rect fill="#F8F8F8" height="30.4883" style="stroke: #383838; stroke-width: 1.5;" width="105" x="505" y="81.4883"/><text fill="#000000" font-family="Source Sans Pro Semibold" font-size="14" lengthAdjust="spacingAndGlyphs" textLength="91" x="512" y="102.0234">DataManager</text><rect fill="#F8F8F8" height="30.4883" style="stroke: #383838; stroke-width: 1.5;" width="85" x="874" y="81.4883"/><text fill="#000000" font-family="Source Sans Pro Semibold" font-size="14" lengthAdjust="spacingAndGlyphs" textLength="71" x="881" y="102.0234">StudentDB</text><rect fill="#F8F8F8" height="30.4883" style="stroke: #383838; stroke-width: 1.5;" width="167" x="969" y="81.4883"/><text fill="#000000" font-family="Source Sans Pro Semibold" font-size="14" lengthAdjust="spacingAndGlyphs" textLength="153" x="976" y="102.0234">CourseParticipationDB</text><rect fill="#F8F8F8" height="30.4883" style="stroke: #383838; stroke-width: 1.5;" width="81" x="1146" y="81.4883"/><text fill="#000000" font-family="Source Sans Pro Semibold" font-size="14" lengthAdjust="spacingAndGlyphs" textLength="67" x="1153" y="102.0234">CourseDB</text><rect fill="#F8F8F8" height="30.4883" style="stroke: #383838; stroke-width: 1.5;" width="113" x="1237" y="81.4883"/><text fill="#000000" font-family="Source Sans Pro Semibold" font-size="14" lengthAdjust="spacingAndGlyphs" textLength="99" x="1244" y="102.0234">AssignmentDB</text><rect fill="#F8F8F8" height="30.4883" style="stroke: #383838; stroke-width: 1.5;" width="127" x="1360" y="81.4883"/><text fill="#000000" font-family="Source Sans Pro Semibold" font-size="14" lengthAdjust="spacingAndGlyphs" textLength="113" x="1367" y="102.0234">StudentManager</text><rect fill="#F8F8F8" height="30.4883" style="stroke: #383838; stroke-width: 1.5;" width="164" x="1696.5" y="81.4883"/><text fill="#000000" font-family="Source Sans Pro Semibold" font-size="14" lengthAdjust="spacingAndGlyphs" textLength="150" x="1703.5" y="102.0234">StudentSubmissionDB</text><rect fill="#F8F8F8" height="30.4883" style="stroke: #383838; stroke-width: 1.5;" width="111" x="1870.5" y="81.4883"/><text fill="#000000" font-family="Source Sans Pro Semibold" font-size="14" lengthAdjust="spacingAndGlyphs" textLength="97" x="1877.5" y="102.0234">SubmissionDB</text><rect fill="#F8F8F8" height="30.4883" style="stroke: #383838; stroke-width: 1.5;" width="113" x="1991.5" y="81.4883"/><text fill="#000000" font-family="Source Sans Pro Semibold" font-size="14" lengthAdjust="spacingAndGlyphs" textLength="99" x="1998.5" y="102.0234">AssessmentDB</text><rect fill="#FFFFFF" height="1858.209" style="stroke: #383838; stroke-width: 1.0;" width="10" x="264.5" y="143.9766"/><rect fill="#FFFFFF" height="295.1055" style="stroke: #383838; stroke-width: 1.0;" width="10" x="552.5" y="173.2871"/><rect fill="#FFFFFF" height="236.4844" style="stroke: #383838; stroke-width: 1.0;" width="10" x="552.5" y="522.0137"/><rect fill="#FFFFFF" height="192.8184" style="stroke: #383838; stroke-width: 1.0;" width="10" x="552.5" y="1733.4355"/><rect fill="#FFFFFF" height="29.3105" style="stroke: #383838; stroke-width: 1.0;" width="10" x="911.5" y="202.5977"/><rect fill="#FFFFFF" height="29.3105" style="stroke: #383838; stroke-width: 1.0;" width="10" x="911.5" y="285.5293"/><rect fill="#FFFFFF" height="29.3105" style="stroke: #383838; stroke-width: 1.0;" width="10" x="911.5" y="883.7402"/><rect fill="#FFFFFF" height="29.3105" style="stroke: #383838; stroke-width: 1.0;" width="10" x="911.5" y="966.6719"/><rect fill="#FFFFFF" height="29.3105" style="stroke: #383838; stroke-width: 1.0;" width="10" x="1047.5" y="344.1504"/><rect fill="#FFFFFF" height="29.3105" style="stroke: #383838; stroke-width: 1.0;" width="10" x="1181.5" y="402.7715"/><rect fill="#FFFFFF" height="29.3105" style="stroke: #383838; stroke-width: 1.0;" width="10" x="1181.5" y="551.3242"/><rect fill="#FFFFFF" height="29.3105" style="stroke: #383838; stroke-width: 1.0;" width="10" x="1181.5" y="634.2559"/><rect fill="#FFFFFF" height="29.3105" style="stroke: #383838; stroke-width: 1.0;" width="10" x="1288.5" y="692.877"/><rect fill="#FFFFFF" height="29.3105" style="stroke: #383838; stroke-width: 1.0;" width="10" x="1288.5" y="1845.6777"/><rect fill="#FFFFFF" height="379.7266" style="stroke: #383838; stroke-width: 1.0;" width="10" x="1418.5" y="812.1191"/><rect fill="#FFFFFF" height="306.1055" style="stroke: #383838; stroke-width: 1.0;" width="10" x="1423.5" y="849.4297"/><rect fill="#FFFFFF" height="458.6582" style="stroke: #383838; stroke-width: 1.0;" width="10" x="1418.5" y="1245.4668"/><rect fill="#FFFFFF" height="29.3105" style="stroke: #383838; stroke-width: 1.0;" width="10" x="1773.5" y="1025.293"/><rect fill="#FFFFFF" height="29.3105" style="stroke: #383838; stroke-width: 1.0;" width="10" x="1921" y="1083.9141"/><rect fill="#FFFFFF" height="29.3105" style="stroke: #383838; stroke-width: 1.0;" width="10" x="1921" y="1274.7773"/><rect fill="#FFFFFF" height="29.3105" style="stroke: #383838; stroke-width: 1.0;" width="10" x="1921" y="1416.3301"/><rect fill="#FFFFFF" height="29.3105" style="stroke: #383838; stroke-width: 1.0;" width="10" x="1921" y="1499.2617"/><rect fill="#FFFFFF" height="29.3105" style="stroke: #383838; stroke-width: 1.0;" width="10" x="1921" y="1762.7461"/><rect fill="#FFFFFF" height="29.3105" style="stroke: #383838; stroke-width: 1.0;" width="10" x="2043" y="1333.3984"/><rect fill="#FFFFFF" height="29.3105" style="stroke: #383838; stroke-width: 1.0;" width="10" x="2043" y="1557.8828"/><polygon fill="#383838" points="252.5,139.9766,262.5,143.9766,252.5,147.9766,256.5,143.9766" style="stroke: #383838; stroke-width: 1.0;"/><line style="stroke: #383838; stroke-width: 1.0;" x1="37.5" x2="258.5" y1="143.9766" y2="143.9766"/><text fill="#000000" font-family="Source Sans Pro Semibold" font-size="13" lengthAdjust="spacingAndGlyphs" textLength="208" x="44.5" y="139.5449">submit report generation request</text><polygon fill="#383838" points="540.5,169.2871,550.5,173.2871,540.5,177.2871,544.5,173.2871" style="stroke: #383838; stroke-width: 1.0;"/><line style="stroke: #383838; stroke-width: 1.0;" x1="274.5" x2="546.5" y1="173.2871" y2="173.2871"/><text fill="#000000" font-family="Source Sans Pro Semibold" font-size="13" lengthAdjust="spacingAndGlyphs" textLength="132" x="281.5" y="168.8555">getPersonalCourses()</text><polygon fill="#383838" points="899.5,198.5977,909.5,202.5977,899.5,206.5977,903.5,202.5977" style="stroke: #383838; stroke-width: 1.0;"/><line style="stroke: #383838; stroke-width: 1.0;" x1="562.5" x2="905.5" y1="202.5977" y2="202.5977"/><text fill="#000000" font-family="Source Sans Pro Semibold" font-size="13" lengthAdjust="spacingAndGlyphs" textLength="292" x="569.5" y="198.166">getNumCourseParticipations(senderStudentID)</text><polygon fill="#383838" points="573.5,227.9082,563.5,231.9082,573.5,235.9082,569.5,231.9082" style="stroke: #383838; stroke-width: 1.0;"/><line style="stroke: #383838; stroke-width: 1.0; stroke-dasharray: 2.0,2.0;" x1="567.5" x2="915.5" y1="231.9082" y2="231.9082"/><text fill="#000000" font-family="Source Sans Pro Semibold" font-size="13" lengthAdjust="spacingAndGlyphs" textLength="79" x="579.5" y="227.4766">numCourses</text><rect fill="none" height="193.1738" style="stroke: #000000; stroke-width: 2.0;" width="742" x="495" y="247.2188"/><polygon fill="#EEEEEE" points="495,247.2188,569,247.2188,569,254.2188,559,264.2188,495,264.2188,495,247.2188" style="stroke: #000000; stroke-width: 2.0;"/><text fill="#000000" font-family="Source Sans Pro Semibold" font-size="13" font-weight="bold" lengthAdjust="spacingAndGlyphs" textLength="29" x="510" y="260.7871">loop</text><text fill="#000000" font-family="Source Sans Pro Semibold" font-size="11" font-weight="bold" lengthAdjust="spacingAndGlyphs" textLength="141" x="584" y="259.8535">[number of own courses]</text><polygon fill="#383838" points="899.5,281.5293,909.5,285.5293,899.5,289.5293,903.5,285.5293" style="stroke: #383838; stroke-width: 1.0;"/><line style="stroke: #383838; stroke-width: 1.0;" x1="562.5" x2="905.5" y1="285.5293" y2="285.5293"/><text fill="#000000" font-family="Source Sans Pro Semibold" font-size="13" lengthAdjust="spacingAndGlyphs" textLength="330" x="569.5" y="281.0977">getCourseParticipationIDAt(senderStudentID, index);</text><polygon fill="#383838" points="573.5,310.8398,563.5,314.8398,573.5,318.8398,569.5,314.8398" style="stroke: #383838; stroke-width: 1.0;"/><line style="stroke: #383838; stroke-width: 1.0; stroke-dasharray: 2.0,2.0;" x1="567.5" x2="915.5" y1="314.8398" y2="314.8398"/><text fill="#000000" font-family="Source Sans Pro Semibold" font-size="13" lengthAdjust="spacingAndGlyphs" textLength="94" x="579.5" y="310.4082">participationID</text><polygon fill="#383838" points="1035.5,340.1504,1045.5,344.1504,1035.5,348.1504,1039.5,344.1504" style="stroke: #383838; stroke-width: 1.0;"/><line style="stroke: #383838; stroke-width: 1.0;" x1="562.5" x2="1041.5" y1="344.1504" y2="344.1504"/><text fill="#000000" font-family="Source Sans Pro Semibold" font-size="13" lengthAdjust="spacingAndGlyphs" textLength="245" x="569.5" y="339.7188">getCourseParticipation(participationID)</text><polygon fill="#383838" points="573.5,369.4609,563.5,373.4609,573.5,377.4609,569.5,373.4609" style="stroke: #383838; stroke-width: 1.0;"/><line style="stroke: #383838; stroke-width: 1.0; stroke-dasharray: 2.0,2.0;" x1="567.5" x2="1051.5" y1="373.4609" y2="373.4609"/><text fill="#000000" font-family="Source Sans Pro Semibold" font-size="13" lengthAdjust="spacingAndGlyphs" textLength="68" x="579.5" y="369.0293">...courseID</text><polygon fill="#383838" points="1169.5,398.7715,1179.5,402.7715,1169.5,406.7715,1173.5,402.7715" style="stroke: #383838; stroke-width: 1.0;"/><line style="stroke: #383838; stroke-width: 1.0;" x1="562.5" x2="1175.5" y1="402.7715" y2="402.7715"/><text fill="#000000" font-family="Source Sans Pro Semibold" font-size="13" lengthAdjust="spacingAndGlyphs" textLength="128" x="569.5" y="398.3398">getCourse(courseID)</text><polygon fill="#383838" points="573.5,428.082,563.5,432.082,573.5,436.082,569.5,432.082" style="stroke: #383838; stroke-width: 1.0;"/><line style="stroke: #383838; stroke-width: 1.0; stroke-dasharray: 2.0,2.0;" x1="567.5" x2="1185.5" y1="432.082" y2="432.082"/><text fill="#000000" font-family="Source Sans Pro Semibold" font-size="13" lengthAdjust="spacingAndGlyphs" textLength="42" x="579.5" y="427.6504">course</text><polygon fill="#383838" points="285.5,464.3926,275.5,468.3926,285.5,472.3926,281.5,468.3926" style="stroke: #383838; stroke-width: 1.0;"/><line style="stroke: #383838; stroke-width: 1.0; stroke-dasharray: 2.0,2.0;" x1="279.5" x2="556.5" y1="468.3926" y2="468.3926"/><text fill="#000000" font-family="Source Sans Pro Semibold" font-size="13" lengthAdjust="spacingAndGlyphs" textLength="49" x="291.5" y="463.9609">courses</text><rect fill="none" height="1510.4824" style="stroke: #000000; stroke-width: 2.0;" width="1936" x="218.5" y="483.7031"/><polygon fill="#EEEEEE" points="218.5,483.7031,292.5,483.7031,292.5,490.7031,282.5,500.7031,218.5,500.7031,218.5,483.7031" style="stroke: #000000; stroke-width: 2.0;"/><text fill="#000000" font-family="Source Sans Pro Semibold" font-size="13" font-weight="bold" lengthAdjust="spacingAndGlyphs" textLength="29" x="233.5" y="497.2715">loop</text><text fill="#000000" font-family="Source Sans Pro Semibold" font-size="11" font-weight="bold" lengthAdjust="spacingAndGlyphs" textLength="141" x="307.5" y="496.3379">[number of own courses]</text><polygon fill="#383838" points="540.5,518.0137,550.5,522.0137,540.5,526.0137,544.5,522.0137" style="stroke: #383838; stroke-width: 1.0;"/><line style="stroke: #383838; stroke-width: 1.0;" x1="274.5" x2="546.5" y1="522.0137" y2="522.0137"/><text fill="#000000" font-family="Source Sans Pro Semibold" font-size="13" lengthAdjust="spacingAndGlyphs" textLength="210" x="281.5" y="517.582">getCourseAssignments(courseID)</text><polygon fill="#383838" points="1169.5,547.3242,1179.5,551.3242,1169.5,555.3242,1173.5,551.3242" style="stroke: #383838; stroke-width: 1.0;"/><line style="stroke: #383838; stroke-width: 1.0;" x1="562.5" x2="1175.5" y1="551.3242" y2="551.3242"/><text fill="#000000" font-family="Source Sans Pro Semibold" font-size="13" lengthAdjust="spacingAndGlyphs" textLength="196" x="569.5" y="546.8926">getNumAssignments(courseID)</text><polygon fill="#383838" points="573.5,576.6348,563.5,580.6348,573.5,584.6348,569.5,580.6348" style="stroke: #383838; stroke-width: 1.0;"/><line style="stroke: #383838; stroke-width: 1.0; stroke-dasharray: 2.0,2.0;" x1="567.5" x2="1185.5" y1="580.6348" y2="580.6348"/><text fill="#000000" font-family="Source Sans Pro Semibold" font-size="13" lengthAdjust="spacingAndGlyphs" textLength="110" x="579.5" y="576.2031">numAssignments</text><rect fill="none" height="134.5527" style="stroke: #000000; stroke-width: 2.0;" width="865" x="495" y="595.9453"/><polygon fill="#EEEEEE" points="495,595.9453,569,595.9453,569,602.9453,559,612.9453,495,612.9453,495,595.9453" style="stroke: #000000; stroke-width: 2.0;"/><text fill="#000000" font-family="Source Sans Pro Semibold" font-size="13" font-weight="bold" lengthAdjust="spacingAndGlyphs" textLength="29" x="510" y="609.5137">loop</text><text fill="#000000" font-family="Source Sans Pro Semibold" font-size="11" font-weight="bold" lengthAdjust="spacingAndGlyphs" textLength="141" x="584" y="608.5801">[number of assignments]</text><polygon fill="#383838" points="1169.5,630.2559,1179.5,634.2559,1169.5,638.2559,1173.5,634.2559" style="stroke: #383838; stroke-width: 1.0;"/><line style="stroke: #383838; stroke-width: 1.0;" x1="562.5" x2="1175.5" y1="634.2559" y2="634.2559"/><text fill="#000000" font-family="Source Sans Pro Semibold" font-size="13" lengthAdjust="spacingAndGlyphs" textLength="234" x="569.5" y="629.8242">getAssignmentIDAt(courseID, index);</text><polygon fill="#383838" points="573.5,659.5664,563.5,663.5664,573.5,667.5664,569.5,663.5664" style="stroke: #383838; stroke-width: 1.0;"/><line style="stroke: #383838; stroke-width: 1.0; stroke-dasharray: 2.0,2.0;" x1="567.5" x2="1185.5" y1="663.5664" y2="663.5664"/><text fill="#000000" font-family="Source Sans Pro Semibold" font-size="13" lengthAdjust="spacingAndGlyphs" textLength="87" x="579.5" y="659.1348">assignmentID</text><polygon fill="#383838" points="1276.5,688.877,1286.5,692.877,1276.5,696.877,1280.5,692.877" style="stroke: #383838; stroke-width: 1.0;"/><line style="stroke: #383838; stroke-width: 1.0;" x1="562.5" x2="1282.5" y1="692.877" y2="692.877"/><text fill="#000000" font-family="Source Sans Pro Semibold" font-size="13" lengthAdjust="spacingAndGlyphs" textLength="190" x="569.5" y="688.4453">getAssignment(assignmentID)</text><polygon fill="#383838" points="573.5,718.1875,563.5,722.1875,573.5,726.1875,569.5,722.1875" style="stroke: #383838; stroke-width: 1.0;"/><line style="stroke: #383838; stroke-width: 1.0; stroke-dasharray: 2.0,2.0;" x1="567.5" x2="1292.5" y1="722.1875" y2="722.1875"/><text fill="#000000" font-family="Source Sans Pro Semibold" font-size="13" lengthAdjust="spacingAndGlyphs" textLength="73" x="579.5" y="717.7559">assignment</text><polygon fill="#383838" points="285.5,754.498,275.5,758.498,285.5,762.498,281.5,758.498" style="stroke: #383838; stroke-width: 1.0;"/><line style="stroke: #383838; stroke-width: 1.0; stroke-dasharray: 2.0,2.0;" x1="279.5" x2="556.5" y1="758.498" y2="758.498"/><text fill="#000000" font-family="Source Sans Pro Semibold" font-size="13" lengthAdjust="spacingAndGlyphs" textLength="80" x="291.5" y="754.0664">assignments</text><rect fill="none" height="1167.7559" style="stroke: #000000; stroke-width: 2.0;" width="1916" x="228.5" y="773.8086"/><polygon fill="#EEEEEE" points="228.5,773.8086,302.5,773.8086,302.5,780.8086,292.5,790.8086,228.5,790.8086,228.5,773.8086" style="stroke: #000000; stroke-width: 2.0;"/><text fill="#000000" font-family="Source Sans Pro Semibold" font-size="13" font-weight="bold" lengthAdjust="spacingAndGlyphs" textLength="29" x="243.5" y="787.377">loop</text><text fill="#000000" font-family="Source Sans Pro Semibold" font-size="11" font-weight="bold" lengthAdjust="spacingAndGlyphs" textLength="141" x="317.5" y="786.4434">[number of assignments]</text><polygon fill="#383838" points="1406.5,808.1191,1416.5,812.1191,1406.5,816.1191,1410.5,812.1191" style="stroke: #383838; stroke-width: 1.0;"/><line style="stroke: #383838; stroke-width: 1.0;" x1="274.5" x2="1412.5" y1="812.1191" y2="812.1191"/><text fill="#000000" font-family="Source Sans Pro Semibold" font-size="13" lengthAdjust="spacingAndGlyphs" textLength="284" x="281.5" y="807.6875">getAssignmentSubmissionIDs(assignmentID)</text><line style="stroke: #383838; stroke-width: 1.0;" x1="1428.5" x2="1475.5" y1="836.7402" y2="836.7402"/><line style="stroke: #383838; stroke-width: 1.0;" x1="1475.5" x2="1475.5" y1="836.7402" y2="849.7402"/><line style="stroke: #383838; stroke-width: 1.0;" x1="1434.5" x2="1475.5" y1="849.7402" y2="849.7402"/><polygon fill="#383838" points="1444.5,845.7402,1434.5,849.7402,1444.5,853.7402,1440.5,849.7402" style="stroke: #383838; stroke-width: 1.0;"/><text fill="#000000" font-family="Source Sans Pro Semibold" font-size="13" lengthAdjust="spacingAndGlyphs" textLength="331" x="1440.5" y="831.998">getSubmissionIDs(referenceType = 0, assignmentID)</text><polygon fill="#383838" points="932.5,879.7402,922.5,883.7402,932.5,887.7402,928.5,883.7402" style="stroke: #383838; stroke-width: 1.0;"/><line style="stroke: #383838; stroke-width: 1.0;" x1="926.5" x2="1422.5" y1="883.7402" y2="883.7402"/><text fill="#000000" font-family="Source Sans Pro Semibold" font-size="13" lengthAdjust="spacingAndGlyphs" textLength="290" x="938.5" y="879.3086">getNumStudentSubmissions(senderStudentID)</text><polygon fill="#383838" points="1411.5,909.0508,1421.5,913.0508,1411.5,917.0508,1415.5,913.0508" style="stroke: #383838; stroke-width: 1.0;"/><line style="stroke: #383838; stroke-width: 1.0; stroke-dasharray: 2.0,2.0;" x1="916.5" x2="1417.5" y1="913.0508" y2="913.0508"/><text fill="#000000" font-family="Source Sans Pro Semibold" font-size="13" lengthAdjust="spacingAndGlyphs" textLength="108" x="923.5" y="908.6191">numSubmissions</text><rect fill="none" height="193.1738" style="stroke: #000000; stroke-width: 2.0;" width="1127.5" x="864" y="928.3613"/><polygon fill="#EEEEEE" points="864,928.3613,938,928.3613,938,935.3613,928,945.3613,864,945.3613,864,928.3613" style="stroke: #000000; stroke-width: 2.0;"/><text fill="#000000" font-family="Source Sans Pro Semibold" font-size="13" font-weight="bold" lengthAdjust="spacingAndGlyphs" textLength="29" x="879" y="941.9297">loop</text><text fill="#000000" font-family="Source Sans Pro Semibold" font-size="11" font-weight="bold" lengthAdjust="spacingAndGlyphs" textLength="142" x="953" y="940.9961">[number of submissions]</text><polygon fill="#383838" points="932.5,962.6719,922.5,966.6719,932.5,970.6719,928.5,966.6719" style="stroke: #383838; stroke-width: 1.0;"/><line style="stroke: #383838; stroke-width: 1.0;" x1="926.5" x2="1422.5" y1="966.6719" y2="966.6719"/><text fill="#000000" font-family="Source Sans Pro Semibold" font-size="13" lengthAdjust="spacingAndGlyphs" textLength="324" x="938.5" y="962.2402">getStudentSubmissionIDAt(senderStudentID, index)</text><polygon fill="#383838" points="1411.5,991.9824,1421.5,995.9824,1411.5,999.9824,1415.5,995.9824" style="stroke: #383838; stroke-width: 1.0;"/><line style="stroke: #383838; stroke-width: 1.0; stroke-dasharray: 2.0,2.0;" x1="916.5" x2="1417.5" y1="995.9824" y2="995.9824"/><text fill="#000000" font-family="Source Sans Pro Semibold" font-size="13" lengthAdjust="spacingAndGlyphs" textLength="135" x="923.5" y="991.5508">studentsubmissionID</text><polygon fill="#383838" points="1761.5,1021.293,1771.5,1025.293,1761.5,1029.293,1765.5,1025.293" style="stroke: #383838; stroke-width: 1.0;"/><line style="stroke: #383838; stroke-width: 1.0;" x1="1433.5" x2="1767.5" y1="1025.293" y2="1025.293"/><text fill="#000000" font-family="Source Sans Pro Semibold" font-size="13" lengthAdjust="spacingAndGlyphs" textLength="284" x="1440.5" y="1020.8613">getStudentSubmission(studentsubmissionID)</text><polygon fill="#383838" points="1444.5,1050.6035,1434.5,1054.6035,1444.5,1058.6035,1440.5,1054.6035" style="stroke: #383838; stroke-width: 1.0;"/><line style="stroke: #383838; stroke-width: 1.0; stroke-dasharray: 2.0,2.0;" x1="1438.5" x2="1777.5" y1="1054.6035" y2="1054.6035"/><text fill="#000000" font-family="Source Sans Pro Semibold" font-size="13" lengthAdjust="spacingAndGlyphs" textLength="99" x="1450.5" y="1050.1719">...submissionID</text><polygon fill="#383838" points="1909,1079.9141,1919,1083.9141,1909,1087.9141,1913,1083.9141" style="stroke: #383838; stroke-width: 1.0;"/><line style="stroke: #383838; stroke-width: 1.0;" x1="1433.5" x2="1915" y1="1083.9141" y2="1083.9141"/><text fill="#000000" font-family="Source Sans Pro Semibold" font-size="13" lengthAdjust="spacingAndGlyphs" textLength="188" x="1440.5" y="1079.4824">getSubmission(submissionID)</text><polygon fill="#383838" points="1444.5,1109.2246,1434.5,1113.2246,1444.5,1117.2246,1440.5,1113.2246" style="stroke: #383838; stroke-width: 1.0;"/><line style="stroke: #383838; stroke-width: 1.0; stroke-dasharray: 2.0,2.0;" x1="1438.5" x2="1925" y1="1113.2246" y2="1113.2246"/><text fill="#000000" font-family="Source Sans Pro Semibold" font-size="13" lengthAdjust="spacingAndGlyphs" textLength="73" x="1450.5" y="1108.793">submission</text><line style="stroke: #383838; stroke-width: 1.0; stroke-dasharray: 2.0,2.0;" x1="1433.5" x2="1475.5" y1="1154.8457" y2="1154.8457"/><line style="stroke: #383838; stroke-width: 1.0; stroke-dasharray: 2.0,2.0;" x1="1475.5" x2="1475.5" y1="1154.8457" y2="1167.8457"/><line style="stroke: #383838; stroke-width: 1.0; stroke-dasharray: 2.0,2.0;" x1="1428.5" x2="1475.5" y1="1167.8457" y2="1167.8457"/><polygon fill="#383838" points="1438.5,1163.8457,1428.5,1167.8457,1438.5,1171.8457,1434.5,1167.8457" style="stroke: #383838; stroke-width: 1.0;"/><text fill="#000000" font-family="Source Sans Pro Semibold" font-size="13" lengthAdjust="spacingAndGlyphs" textLength="204" x="1440.5" y="1150.1035">numReferencedSubmissions, ids</text><polygon fill="#383838" points="285.5,1187.8457,275.5,1191.8457,285.5,1195.8457,281.5,1191.8457" style="stroke: #383838; stroke-width: 1.0;"/><line style="stroke: #383838; stroke-width: 1.0; stroke-dasharray: 2.0,2.0;" x1="279.5" x2="1422.5" y1="1191.8457" y2="1191.8457"/><text fill="#000000" font-family="Source Sans Pro Semibold" font-size="13" lengthAdjust="spacingAndGlyphs" textLength="80" x="291.5" y="1187.4141">submissions</text><rect fill="none" height="727.4082" style="stroke: #000000; stroke-width: 2.0;" width="1896" x="238.5" y="1207.1563"/><polygon fill="#EEEEEE" points="238.5,1207.1563,312.5,1207.1563,312.5,1214.1563,302.5,1224.1563,238.5,1224.1563,238.5,1207.1563" style="stroke: #000000; stroke-width: 2.0;"/><text fill="#000000" font-family="Source Sans Pro Semibold" font-size="13" font-weight="bold" lengthAdjust="spacingAndGlyphs" textLength="29" x="253.5" y="1220.7246">loop</text><text fill="#000000" font-family="Source Sans Pro Semibold" font-size="11" font-weight="bold" lengthAdjust="spacingAndGlyphs" textLength="142" x="327.5" y="1219.791">[number of submissions]</text><polygon fill="#383838" points="1406.5,1241.4668,1416.5,1245.4668,1406.5,1249.4668,1410.5,1245.4668" style="stroke: #383838; stroke-width: 1.0;"/><line style="stroke: #383838; stroke-width: 1.0;" x1="274.5" x2="1412.5" y1="1245.4668" y2="1245.4668"/><text fill="#000000" font-family="Source Sans Pro Semibold" font-size="13" lengthAdjust="spacingAndGlyphs" textLength="191" x="281.5" y="1241.0352">getAssessment(submissionID)</text><polygon fill="#383838" points="1909,1270.7773,1919,1274.7773,1909,1278.7773,1913,1274.7773" style="stroke: #383838; stroke-width: 1.0;"/><line style="stroke: #383838; stroke-width: 1.0;" x1="1428.5" x2="1915" y1="1274.7773" y2="1274.7773"/><text fill="#000000" font-family="Source Sans Pro Semibold" font-size="13" lengthAdjust="spacingAndGlyphs" textLength="235" x="1435.5" y="1270.3457">getAssessmentIDAt(submissionID, 0)</text><polygon fill="#383838" points="1439.5,1300.0879,1429.5,1304.0879,1439.5,1308.0879,1435.5,1304.0879" style="stroke: #383838; stroke-width: 1.0;"/><line style="stroke: #383838; stroke-width: 1.0; stroke-dasharray: 2.0,2.0;" x1="1433.5" x2="1925" y1="1304.0879" y2="1304.0879"/><text fill="#000000" font-family="Source Sans Pro Semibold" font-size="13" lengthAdjust="spacingAndGlyphs" textLength="116" x="1445.5" y="1299.6563">firstAssessmentID</text><polygon fill="#383838" points="2031,1329.3984,2041,1333.3984,2031,1337.3984,2035,1333.3984" style="stroke: #383838; stroke-width: 1.0;"/><line style="stroke: #383838; stroke-width: 1.0;" x1="1428.5" x2="2037" y1="1333.3984" y2="1333.3984"/><text fill="#000000" font-family="Source Sans Pro Semibold" font-size="13" lengthAdjust="spacingAndGlyphs" textLength="220" x="1435.5" y="1328.9668">getAssessment(firstAssessmentID)</text><polygon fill="#383838" points="1439.5,1358.709,1429.5,1362.709,1439.5,1366.709,1435.5,1362.709" style="stroke: #383838; stroke-width: 1.0;"/><line style="stroke: #383838; stroke-width: 1.0; stroke-dasharray: 2.0,2.0;" x1="1433.5" x2="2047" y1="1362.709" y2="1362.709"/><text fill="#000000" font-family="Source Sans Pro Semibold" font-size="13" lengthAdjust="spacingAndGlyphs" textLength="102" x="1445.5" y="1358.2773">firstAssessment</text><rect fill="none" height="298.1055" style="stroke: #000000; stroke-width: 2.0;" width="794.5" x="1330" y="1378.0195"/><polygon fill="#EEEEEE" points="1330,1378.0195,1530,1378.0195,1530,1385.0195,1520,1395.0195,1330,1395.0195,1330,1378.0195" style="stroke: #000000; stroke-width: 2.0;"/><text fill="#000000" font-family="Source Sans Pro Semibold" font-size="13" font-weight="bold" lengthAdjust="spacingAndGlyphs" textLength="155" x="1345" y="1391.5879">find better assessment</text><polygon fill="#383838" points="1909,1412.3301,1919,1416.3301,1909,1420.3301,1913,1416.3301" style="stroke: #383838; stroke-width: 1.0;"/><line style="stroke: #383838; stroke-width: 1.0;" x1="1428.5" x2="1915" y1="1416.3301" y2="1416.3301"/><text fill="#000000" font-family="Source Sans Pro Semibold" font-size="13" lengthAdjust="spacingAndGlyphs" textLength="228" x="1435.5" y="1411.8984">getNumAssessments(submissionID)</text><polygon fill="#383838" points="1439.5,1441.6406,1429.5,1445.6406,1439.5,1449.6406,1435.5,1445.6406" style="stroke: #383838; stroke-width: 1.0;"/><line style="stroke: #383838; stroke-width: 1.0; stroke-dasharray: 2.0,2.0;" x1="1433.5" x2="1925" y1="1445.6406" y2="1445.6406"/><text fill="#000000" font-family="Source Sans Pro Semibold" font-size="13" lengthAdjust="spacingAndGlyphs" textLength="111" x="1445.5" y="1441.209">numAssessments</text><rect fill="none" height="208.1738" style="stroke: #000000; stroke-width: 2.0;" width="774.5" x="1340" y="1460.9512"/><polygon fill="#EEEEEE" points="1340,1460.9512,1414,1460.9512,1414,1467.9512,1404,1477.9512,1340,1477.9512,1340,1460.9512" style="stroke: #000000; stroke-width: 2.0;"/><text fill="#000000" font-family="Source Sans Pro Semibold" font-size="13" font-weight="bold" lengthAdjust="spacingAndGlyphs" textLength="29" x="1355" y="1474.5195">loop</text><text fill="#000000" font-family="Source Sans Pro Semibold" font-size="11" font-weight="bold" lengthAdjust="spacingAndGlyphs" textLength="141" x="1429" y="1473.5859">[number of assessments]</text><polygon fill="#383838" points="1909,1495.2617,1919,1499.2617,1909,1503.2617,1913,1499.2617" style="stroke: #383838; stroke-width: 1.0;"/><line style="stroke: #383838; stroke-width: 1.0;" x1="1428.5" x2="1915" y1="1499.2617" y2="1499.2617"/><text fill="#000000" font-family="Source Sans Pro Semibold" font-size="13" lengthAdjust="spacingAndGlyphs" textLength="262" x="1435.5" y="1494.8301">getAssessmentIDAt(submissionID, index)</text><polygon fill="#383838" points="1439.5,1524.5723,1429.5,1528.5723,1439.5,1532.5723,1435.5,1528.5723" style="stroke: #383838; stroke-width: 1.0;"/><line style="stroke: #383838; stroke-width: 1.0; stroke-dasharray: 2.0,2.0;" x1="1433.5" x2="1925" y1="1528.5723" y2="1528.5723"/><text fill="#000000" font-family="Source Sans Pro Semibold" font-size="13" lengthAdjust="spacingAndGlyphs" textLength="88" x="1445.5" y="1524.1406">assessmentID</text><polygon fill="#383838" points="2031,1553.8828,2041,1557.8828,2031,1561.8828,2035,1557.8828" style="stroke: #383838; stroke-width: 1.0;"/><line style="stroke: #383838; stroke-width: 1.0;" x1="1428.5" x2="2037" y1="1557.8828" y2="1557.8828"/><text fill="#000000" font-family="Source Sans Pro Semibold" font-size="13" lengthAdjust="spacingAndGlyphs" textLength="192" x="1435.5" y="1553.4512">getAssessment(assessmentID)</text><polygon fill="#383838" points="1439.5,1583.1934,1429.5,1587.1934,1439.5,1591.1934,1435.5,1587.1934" style="stroke: #383838; stroke-width: 1.0;"/><line style="stroke: #383838; stroke-width: 1.0; stroke-dasharray: 2.0,2.0;" x1="1433.5" x2="2047" y1="1587.1934" y2="1587.1934"/><text fill="#000000" font-family="Source Sans Pro Semibold" font-size="13" lengthAdjust="spacingAndGlyphs" textLength="74" x="1445.5" y="1582.7617">assessment</text><rect fill="none" height="59.6211" style="stroke: #000000; stroke-width: 2.0;" width="438" x="1350" y="1602.5039"/><polygon fill="#EEEEEE" points="1350,1602.5039,1417,1602.5039,1417,1609.5039,1407,1619.5039,1350,1619.5039,1350,1602.5039" style="stroke: #000000; stroke-width: 2.0;"/><text fill="#000000" font-family="Source Sans Pro Semibold" font-size="13" font-weight="bold" lengthAdjust="spacingAndGlyphs" textLength="22" x="1365" y="1616.0723">opt</text><text fill="#000000" font-family="Source Sans Pro Semibold" font-size="11" font-weight="bold" lengthAdjust="spacingAndGlyphs" textLength="351" x="1432" y="1615.1387">[assessment.obtainedpoints &gt; firstAssessment.obtainedpoints]</text><line style="stroke: #383838; stroke-width: 1.0;" x1="1428.5" x2="1470.5" y1="1641.125" y2="1641.125"/><line style="stroke: #383838; stroke-width: 1.0;" x1="1470.5" x2="1470.5" y1="1641.125" y2="1654.125"/><line style="stroke: #383838; stroke-width: 1.0;" x1="1429.5" x2="1470.5" y1="1654.125" y2="1654.125"/><polygon fill="#383838" points="1439.5,1650.125,1429.5,1654.125,1439.5,1658.125,1435.5,1654.125" style="stroke: #383838; stroke-width: 1.0;"/><text fill="#000000" font-family="Source Sans Pro Semibold" font-size="13" lengthAdjust="spacingAndGlyphs" textLength="141" x="1435.5" y="1636.3828">remember assessment</text><polygon fill="#383838" points="285.5,1700.125,275.5,1704.125,285.5,1708.125,281.5,1704.125" style="stroke: #383838; stroke-width: 1.0;"/><line style="stroke: #383838; stroke-width: 1.0; stroke-dasharray: 2.0,2.0;" x1="279.5" x2="1422.5" y1="1704.125" y2="1704.125"/><text fill="#000000" font-family="Source Sans Pro Semibold" font-size="13" lengthAdjust="spacingAndGlyphs" textLength="103" x="291.5" y="1699.6934">bestAssessment</text><polygon fill="#383838" points="540.5,1729.4355,550.5,1733.4355,540.5,1737.4355,544.5,1733.4355" style="stroke: #383838; stroke-width: 1.0;"/><line style="stroke: #383838; stroke-width: 1.0;" x1="274.5" x2="546.5" y1="1733.4355" y2="1733.4355"/><text fill="#000000" font-family="Source Sans Pro Semibold" font-size="13" lengthAdjust="spacingAndGlyphs" textLength="259" x="281.5" y="1729.0039">getSubmissionRelatedInfo(submissionID)</text><polygon fill="#383838" points="1909,1758.7461,1919,1762.7461,1909,1766.7461,1913,1762.7461" style="stroke: #383838; stroke-width: 1.0;"/><line style="stroke: #383838; stroke-width: 1.0;" x1="562.5" x2="1915" y1="1762.7461" y2="1762.7461"/><text fill="#000000" font-family="Source Sans Pro Semibold" font-size="13" lengthAdjust="spacingAndGlyphs" textLength="188" x="569.5" y="1758.3145">getSubmission(submissionID)</text><polygon fill="#383838" points="573.5,1788.0566,563.5,1792.0566,573.5,1796.0566,569.5,1792.0566" style="stroke: #383838; stroke-width: 1.0;"/><line style="stroke: #383838; stroke-width: 1.0; stroke-dasharray: 2.0,2.0;" x1="567.5" x2="1925" y1="1792.0566" y2="1792.0566"/><text fill="#000000" font-family="Source Sans Pro Semibold" font-size="13" lengthAdjust="spacingAndGlyphs" textLength="281" x="579.5" y="1787.625">...submittedDate, referenceType, referenceID</text><rect fill="none" height="90.8867" style="stroke: #000000; stroke-width: 2.0;" width="865" x="495" y="1807.3672"/><polygon fill="#EEEEEE" points="495,1807.3672,557,1807.3672,557,1814.3672,547,1824.3672,495,1824.3672,495,1807.3672" style="stroke: #000000; stroke-width: 2.0;"/><text fill="#000000" font-family="Source Sans Pro Semibold" font-size="13" font-weight="bold" lengthAdjust="spacingAndGlyphs" textLength="17" x="510" y="1820.9355">alt</text><text fill="#000000" font-family="Source Sans Pro Semibold" font-size="11" font-weight="bold" lengthAdjust="spacingAndGlyphs" textLength="120" x="572" y="1820.002">[referenceType == 0]</text><polygon fill="#383838" points="1276.5,1841.6777,1286.5,1845.6777,1276.5,1849.6777,1280.5,1845.6777" style="stroke: #383838; stroke-width: 1.0;"/><line style="stroke: #383838; stroke-width: 1.0;" x1="562.5" x2="1282.5" y1="1845.6777" y2="1845.6777"/><text fill="#000000" font-family="Source Sans Pro Semibold" font-size="13" lengthAdjust="spacingAndGlyphs" textLength="175" x="569.5" y="1841.2461">getAssignment(referenceID)</text><polygon fill="#383838" points="573.5,1870.9883,563.5,1874.9883,573.5,1878.9883,569.5,1874.9883" style="stroke: #383838; stroke-width: 1.0;"/><line style="stroke: #383838; stroke-width: 1.0; stroke-dasharray: 2.0,2.0;" x1="567.5" x2="1292.5" y1="1874.9883" y2="1874.9883"/><text fill="#000000" font-family="Source Sans Pro Semibold" font-size="13" lengthAdjust="spacingAndGlyphs" textLength="150" x="579.5" y="1870.5566">...maxPoints, dueDate...</text><line style="stroke: #000000; stroke-width: 1.0; stroke-dasharray: 2.0,2.0;" x1="495" x2="1360" y1="1884.2988" y2="1884.2988"/><text fill="#000000" font-family="Source Sans Pro Semibold" font-size="11" font-weight="bold" lengthAdjust="spacingAndGlyphs" textLength="120" x="500" y="1894.9336">[referenceType == 1]</text><polygon fill="#383838" points="285.5,1922.2539,275.5,1926.2539,285.5,1930.2539,281.5,1926.2539" style="stroke: #383838; stroke-width: 1.0;"/><line style="stroke: #383838; stroke-width: 1.0; stroke-dasharray: 2.0,2.0;" x1="279.5" x2="556.5" y1="1926.2539" y2="1926.2539"/><text fill="#000000" font-family="Source Sans Pro Semibold" font-size="13" lengthAdjust="spacingAndGlyphs" textLength="236" x="291.5" y="1921.8223">maxPoints, submissionDate, dueDate</text><rect fill="#FFFFFF" height="40.6211" style="stroke: #000000; stroke-width: 2.0;" width="1244.5" x="245.5" y="1948.5645"/><polygon fill="#EEEEEE" points="245.5,1948.5645,309.5,1948.5645,309.5,1955.5645,299.5,1965.5645,245.5,1965.5645,245.5,1948.5645" style="stroke: #000000; stroke-width: 2.0;"/><text fill="#000000" font-family="Source Sans Pro Semibold" font-size="13" font-weight="bold" lengthAdjust="spacingAndGlyphs" textLength="19" x="258.5" y="1963.1328">ref</text><text fill="#000000" font-family="Source Sans Pro Semibold" font-size="13" lengthAdjust="spacingAndGlyphs" textLength="132" x="801.75" y="1982.1328">loop for tests as well</text><!--
@startuml


'skinparam handwritten true
skinparam monochrome true
skinparam shadowing false
skinparam classAttributeIconSize 0
skinparam defaultFontName "Source Sans Pro Semibold"
    

title U7 Generate Report

actor Student

Student -> App: submit report generation request
activate App

App -> DataManager: getPersonalCourses()
activate DataManager

DataManager -> StudentDB: getNumCourseParticipations(senderStudentID)
activate StudentDB

StudentDB - -> DataManager: numCourses
deactivate StudentDB

loop number of own courses
  DataManager -> StudentDB: getCourseParticipationIDAt(senderStudentID, index);
  activate StudentDB

  StudentDB - -> DataManager: participationID
  deactivate StudentDB

  DataManager -> CourseParticipationDB: getCourseParticipation(participationID)
  activate CourseParticipationDB

  CourseParticipationDB - -> DataManager: ...courseID
  deactivate CourseParticipationDB

  DataManager -> CourseDB: getCourse(courseID)
  activate CourseDB

  CourseDB - -> DataManager: course
  deactivate CourseDB

end

DataManager - -> App: courses
deactivate DataManager

loop number of own courses
  App -> DataManager: getCourseAssignments(courseID)
  activate DataManager

  DataManager -> CourseDB: getNumAssignments(courseID)
  activate CourseDB
  
  CourseDB - -> DataManager: numAssignments
  deactivate CourseDB

  loop number of assignments

    DataManager -> CourseDB: getAssignmentIDAt(courseID, index);
    activate CourseDB
    
    CourseDB - -> DataManager: assignmentID
    deactivate CourseDB

    DataManager -> AssignmentDB: getAssignment(assignmentID)
    activate AssignmentDB

    AssignmentDB - -> DataManager: assignment
    deactivate AssignmentDB
  
  end
  
  DataManager - -> App: assignments
  deactivate DataManager

  loop number of assignments
    
    App -> StudentManager: getAssignmentSubmissionIDs(assignmentID)
    activate StudentManager

    StudentManager -> StudentManager: getSubmissionIDs(referenceType = 0, assignmentID)
    activate StudentManager

    StudentManager -> StudentDB: getNumStudentSubmissions(senderStudentID)
    activate StudentDB
    
    StudentDB - -> StudentManager: numSubmissions
    deactivate StudentDB

    loop number of submissions
      
      StudentManager -> StudentDB: getStudentSubmissionIDAt(senderStudentID, index)
      activate StudentDB
      
      StudentDB - -> StudentManager: studentsubmissionID
      deactivate StudentDB

      StudentManager -> StudentSubmissionDB: getStudentSubmission(studentsubmissionID)
      activate StudentSubmissionDB

      StudentSubmissionDB - -> StudentManager: ...submissionID
      deactivate StudentSubmissionDB

      StudentManager -> SubmissionDB: getSubmission(submissionID)
      activate SubmissionDB

      SubmissionDB - -> StudentManager: submission
      deactivate SubmissionDB

    end

    StudentManager - -> StudentManager: numReferencedSubmissions, ids
    deactivate StudentManager

    StudentManager - -> App: submissions
    deactivate StudentManager

    loop number of submissions
      App -> StudentManager: getAssessment(submissionID)
      activate StudentManager

      StudentManager -> SubmissionDB: getAssessmentIDAt(submissionID, 0)
      activate SubmissionDB

      SubmissionDB - -> StudentManager: firstAssessmentID
      deactivate SubmissionDB

      StudentManager -> AssessmentDB: getAssessment(firstAssessmentID)
      activate AssessmentDB

      AssessmentDB - -> StudentManager: firstAssessment
      deactivate AssessmentDB

      group find better assessment

        StudentManager -> SubmissionDB: getNumAssessments(submissionID)
        activate SubmissionDB

        SubmissionDB - -> StudentManager: numAssessments
        deactivate SubmissionDB

        loop number of assessments

          StudentManager -> SubmissionDB: getAssessmentIDAt(submissionID, index)
          activate SubmissionDB

          SubmissionDB - -> StudentManager: assessmentID
          deactivate SubmissionDB

          StudentManager -> AssessmentDB: getAssessment(assessmentID)
          activate AssessmentDB

          AssessmentDB - -> StudentManager: assessment
          deactivate AssessmentDB

          opt assessment.obtainedpoints > firstAssessment.obtainedpoints
            StudentManager -> StudentManager: remember assessment
          end

        end

      end

      StudentManager - -> App: bestAssessment
      deactivate StudentManager

      App -> DataManager: getSubmissionRelatedInfo(submissionID)
      activate DataManager

      DataManager -> SubmissionDB: getSubmission(submissionID)
      activate SubmissionDB

      SubmissionDB - -> DataManager: ...submittedDate, referenceType, referenceID
      deactivate SubmissionDB

      alt referenceType == 0

        DataManager -> AssignmentDB: getAssignment(referenceID)
        activate AssignmentDB

        AssignmentDB - -> DataManager: ...maxPoints, dueDate...
        deactivate AssignmentDB

      else referenceType == 1
      end

      DataManager - -> App: maxPoints, submissionDate, dueDate
      deactivate DataManager
    end
  end

  ref over App, DataManager, StudentManager: loop for tests as well

end


deactivate StudentManager

hide footbox

@enduml

PlantUML version 1.2017.18(Fri Oct 06 18:56:32 CEST 2017)
(GPL source distribution)
Java Runtime: Java(TM) SE Runtime Environment
JVM: Java HotSpot(TM) 64-Bit Server VM
Java Version: 1.8.0_131-b11
Operating System: Mac OS X
OS Version: 10.12.6
Default Encoding: UTF-8
Language: de
Country: AT
--></g></svg>