<?xml version="1.0" encoding="UTF-8" standalone="no"?><svg xmlns="http://www.w3.org/2000/svg" xmlns:xlink="http://www.w3.org/1999/xlink" contentScriptType="application/ecmascript" contentStyleType="text/css" height="749px" preserveAspectRatio="none" style="width:1727px;height:749px;" version="1.1" viewBox="0 0 1727 749" width="1727px" zoomAndPan="magnify"><defs/><g><text fill="#000000" font-family="Source Sans Pro Semibold" font-size="14" font-weight="bold" lengthAdjust="spacingAndGlyphs" textLength="84" x="822" y="23.5352">U1 Register</text><rect fill="#FFFFFF" height="584.9688" style="stroke: #383838; stroke-width: 1.0;" width="10" x="295.5" y="143.9766"/><rect fill="#FFFFFF" height="555.6582" style="stroke: #383838; stroke-width: 1.0;" width="10" x="449.5" y="173.2871"/><rect fill="#FFFFFF" height="199.7305" style="stroke: #383838; stroke-width: 1.0;" width="10" x="758.5" y="256.2188"/><rect fill="#FFFFFF" height="30" style="stroke: #383838; stroke-width: 1.0;" width="10" x="1051.5" y="351.3281"/><rect fill="#FFFFFF" height="30" style="stroke: #383838; stroke-width: 1.0;" width="10" x="1144.5" y="410.6387"/><rect fill="#FFFFFF" height="30" style="stroke: #383838; stroke-width: 1.0;" width="10" x="1144.5" y="675.6348"/><rect fill="#FFFFFF" height="199.7305" style="stroke: #383838; stroke-width: 1.0;" width="10" x="1406.5" y="521.2148"/><rect fill="#FFFFFF" height="30" style="stroke: #383838; stroke-width: 1.0;" width="10" x="1659.5" y="616.3242"/><rect fill="#FFFFFF" height="532.3477" style="stroke: #000000; stroke-width: 2.0;" width="1445.5" x="269.5" y="188.5977"/><rect fill="#FFFFFF" height="177.4199" style="stroke: #000000; stroke-width: 2.0;" width="532" x="670" y="271.5293"/><rect fill="#F8F8F8" height="30.4883" style="stroke: #383838; stroke-width: 1.5;" width="149" x="857" y="288.8398"/><text fill="#000000" font-family="Source Sans Pro Semibold" font-size="14" lengthAdjust="spacingAndGlyphs" textLength="135" x="864" y="309.375">CourseParticipation</text><rect fill="#FFFFFF" height="264.9961" style="stroke: none; stroke-width: 1.0;" width="1445.5" x="269.5" y="455.9492"/><rect fill="#FFFFFF" height="177.4199" style="stroke: #000000; stroke-width: 2.0;" width="608" x="1097" y="536.5254"/><rect fill="#F8F8F8" height="30.4883" style="stroke: #383838; stroke-width: 1.5;" width="129" x="1495" y="553.8359"/><text fill="#000000" font-family="Source Sans Pro Semibold" font-size="14" lengthAdjust="spacingAndGlyphs" textLength="115" x="1502" y="574.3711">TestParticipation</text><line style="stroke: #383838; stroke-width: 1.0; stroke-dasharray: 5.0,5.0;" x1="37" x2="37" y1="112.9766" y2="737.9453"/><line style="stroke: #383838; stroke-width: 1.0; stroke-dasharray: 5.0,5.0;" x1="300.5" x2="300.5" y1="112.9766" y2="737.9453"/><line style="stroke: #383838; stroke-width: 1.0; stroke-dasharray: 5.0,5.0;" x1="454" x2="454" y1="112.9766" y2="737.9453"/><line style="stroke: #383838; stroke-width: 1.0; stroke-dasharray: 5.0,5.0;" x1="763" x2="763" y1="112.9766" y2="737.9453"/><line style="stroke: #383838; stroke-width: 1.0; stroke-dasharray: 5.0,5.0;" x1="931" x2="931" y1="319.584" y2="737.9453"/><line style="stroke: #383838; stroke-width: 1.0; stroke-dasharray: 5.0,5.0;" x1="1056" x2="1056" y1="112.9766" y2="737.9453"/><line style="stroke: #383838; stroke-width: 1.0; stroke-dasharray: 5.0,5.0;" x1="1149" x2="1149" y1="112.9766" y2="737.9453"/><line style="stroke: #383838; stroke-width: 1.0; stroke-dasharray: 5.0,5.0;" x1="1411" x2="1411" y1="112.9766" y2="737.9453"/><line style="stroke: #383838; stroke-width: 1.0; stroke-dasharray: 5.0,5.0;" x1="1559" x2="1559" y1="584.5801" y2="737.9453"/><line style="stroke: #383838; stroke-width: 1.0; stroke-dasharray: 5.0,5.0;" x1="1664" x2="1664" y1="112.9766" y2="737.9453"/><text fill="#000000" font-family="Source Sans Pro Semibold" font-size="14" lengthAdjust="spacingAndGlyphs" textLength="53" x="8" y="110.0234">Student</text><ellipse cx="37.5" cy="43.4883" fill="#F8F8F8" rx="8" ry="8" style="stroke: #383838; stroke-width: 2.0;"/><path d="M37.5,51.4883 L37.5,78.4883 M24.5,59.4883 L50.5,59.4883 M37.5,78.4883 L24.5,93.4883 M37.5,78.4883 L50.5,93.4883 " fill="#F8F8F8" style="stroke: #383838; stroke-width: 2.0;"/><rect fill="#F8F8F8" height="30.4883" style="stroke: #383838; stroke-width: 1.5;" width="42" x="279.5" y="81.4883"/><text fill="#000000" font-family="Source Sans Pro Semibold" font-size="14" lengthAdjust="spacingAndGlyphs" textLength="28" x="286.5" y="102.0234">App</text><rect fill="#F8F8F8" height="30.4883" style="stroke: #383838; stroke-width: 1.5;" width="127" x="391" y="81.4883"/><text fill="#000000" font-family="Source Sans Pro Semibold" font-size="14" lengthAdjust="spacingAndGlyphs" textLength="113" x="398" y="102.0234">StudentManager</text><rect fill="#F8F8F8" height="30.4883" style="stroke: #383838; stroke-width: 1.5;" width="167" x="680" y="81.4883"/><text fill="#000000" font-family="Source Sans Pro Semibold" font-size="14" lengthAdjust="spacingAndGlyphs" textLength="153" x="687" y="102.0234">CourseParticipationDB</text><rect fill="#F8F8F8" height="30.4883" style="stroke: #383838; stroke-width: 1.5;" width="81" x="1016" y="81.4883"/><text fill="#000000" font-family="Source Sans Pro Semibold" font-size="14" lengthAdjust="spacingAndGlyphs" textLength="67" x="1023" y="102.0234">CourseDB</text><rect fill="#F8F8F8" height="30.4883" style="stroke: #383838; stroke-width: 1.5;" width="85" x="1107" y="81.4883"/><text fill="#000000" font-family="Source Sans Pro Semibold" font-size="14" lengthAdjust="spacingAndGlyphs" textLength="71" x="1114" y="102.0234">StudentDB</text><rect fill="#F8F8F8" height="30.4883" style="stroke: #383838; stroke-width: 1.5;" width="147" x="1338" y="81.4883"/><text fill="#000000" font-family="Source Sans Pro Semibold" font-size="14" lengthAdjust="spacingAndGlyphs" textLength="133" x="1345" y="102.0234">TestParticipationDB</text><rect fill="#F8F8F8" height="30.4883" style="stroke: #383838; stroke-width: 1.5;" width="61" x="1634" y="81.4883"/><text fill="#000000" font-family="Source Sans Pro Semibold" font-size="14" lengthAdjust="spacingAndGlyphs" textLength="47" x="1641" y="102.0234">TestDB</text><rect fill="#FFFFFF" height="584.9688" style="stroke: #383838; stroke-width: 1.0;" width="10" x="295.5" y="143.9766"/><rect fill="#FFFFFF" height="555.6582" style="stroke: #383838; stroke-width: 1.0;" width="10" x="449.5" y="173.2871"/><rect fill="#FFFFFF" height="199.7305" style="stroke: #383838; stroke-width: 1.0;" width="10" x="758.5" y="256.2188"/><rect fill="#FFFFFF" height="30" style="stroke: #383838; stroke-width: 1.0;" width="10" x="1051.5" y="351.3281"/><rect fill="#FFFFFF" height="30" style="stroke: #383838; stroke-width: 1.0;" width="10" x="1144.5" y="410.6387"/><rect fill="#FFFFFF" height="30" style="stroke: #383838; stroke-width: 1.0;" width="10" x="1144.5" y="675.6348"/><rect fill="#FFFFFF" height="199.7305" style="stroke: #383838; stroke-width: 1.0;" width="10" x="1406.5" y="521.2148"/><rect fill="#FFFFFF" height="30" style="stroke: #383838; stroke-width: 1.0;" width="10" x="1659.5" y="616.3242"/><polygon fill="#383838" points="283.5,139.9766,293.5,143.9766,283.5,147.9766,287.5,143.9766" style="stroke: #383838; stroke-width: 1.0;"/><line style="stroke: #383838; stroke-width: 1.0;" x1="37.5" x2="289.5" y1="143.9766" y2="143.9766"/><text fill="#000000" font-family="Source Sans Pro Semibold" font-size="13" lengthAdjust="spacingAndGlyphs" textLength="239" x="44.5" y="139.5449">submit registration request for choice</text><polygon fill="#383838" points="283.5,169.2871,293.5,173.2871,283.5,177.2871,287.5,173.2871" style="stroke: #383838; stroke-width: 1.0;"/><line style="stroke: #383838; stroke-width: 1.0;" x1="37.5" x2="289.5" y1="173.2871" y2="173.2871"/><text fill="#000000" font-family="Source Sans Pro Semibold" font-size="13" lengthAdjust="spacingAndGlyphs" textLength="81" x="44.5" y="168.8555">confirmation</text><rect fill="none" height="532.3477" style="stroke: #000000; stroke-width: 2.0;" width="1445.5" x="269.5" y="188.5977"/><polygon fill="#EEEEEE" points="269.5,188.5977,331.5,188.5977,331.5,195.5977,321.5,205.5977,269.5,205.5977,269.5,188.5977" style="stroke: #000000; stroke-width: 2.0;"/><text fill="#000000" font-family="Source Sans Pro Semibold" font-size="13" font-weight="bold" lengthAdjust="spacingAndGlyphs" textLength="17" x="284.5" y="202.166">alt</text><text fill="#000000" font-family="Source Sans Pro Semibold" font-size="11" font-weight="bold" lengthAdjust="spacingAndGlyphs" textLength="114" x="346.5" y="201.2324">[course registration]</text><polygon fill="#383838" points="437.5,222.9082,447.5,226.9082,437.5,230.9082,441.5,226.9082" style="stroke: #383838; stroke-width: 1.0;"/><line style="stroke: #383838; stroke-width: 1.0;" x1="305.5" x2="443.5" y1="226.9082" y2="226.9082"/><text fill="#000000" font-family="Source Sans Pro Semibold" font-size="13" lengthAdjust="spacingAndGlyphs" textLength="120" x="312.5" y="222.4766">registerForCourse()</text><polygon fill="#383838" points="746.5,252.2188,756.5,256.2188,746.5,260.2188,750.5,256.2188" style="stroke: #383838; stroke-width: 1.0;"/><line style="stroke: #383838; stroke-width: 1.0;" x1="459.5" x2="752.5" y1="256.2188" y2="256.2188"/><text fill="#000000" font-family="Source Sans Pro Semibold" font-size="13" lengthAdjust="spacingAndGlyphs" textLength="280" x="466.5" y="251.7871">addCourseParticipation(studentID, courseID)</text><rect fill="none" height="177.4199" style="stroke: #000000; stroke-width: 2.0;" width="532" x="670" y="271.5293"/><polygon fill="#EEEEEE" points="670,271.5293,875,271.5293,875,278.5293,865,288.5293,670,288.5293,670,271.5293" style="stroke: #000000; stroke-width: 2.0;"/><text fill="#000000" font-family="Source Sans Pro Semibold" font-size="13" font-weight="bold" lengthAdjust="spacingAndGlyphs" textLength="160" x="685" y="285.0977">AddCourseParticipation</text><polygon fill="#383838" points="845,290.8398,855,294.8398,845,298.8398,849,294.8398" style="stroke: #383838; stroke-width: 1.0;"/><line style="stroke: #383838; stroke-width: 1.0;" x1="768.5" x2="851" y1="294.8398" y2="294.8398"/><rect fill="#F8F8F8" height="30.4883" style="stroke: #383838; stroke-width: 1.5;" width="149" x="857" y="288.8398"/><text fill="#000000" font-family="Source Sans Pro Semibold" font-size="14" lengthAdjust="spacingAndGlyphs" textLength="135" x="864" y="309.375">CourseParticipation</text><polygon fill="#383838" points="1039.5,347.3281,1049.5,351.3281,1039.5,355.3281,1043.5,351.3281" style="stroke: #383838; stroke-width: 1.0;"/><line style="stroke: #383838; stroke-width: 1.0;" x1="768.5" x2="1045.5" y1="351.3281" y2="351.3281"/><text fill="#000000" font-family="Source Sans Pro Semibold" font-size="13" lengthAdjust="spacingAndGlyphs" textLength="244" x="775.5" y="346.8965">addCourseParticipationID(courseID, id)</text><polygon fill="#383838" points="1132.5,406.6387,1142.5,410.6387,1132.5,414.6387,1136.5,410.6387" style="stroke: #383838; stroke-width: 1.0;"/><line style="stroke: #383838; stroke-width: 1.0;" x1="768.5" x2="1138.5" y1="410.6387" y2="410.6387"/><text fill="#000000" font-family="Source Sans Pro Semibold" font-size="13" lengthAdjust="spacingAndGlyphs" textLength="250" x="775.5" y="406.207">addCourseParticipationID(studentID, id)</text><line style="stroke: #000000; stroke-width: 1.0; stroke-dasharray: 2.0,2.0;" x1="269.5" x2="1715" y1="456.9492" y2="456.9492"/><text fill="#000000" font-family="Source Sans Pro Semibold" font-size="11" font-weight="bold" lengthAdjust="spacingAndGlyphs" textLength="97" x="274.5" y="467.584">[test registration]</text><polygon fill="#383838" points="437.5,487.9043,447.5,491.9043,437.5,495.9043,441.5,491.9043" style="stroke: #383838; stroke-width: 1.0;"/><line style="stroke: #383838; stroke-width: 1.0;" x1="305.5" x2="443.5" y1="491.9043" y2="491.9043"/><text fill="#000000" font-family="Source Sans Pro Semibold" font-size="13" lengthAdjust="spacingAndGlyphs" textLength="103" x="312.5" y="487.4727">registerForTest()</text><polygon fill="#383838" points="1394.5,517.2148,1404.5,521.2148,1394.5,525.2148,1398.5,521.2148" style="stroke: #383838; stroke-width: 1.0;"/><line style="stroke: #383838; stroke-width: 1.0;" x1="459.5" x2="1400.5" y1="521.2148" y2="521.2148"/><text fill="#000000" font-family="Source Sans Pro Semibold" font-size="13" lengthAdjust="spacingAndGlyphs" textLength="245" x="466.5" y="516.7832">addTestParticipation(studentID, testID)</text><rect fill="none" height="177.4199" style="stroke: #000000; stroke-width: 2.0;" width="608" x="1097" y="536.5254"/><polygon fill="#EEEEEE" points="1097,536.5254,1284,536.5254,1284,543.5254,1274,553.5254,1097,553.5254,1097,536.5254" style="stroke: #000000; stroke-width: 2.0;"/><text fill="#000000" font-family="Source Sans Pro Semibold" font-size="13" font-weight="bold" lengthAdjust="spacingAndGlyphs" textLength="142" x="1112" y="550.0938">AddTestParticipation</text><polygon fill="#383838" points="1483,555.8359,1493,559.8359,1483,563.8359,1487,559.8359" style="stroke: #383838; stroke-width: 1.0;"/><line style="stroke: #383838; stroke-width: 1.0;" x1="1416.5" x2="1489" y1="559.8359" y2="559.8359"/><rect fill="#F8F8F8" height="30.4883" style="stroke: #383838; stroke-width: 1.5;" width="129" x="1495" y="553.8359"/><text fill="#000000" font-family="Source Sans Pro Semibold" font-size="14" lengthAdjust="spacingAndGlyphs" textLength="115" x="1502" y="574.3711">TestParticipation</text><polygon fill="#383838" points="1647.5,612.3242,1657.5,616.3242,1647.5,620.3242,1651.5,616.3242" style="stroke: #383838; stroke-width: 1.0;"/><line style="stroke: #383838; stroke-width: 1.0;" x1="1416.5" x2="1653.5" y1="616.3242" y2="616.3242"/><text fill="#000000" font-family="Source Sans Pro Semibold" font-size="13" lengthAdjust="spacingAndGlyphs" textLength="209" x="1423.5" y="611.8926">addTestParticipationID(testID, id)</text><polygon fill="#383838" points="1165.5,671.6348,1155.5,675.6348,1165.5,679.6348,1161.5,675.6348" style="stroke: #383838; stroke-width: 1.0;"/><line style="stroke: #383838; stroke-width: 1.0;" x1="1159.5" x2="1405.5" y1="675.6348" y2="675.6348"/><text fill="#000000" font-family="Source Sans Pro Semibold" font-size="13" lengthAdjust="spacingAndGlyphs" textLength="233" x="1171.5" y="671.2031">addTestParticipationID(studentID, id)</text><!--
@startuml


'skinparam handwritten true
skinparam monochrome true
skinparam shadowing false
skinparam classAttributeIconSize 0
skinparam defaultFontName "Source Sans Pro Semibold"
    

title U1 Register

actor Student

Student -> App: submit registration request for choice
activate App

Student -> App: confirmation

activate StudentManager
alt course registration
  App -> StudentManager: registerForCourse()

  StudentManager -> CourseParticipationDB: addCourseParticipation(studentID, courseID)
  activate CourseParticipationDB

  group AddCourseParticipation

    create CourseParticipation
    CourseParticipationDB -> CourseParticipation

    CourseParticipationDB -> CourseDB: addCourseParticipationID(courseID, id)
    activate CourseDB
    deactivate CourseDB

    CourseParticipationDB -> StudentDB: addCourseParticipationID(studentID, id)
    activate StudentDB
    deactivate StudentDB

  end
  
  deactivate CourseParticipationDB
else test registration
  App -> StudentManager: registerForTest()

  StudentManager -> TestParticipationDB: addTestParticipation(studentID, testID)
  activate TestParticipationDB

  group AddTestParticipation

    create TestParticipation
    TestParticipationDB -> TestParticipation

    TestParticipationDB -> TestDB: addTestParticipationID(testID, id)
    activate TestDB
    deactivate TestDB

    TestParticipationDB -> StudentDB: addTestParticipationID(studentID, id)
    activate StudentDB
    deactivate StudentDB

  end
  
  deactivate TestParticipationDB
end



hide footbox

@enduml

PlantUML version 1.2017.18(Fri Oct 06 18:56:32 CEST 2017)
(GPL source distribution)
Java Runtime: Java(TM) SE Runtime Environment
JVM: Java HotSpot(TM) 64-Bit Server VM
Java Version: 1.8.0_131-b11
Operating System: Mac OS X
OS Version: 10.12.6
Default Encoding: UTF-8
Language: de
Country: AT
--></g></svg>