<?xml version="1.0" encoding="UTF-8" standalone="yes"?><svg xmlns="http://www.w3.org/2000/svg" xmlns:xlink="http://www.w3.org/1999/xlink" height="167px" style="width:780px;height:167px;" version="1.1" viewBox="0 0 780 167" width="780px"><defs/><g><text fill="#000000" font-family="Source Sans Pro Semibold" font-size="18" lengthAdjust="spacingAndGlyphs" textLength="86" x="356" y="17.4023">Controller</text><rect fill="#F8F8F8" height="38.2656" style="stroke: #383838; stroke-width: 1.5;" width="128" x="609.5" y="128.1992"/><ellipse cx="624.5" cy="147.332" fill="#B1B1B1" rx="11" ry="11" style="stroke: #383838; stroke-width: 1.0;"/><path d="M620.4277,143.0972 L620.4277,140.939 L627.8071,140.939 L627.8071,143.0972 L625.3418,143.0972 L625.3418,151.1738 L627.8071,151.1738 L627.8071,153.332 L620.4277,153.332 L620.4277,151.1738 L622.8931,151.1738 L622.8931,143.0972 Z "/><text fill="#000000" font-family="Source Sans Pro Semibold" font-size="12" font-style="italic" lengthAdjust="spacingAndGlyphs" textLength="62" x="655.5" y="144.8008">«Interface»</text><text fill="#000000" font-family="Source Sans Pro Semibold" font-size="12" font-style="italic" lengthAdjust="spacingAndGlyphs" textLength="96" x="638.5" y="158.9336">ContractProvider</text><rect fill="#F8F8F8" height="38.2656" style="stroke: #383838; stroke-width: 1.5;" width="130" x="649.5" y="29.1992"/><ellipse cx="664.5" cy="48.332" fill="#C2C2C2" rx="11" ry="11" style="stroke: #383838; stroke-width: 1.0;"/><path d="M667.4731,53.9751 Q666.8921,54.2739 666.2529,54.4233 Q665.6138,54.5728 664.9082,54.5728 Q662.4014,54.5728 661.0815,52.9209 Q659.7617,51.269 659.7617,48.1479 Q659.7617,45.0186 661.0815,43.3667 Q662.4014,41.7148 664.9082,41.7148 Q665.6138,41.7148 666.2612,41.8643 Q666.9087,42.0137 667.4731,42.3125 L667.4731,45.0352 Q666.8423,44.4541 666.2488,44.1843 Q665.6553,43.9146 665.0244,43.9146 Q663.6797,43.9146 662.9949,44.9812 Q662.3101,46.0479 662.3101,48.1479 Q662.3101,50.2397 662.9949,51.3064 Q663.6797,52.373 665.0244,52.373 Q665.6553,52.373 666.2488,52.1033 Q666.8423,51.8335 667.4731,51.2524 Z "/><text fill="#000000" font-family="Source Sans Pro Semibold" font-size="12" font-style="italic" lengthAdjust="spacingAndGlyphs" textLength="60" x="697.5" y="45.8008">«Contract»</text><text fill="#000000" font-family="Source Sans Pro Semibold" font-size="12" lengthAdjust="spacingAndGlyphs" textLength="98" x="678.5" y="59.9336">ContractManager</text><rect fill="#F8F8F8" height="38.2656" style="stroke: #383838; stroke-width: 1.5;" width="133" x="327" y="128.1992"/><ellipse cx="342" cy="147.332" fill="#C2C2C2" rx="11" ry="11" style="stroke: #383838; stroke-width: 1.0;"/><path d="M344.9731,152.9751 Q344.3921,153.2739 343.7529,153.4233 Q343.1138,153.5728 342.4082,153.5728 Q339.9014,153.5728 338.5815,151.9209 Q337.2617,150.269 337.2617,147.1479 Q337.2617,144.0186 338.5815,142.3667 Q339.9014,140.7148 342.4082,140.7148 Q343.1138,140.7148 343.7612,140.8643 Q344.4087,141.0137 344.9731,141.3125 L344.9731,144.0352 Q344.3423,143.4541 343.7488,143.1843 Q343.1553,142.9146 342.5244,142.9146 Q341.1797,142.9146 340.4949,143.9812 Q339.8101,145.0479 339.8101,147.1479 Q339.8101,149.2397 340.4949,150.3064 Q341.1797,151.373 342.5244,151.373 Q343.1553,151.373 343.7488,151.1033 Q344.3423,150.8335 344.9731,150.2524 Z "/><text fill="#000000" font-family="Source Sans Pro Semibold" font-size="12" font-style="italic" lengthAdjust="spacingAndGlyphs" textLength="60" x="376.5" y="144.8008">«Contract»</text><text fill="#000000" font-family="Source Sans Pro Semibold" font-size="12" lengthAdjust="spacingAndGlyphs" textLength="101" x="356" y="158.9336">ManagedContract</text><rect fill="#F8F8F8" height="38.2656" style="stroke: #383838; stroke-width: 1.5;" width="127" x="150" y="29.1992"/><ellipse cx="165" cy="48.332" fill="#C2C2C2" rx="11" ry="11" style="stroke: #383838; stroke-width: 1.0;"/><path d="M167.9731,53.9751 Q167.3921,54.2739 166.7529,54.4233 Q166.1138,54.5728 165.4082,54.5728 Q162.9014,54.5728 161.5815,52.9209 Q160.2617,51.269 160.2617,48.1479 Q160.2617,45.0186 161.5815,43.3667 Q162.9014,41.7148 165.4082,41.7148 Q166.1138,41.7148 166.7612,41.8643 Q167.4087,42.0137 167.9731,42.3125 L167.9731,45.0352 Q167.3423,44.4541 166.7488,44.1843 Q166.1553,43.9146 165.5244,43.9146 Q164.1797,43.9146 163.4949,44.9812 Q162.8101,46.0479 162.8101,48.1479 Q162.8101,50.2397 163.4949,51.3064 Q164.1797,52.373 165.5244,52.373 Q166.1553,52.373 166.7488,52.1033 Q167.3423,51.8335 167.9731,51.2524 Z "/><text fill="#000000" font-family="Source Sans Pro Semibold" font-size="12" font-style="italic" lengthAdjust="spacingAndGlyphs" textLength="60" x="196.5" y="45.8008">«Contract»</text><text fill="#000000" font-family="Source Sans Pro Semibold" font-size="12" lengthAdjust="spacingAndGlyphs" textLength="95" x="179" y="59.9336">AccountManager</text><rect fill="#F8F8F8" height="38.2656" style="stroke: #383838; stroke-width: 1.5;" width="109" x="6" y="29.1992"/><ellipse cx="21" cy="48.332" fill="#C2C2C2" rx="11" ry="11" style="stroke: #383838; stroke-width: 1.0;"/><path d="M23.9731,53.9751 Q23.3921,54.2739 22.7529,54.4233 Q22.1138,54.5728 21.4082,54.5728 Q18.9014,54.5728 17.5815,52.9209 Q16.2617,51.269 16.2617,48.1479 Q16.2617,45.0186 17.5815,43.3667 Q18.9014,41.7148 21.4082,41.7148 Q22.1138,41.7148 22.7612,41.8643 Q23.4087,42.0137 23.9731,42.3125 L23.9731,45.0352 Q23.3423,44.4541 22.7488,44.1843 Q22.1553,43.9146 21.5244,43.9146 Q20.1797,43.9146 19.4949,44.9812 Q18.8101,46.0479 18.8101,48.1479 Q18.8101,50.2397 19.4949,51.3064 Q20.1797,52.373 21.5244,52.373 Q22.1553,52.373 22.7488,52.1033 Q23.3423,51.8335 23.9731,51.2524 Z "/><text fill="#000000" font-family="Source Sans Pro Semibold" font-size="12" font-style="italic" lengthAdjust="spacingAndGlyphs" textLength="60" x="43.5" y="45.8008">«Contract»</text><text fill="#000000" font-family="Source Sans Pro Semibold" font-size="12" lengthAdjust="spacingAndGlyphs" textLength="77" x="35" y="59.9336">DataManager</text><rect fill="#F8F8F8" height="38.2656" style="stroke: #383838; stroke-width: 1.5;" width="125" x="312" y="29.1992"/><ellipse cx="327" cy="48.332" fill="#C2C2C2" rx="11" ry="11" style="stroke: #383838; stroke-width: 1.0;"/><path d="M329.9731,53.9751 Q329.3921,54.2739 328.7529,54.4233 Q328.1138,54.5728 327.4082,54.5728 Q324.9014,54.5728 323.5815,52.9209 Q322.2617,51.269 322.2617,48.1479 Q322.2617,45.0186 323.5815,43.3667 Q324.9014,41.7148 327.4082,41.7148 Q328.1138,41.7148 328.7612,41.8643 Q329.4087,42.0137 329.9731,42.3125 L329.9731,45.0352 Q329.3423,44.4541 328.7488,44.1843 Q328.1553,43.9146 327.5244,43.9146 Q326.1797,43.9146 325.4949,44.9812 Q324.8101,46.0479 324.8101,48.1479 Q324.8101,50.2397 325.4949,51.3064 Q326.1797,52.373 327.5244,52.373 Q328.1553,52.373 328.7488,52.1033 Q329.3423,51.8335 329.9731,51.2524 Z "/><text fill="#000000" font-family="Source Sans Pro Semibold" font-size="12" font-style="italic" lengthAdjust="spacingAndGlyphs" textLength="60" x="357.5" y="45.8008">«Contract»</text><text fill="#000000" font-family="Source Sans Pro Semibold" font-size="12" lengthAdjust="spacingAndGlyphs" textLength="93" x="341" y="59.9336">StudentManager</text><rect fill="#F8F8F8" height="38.2656" style="stroke: #383838; stroke-width: 1.5;" width="142" x="472.5" y="29.1992"/><ellipse cx="487.5" cy="48.332" fill="#C2C2C2" rx="11" ry="11" style="stroke: #383838; stroke-width: 1.0;"/><path d="M490.4731,53.9751 Q489.8921,54.2739 489.2529,54.4233 Q488.6138,54.5728 487.9082,54.5728 Q485.4014,54.5728 484.0815,52.9209 Q482.7617,51.269 482.7617,48.1479 Q482.7617,45.0186 484.0815,43.3667 Q485.4014,41.7148 487.9082,41.7148 Q488.6138,41.7148 489.2612,41.8643 Q489.9087,42.0137 490.4731,42.3125 L490.4731,45.0352 Q489.8423,44.4541 489.2488,44.1843 Q488.6553,43.9146 488.0244,43.9146 Q486.6797,43.9146 485.9949,44.9812 Q485.3101,46.0479 485.3101,48.1479 Q485.3101,50.2397 485.9949,51.3064 Q486.6797,52.373 488.0244,52.373 Q488.6553,52.373 489.2488,52.1033 Q489.8423,51.8335 490.4731,51.2524 Z "/><text fill="#000000" font-family="Source Sans Pro Semibold" font-size="12" font-style="italic" lengthAdjust="spacingAndGlyphs" textLength="60" x="526.5" y="45.8008">«Contract»</text><text fill="#000000" font-family="Source Sans Pro Semibold" font-size="12" lengthAdjust="spacingAndGlyphs" textLength="110" x="501.5" y="59.9336">SupervisorManager</text><path d="M706.5948,67.2874 C701.6601,79.2028 695.1358,94.9566 689.1852,109.3251 " fill="none" style="stroke: #383838; stroke-width: 1.0; stroke-dasharray: 7.0,7.0;"/><polygon fill="none" points="695.5009,112.3699,681.3809,128.1696,682.5662,107.0131,695.5009,112.3699" style="stroke: #383838; stroke-width: 1.0;"/><path d="M460.2112,147.1992 C503.666,147.1992 560.2399,147.1992 604.2022,147.1992 " fill="none" style="stroke: #383838; stroke-width: 1.0; stroke-dasharray: 7.0,7.0;"/><polygon fill="#383838" points="609.2274,147.1992,600.2274,143.1992,604.2274,147.1992,600.2274,151.1992,609.2274,147.1992" style="stroke: #383838; stroke-width: 1.0;"/><text fill="#000000" font-family="Source Sans Pro Semibold" font-size="13" lengthAdjust="spacingAndGlyphs" textLength="77" x="496.25" y="140.7676">&lt;&lt; uses &gt;&gt;</text><path d="M647.5441,68.8492 C590.8802,86.3249 510.3202,111.1705 455.202,128.1696 " fill="none" style="stroke: #383838; stroke-width: 1.0;"/><polygon fill="#383838" points="652.608,67.2874,642.8289,66.1175,647.8301,68.761,645.1866,73.7622,652.608,67.2874" style="stroke: #383838; stroke-width: 1.0;"/><path d="M248.2058,67.2874 C274.6014,81.805 311.3572,102.0206 341.2949,118.4864 " fill="none" style="stroke: #383838; stroke-width: 1.0;"/><polygon fill="none" points="344.7499,112.3977,358.9007,128.1696,338.003,124.6647,344.7499,112.3977" style="stroke: #383838; stroke-width: 1.0;"/><path d="M115.1153,64.4362 C168.0292,80.1673 249.0029,104.2406 310.0033,122.3759 " fill="none" style="stroke: #383838; stroke-width: 1.0;"/><polygon fill="none" points="312.2743,115.7481,329.4502,128.1574,308.2846,129.1676,312.2743,115.7481" style="stroke: #383838; stroke-width: 1.0;"/><path d="M378.1634,67.2874 C380.3976,78.9288 383.335,94.2343 386.0407,108.3321 " fill="none" style="stroke: #383838; stroke-width: 1.0;"/><polygon fill="none" points="392.9527,107.2087,389.8479,128.1696,379.2036,109.8474,392.9527,107.2087" style="stroke: #383838; stroke-width: 1.0;"/><path d="M514.5785,67.2874 C493.2047,81.3941 463.6792,100.8809 439.1358,117.0796 " fill="none" style="stroke: #383838; stroke-width: 1.0;"/><polygon fill="none" points="442.8808,122.995,422.3327,128.1696,435.169,111.3104,442.8808,122.995" style="stroke: #383838; stroke-width: 1.0;"/></g></svg>