<?xml version="1.0" encoding="UTF-8" standalone="yes"?><svg xmlns="http://www.w3.org/2000/svg" xmlns:xlink="http://www.w3.org/1999/xlink" height="537px" style="width:1504px;height:537px;" version="1.1" viewBox="0 0 1504 537" width="1504px"><defs/><g><text fill="#000000" font-family="Source Sans Pro Semibold" font-size="18" lengthAdjust="spacingAndGlyphs" textLength="53" x="734" y="17.4023">Model</text><rect fill="#F8F8F8" height="144.9512" style="stroke: #383838; stroke-width: 1.5;" width="190" x="455.5" y="133.6992"/><ellipse cx="526.25" cy="152.832" fill="#C2C2C2" rx="11" ry="11" style="stroke: #383838; stroke-width: 1.0;"/><path d="M529.2231,158.4751 Q528.6421,158.7739 528.0029,158.9233 Q527.3638,159.0728 526.6582,159.0728 Q524.1514,159.0728 522.8315,157.4209 Q521.5117,155.769 521.5117,152.6479 Q521.5117,149.5186 522.8315,147.8667 Q524.1514,146.2148 526.6582,146.2148 Q527.3638,146.2148 528.0112,146.3643 Q528.6587,146.5137 529.2231,146.8125 L529.2231,149.5352 Q528.5923,148.9541 527.9988,148.6843 Q527.4053,148.4146 526.7744,148.4146 Q525.4297,148.4146 524.7449,149.4812 Q524.0601,150.5479 524.0601,152.6479 Q524.0601,154.7397 524.7449,155.8064 Q525.4297,156.873 526.7744,156.873 Q527.4053,156.873 527.9988,156.6033 Q528.5923,156.3335 529.2231,155.7524 Z "/><text fill="#000000" font-family="Source Sans Pro Semibold" font-size="12" font-style="italic" lengthAdjust="spacingAndGlyphs" textLength="44" x="544.75" y="150.3008">«Struct»</text><text fill="#000000" font-family="Source Sans Pro Semibold" font-size="12" lengthAdjust="spacingAndGlyphs" textLength="40" x="546.75" y="164.4336">Course</text><line style="stroke: #383838; stroke-width: 1.5;" x1="456.5" x2="644.5" y1="171.9648" y2="171.9648"/><text fill="#000000" font-family="Source Sans Pro Semibold" font-size="11" lengthAdjust="spacingAndGlyphs" textLength="99" x="461.5" y="186.5996">description: string</text><text fill="#000000" font-family="Source Sans Pro Semibold" font-size="11" lengthAdjust="spacingAndGlyphs" textLength="67" x="461.5" y="199.5547">name: string</text><text fill="#000000" font-family="Source Sans Pro Semibold" font-size="11" lengthAdjust="spacingAndGlyphs" textLength="82" x="461.5" y="212.5098">ectsPoints: uint</text><text fill="#000000" font-family="Source Sans Pro Semibold" font-size="11" lengthAdjust="spacingAndGlyphs" textLength="114" x="461.5" y="225.4648">assignmentIDs: uint[]</text><text fill="#000000" font-family="Source Sans Pro Semibold" font-size="11" lengthAdjust="spacingAndGlyphs" textLength="72" x="461.5" y="238.4199">testIDs: uint[]</text><text fill="#000000" font-family="Source Sans Pro Semibold" font-size="11" lengthAdjust="spacingAndGlyphs" textLength="178" x="461.5" y="251.375">courseParticipationIDs: bytes32[]</text><text fill="#000000" font-family="Source Sans Pro Semibold" font-size="11" lengthAdjust="spacingAndGlyphs" textLength="174" x="461.5" y="264.3301">courseSupervisionIDs: bytes32[]</text><line style="stroke: #383838; stroke-width: 1.5;" x1="456.5" x2="644.5" y1="270.6504" y2="270.6504"/><rect fill="#F8F8F8" height="38.2656" style="stroke: #383838; stroke-width: 1.5;" width="88" x="506.5" y="29.1992"/><ellipse cx="521.5" cy="48.332" fill="#C2C2C2" rx="11" ry="11" style="stroke: #383838; stroke-width: 1.0;"/><path d="M524.4731,53.9751 Q523.8921,54.2739 523.2529,54.4233 Q522.6138,54.5728 521.9082,54.5728 Q519.4014,54.5728 518.0815,52.9209 Q516.7617,51.269 516.7617,48.1479 Q516.7617,45.0186 518.0815,43.3667 Q519.4014,41.7148 521.9082,41.7148 Q522.6138,41.7148 523.2612,41.8643 Q523.9087,42.0137 524.4731,42.3125 L524.4731,45.0352 Q523.8423,44.4541 523.2488,44.1843 Q522.6553,43.9146 522.0244,43.9146 Q520.6797,43.9146 519.9949,44.9812 Q519.3101,46.0479 519.3101,48.1479 Q519.3101,50.2397 519.9949,51.3064 Q520.6797,52.373 522.0244,52.373 Q522.6553,52.373 523.2488,52.1033 Q523.8423,51.8335 524.4731,51.2524 Z "/><text fill="#000000" font-family="Source Sans Pro Semibold" font-size="12" font-style="italic" lengthAdjust="spacingAndGlyphs" textLength="60" x="533.5" y="45.8008">«Contract»</text><text fill="#000000" font-family="Source Sans Pro Semibold" font-size="12" lengthAdjust="spacingAndGlyphs" textLength="56" x="535.5" y="59.9336">CourseDB</text><rect fill="#F8F8F8" height="157.9063" style="stroke: #383838; stroke-width: 1.5;" width="173" x="842" y="127.1992"/><ellipse cx="904.25" cy="146.332" fill="#C2C2C2" rx="11" ry="11" style="stroke: #383838; stroke-width: 1.0;"/><path d="M907.2231,151.9751 Q906.6421,152.2739 906.0029,152.4233 Q905.3638,152.5728 904.6582,152.5728 Q902.1514,152.5728 900.8315,150.9209 Q899.5117,149.269 899.5117,146.1479 Q899.5117,143.0186 900.8315,141.3667 Q902.1514,139.7148 904.6582,139.7148 Q905.3638,139.7148 906.0112,139.8643 Q906.6587,140.0137 907.2231,140.3125 L907.2231,143.0352 Q906.5923,142.4541 905.9988,142.1843 Q905.4053,141.9146 904.7744,141.9146 Q903.4297,141.9146 902.7449,142.9812 Q902.0601,144.0479 902.0601,146.1479 Q902.0601,148.2397 902.7449,149.3064 Q903.4297,150.373 904.7744,150.373 Q905.4053,150.373 905.9988,150.1033 Q906.5923,149.8335 907.2231,149.2524 Z "/><text fill="#000000" font-family="Source Sans Pro Semibold" font-size="12" font-style="italic" lengthAdjust="spacingAndGlyphs" textLength="44" x="922.75" y="143.8008">«Struct»</text><text fill="#000000" font-family="Source Sans Pro Semibold" font-size="12" lengthAdjust="spacingAndGlyphs" textLength="25" x="932.25" y="157.9336">Test</text><line style="stroke: #383838; stroke-width: 1.5;" x1="843" x2="1014" y1="165.4648" y2="165.4648"/><text fill="#000000" font-family="Source Sans Pro Semibold" font-size="11" lengthAdjust="spacingAndGlyphs" textLength="99" x="848" y="180.0996">description: string</text><text fill="#000000" font-family="Source Sans Pro Semibold" font-size="11" lengthAdjust="spacingAndGlyphs" textLength="67" x="848" y="193.0547">name: string</text><text fill="#000000" font-family="Source Sans Pro Semibold" font-size="11" lengthAdjust="spacingAndGlyphs" textLength="83" x="848" y="206.0098">maxPoints: uint</text><text fill="#000000" font-family="Source Sans Pro Semibold" font-size="11" lengthAdjust="spacingAndGlyphs" textLength="71" x="848" y="218.9648">dueDate: uint</text><text fill="#000000" font-family="Source Sans Pro Semibold" font-size="11" lengthAdjust="spacingAndGlyphs" textLength="75" x="848" y="231.9199">courseID: uint</text><text fill="#000000" font-family="Source Sans Pro Semibold" font-size="11" lengthAdjust="spacingAndGlyphs" textLength="114" x="848" y="244.875">submissionIDs: uint[]</text><text fill="#000000" font-family="Source Sans Pro Semibold" font-size="11" lengthAdjust="spacingAndGlyphs" textLength="161" x="848" y="257.8301">testParticipationIDs: bytes32[]</text><text fill="#000000" font-family="Source Sans Pro Semibold" font-size="11" lengthAdjust="spacingAndGlyphs" textLength="157" x="848" y="270.7852">testSupervisionIDs: bytes32[]</text><line style="stroke: #383838; stroke-width: 1.5;" x1="843" x2="1014" y1="277.1055" y2="277.1055"/><rect fill="#F8F8F8" height="38.2656" style="stroke: #383838; stroke-width: 1.5;" width="88" x="884.5" y="29.1992"/><ellipse cx="899.5" cy="48.332" fill="#C2C2C2" rx="11" ry="11" style="stroke: #383838; stroke-width: 1.0;"/><path d="M902.4731,53.9751 Q901.8921,54.2739 901.2529,54.4233 Q900.6138,54.5728 899.9082,54.5728 Q897.4014,54.5728 896.0815,52.9209 Q894.7617,51.269 894.7617,48.1479 Q894.7617,45.0186 896.0815,43.3667 Q897.4014,41.7148 899.9082,41.7148 Q900.6138,41.7148 901.2612,41.8643 Q901.9087,42.0137 902.4731,42.3125 L902.4731,45.0352 Q901.8423,44.4541 901.2488,44.1843 Q900.6553,43.9146 900.0244,43.9146 Q898.6797,43.9146 897.9949,44.9812 Q897.3101,46.0479 897.3101,48.1479 Q897.3101,50.2397 897.9949,51.3064 Q898.6797,52.373 900.0244,52.373 Q900.6553,52.373 901.2488,52.1033 Q901.8423,51.8335 902.4731,51.2524 Z "/><text fill="#000000" font-family="Source Sans Pro Semibold" font-size="12" font-style="italic" lengthAdjust="spacingAndGlyphs" textLength="60" x="911.5" y="45.8008">«Contract»</text><text fill="#000000" font-family="Source Sans Pro Semibold" font-size="12" lengthAdjust="spacingAndGlyphs" textLength="41" x="921" y="59.9336">TestDB</text><rect fill="#F8F8F8" height="131.9961" style="stroke: #383838; stroke-width: 1.5;" width="126" x="680.5" y="140.1992"/><ellipse cx="708.1" cy="159.332" fill="#C2C2C2" rx="11" ry="11" style="stroke: #383838; stroke-width: 1.0;"/><path d="M711.0731,164.9751 Q710.4921,165.2739 709.8529,165.4233 Q709.2138,165.5728 708.5082,165.5728 Q706.0014,165.5728 704.6815,163.9209 Q703.3617,162.269 703.3617,159.1479 Q703.3617,156.0186 704.6815,154.3667 Q706.0014,152.7148 708.5082,152.7148 Q709.2138,152.7148 709.8612,152.8643 Q710.5087,153.0137 711.0731,153.3125 L711.0731,156.0352 Q710.4423,155.4541 709.8488,155.1843 Q709.2553,154.9146 708.6244,154.9146 Q707.2797,154.9146 706.5949,155.9812 Q705.9101,157.0479 705.9101,159.1479 Q705.9101,161.2397 706.5949,162.3064 Q707.2797,163.373 708.6244,163.373 Q709.2553,163.373 709.8488,163.1033 Q710.4423,162.8335 711.0731,162.2524 Z "/><text fill="#000000" font-family="Source Sans Pro Semibold" font-size="12" font-style="italic" lengthAdjust="spacingAndGlyphs" textLength="44" x="735.9" y="156.8008">«Struct»</text><text fill="#000000" font-family="Source Sans Pro Semibold" font-size="12" lengthAdjust="spacingAndGlyphs" textLength="66" x="724.9" y="170.9336">Assignment</text><line style="stroke: #383838; stroke-width: 1.5;" x1="681.5" x2="805.5" y1="178.4648" y2="178.4648"/><text fill="#000000" font-family="Source Sans Pro Semibold" font-size="11" lengthAdjust="spacingAndGlyphs" textLength="99" x="686.5" y="193.0996">description: string</text><text fill="#000000" font-family="Source Sans Pro Semibold" font-size="11" lengthAdjust="spacingAndGlyphs" textLength="67" x="686.5" y="206.0547">name: string</text><text fill="#000000" font-family="Source Sans Pro Semibold" font-size="11" lengthAdjust="spacingAndGlyphs" textLength="83" x="686.5" y="219.0098">maxPoints: uint</text><text fill="#000000" font-family="Source Sans Pro Semibold" font-size="11" lengthAdjust="spacingAndGlyphs" textLength="71" x="686.5" y="231.9648">dueDate: uint</text><text fill="#000000" font-family="Source Sans Pro Semibold" font-size="11" lengthAdjust="spacingAndGlyphs" textLength="75" x="686.5" y="244.9199">courseID: uint</text><text fill="#000000" font-family="Source Sans Pro Semibold" font-size="11" lengthAdjust="spacingAndGlyphs" textLength="114" x="686.5" y="257.875">submissionIDs: uint[]</text><line style="stroke: #383838; stroke-width: 1.5;" x1="681.5" x2="805.5" y1="264.1953" y2="264.1953"/><rect fill="#F8F8F8" height="38.2656" style="stroke: #383838; stroke-width: 1.5;" width="114" x="686.5" y="29.1992"/><ellipse cx="701.5" cy="48.332" fill="#C2C2C2" rx="11" ry="11" style="stroke: #383838; stroke-width: 1.0;"/><path d="M704.4731,53.9751 Q703.8921,54.2739 703.2529,54.4233 Q702.6138,54.5728 701.9082,54.5728 Q699.4014,54.5728 698.0815,52.9209 Q696.7617,51.269 696.7617,48.1479 Q696.7617,45.0186 698.0815,43.3667 Q699.4014,41.7148 701.9082,41.7148 Q702.6138,41.7148 703.2612,41.8643 Q703.9087,42.0137 704.4731,42.3125 L704.4731,45.0352 Q703.8423,44.4541 703.2488,44.1843 Q702.6553,43.9146 702.0244,43.9146 Q700.6797,43.9146 699.9949,44.9812 Q699.3101,46.0479 699.3101,48.1479 Q699.3101,50.2397 699.9949,51.3064 Q700.6797,52.373 702.0244,52.373 Q702.6553,52.373 703.2488,52.1033 Q703.8423,51.8335 704.4731,51.2524 Z "/><text fill="#000000" font-family="Source Sans Pro Semibold" font-size="12" font-style="italic" lengthAdjust="spacingAndGlyphs" textLength="60" x="726.5" y="45.8008">«Contract»</text><text fill="#000000" font-family="Source Sans Pro Semibold" font-size="12" lengthAdjust="spacingAndGlyphs" textLength="82" x="715.5" y="59.9336">AssignmentDB</text><rect fill="#F8F8F8" height="131.9961" style="stroke: #383838; stroke-width: 1.5;" width="189" x="6" y="140.1992"/><ellipse cx="64.25" cy="159.332" fill="#C2C2C2" rx="11" ry="11" style="stroke: #383838; stroke-width: 1.0;"/><path d="M67.2231,164.9751 Q66.6421,165.2739 66.0029,165.4233 Q65.3638,165.5728 64.6582,165.5728 Q62.1514,165.5728 60.8315,163.9209 Q59.5117,162.269 59.5117,159.1479 Q59.5117,156.0186 60.8315,154.3667 Q62.1514,152.7148 64.6582,152.7148 Q65.3638,152.7148 66.0112,152.8643 Q66.6587,153.0137 67.2231,153.3125 L67.2231,156.0352 Q66.5923,155.4541 65.9988,155.1843 Q65.4053,154.9146 64.7744,154.9146 Q63.4297,154.9146 62.7449,155.9812 Q62.0601,157.0479 62.0601,159.1479 Q62.0601,161.2397 62.7449,162.3064 Q63.4297,163.373 64.7744,163.373 Q65.4053,163.373 65.9988,163.1033 Q66.5923,162.8335 67.2231,162.2524 Z "/><text fill="#000000" font-family="Source Sans Pro Semibold" font-size="12" font-style="italic" lengthAdjust="spacingAndGlyphs" textLength="44" x="94.75" y="156.8008">«Struct»</text><text fill="#000000" font-family="Source Sans Pro Semibold" font-size="12" lengthAdjust="spacingAndGlyphs" textLength="64" x="84.75" y="170.9336">Submission</text><line style="stroke: #383838; stroke-width: 1.5;" x1="7" x2="194" y1="178.4648" y2="178.4648"/><text fill="#000000" font-family="Source Sans Pro Semibold" font-size="11" lengthAdjust="spacingAndGlyphs" textLength="99" x="12" y="193.0996">description: string</text><text fill="#000000" font-family="Source Sans Pro Semibold" font-size="11" lengthAdjust="spacingAndGlyphs" textLength="105" x="12" y="206.0547">submittedDate: uint</text><text fill="#000000" font-family="Source Sans Pro Semibold" font-size="11" lengthAdjust="spacingAndGlyphs" textLength="42" x="12" y="219.0098">ref: uint</text><text fill="#000000" font-family="Source Sans Pro Semibold" font-size="11" lengthAdjust="spacingAndGlyphs" textLength="89" x="12" y="231.9648">referenceID: uint</text><text fill="#000000" font-family="Source Sans Pro Semibold" font-size="11" lengthAdjust="spacingAndGlyphs" textLength="115" x="12" y="244.9199">assessmentIDs: uint[]</text><text fill="#000000" font-family="Source Sans Pro Semibold" font-size="11" lengthAdjust="spacingAndGlyphs" textLength="177" x="12" y="257.875">studentSubmissionIDs: bytes32[]</text><line style="stroke: #383838; stroke-width: 1.5;" x1="7" x2="194" y1="264.1953" y2="264.1953"/><rect fill="#F8F8F8" height="38.2656" style="stroke: #383838; stroke-width: 1.5;" width="112" x="44.5" y="29.1992"/><ellipse cx="59.5" cy="48.332" fill="#C2C2C2" rx="11" ry="11" style="stroke: #383838; stroke-width: 1.0;"/><path d="M62.4731,53.9751 Q61.8921,54.2739 61.2529,54.4233 Q60.6138,54.5728 59.9082,54.5728 Q57.4014,54.5728 56.0815,52.9209 Q54.7617,51.269 54.7617,48.1479 Q54.7617,45.0186 56.0815,43.3667 Q57.4014,41.7148 59.9082,41.7148 Q60.6138,41.7148 61.2612,41.8643 Q61.9087,42.0137 62.4731,42.3125 L62.4731,45.0352 Q61.8423,44.4541 61.2488,44.1843 Q60.6553,43.9146 60.0244,43.9146 Q58.6797,43.9146 57.9949,44.9812 Q57.3101,46.0479 57.3101,48.1479 Q57.3101,50.2397 57.9949,51.3064 Q58.6797,52.373 60.0244,52.373 Q60.6553,52.373 61.2488,52.1033 Q61.8423,51.8335 62.4731,51.2524 Z "/><text fill="#000000" font-family="Source Sans Pro Semibold" font-size="12" font-style="italic" lengthAdjust="spacingAndGlyphs" textLength="60" x="83.5" y="45.8008">«Contract»</text><text fill="#000000" font-family="Source Sans Pro Semibold" font-size="12" lengthAdjust="spacingAndGlyphs" textLength="80" x="73.5" y="59.9336">SubmissionDB</text><rect fill="#F8F8F8" height="106.0859" style="stroke: #383838; stroke-width: 1.5;" width="209" x="1294" y="153.1992"/><ellipse cx="1360.25" cy="172.332" fill="#C2C2C2" rx="11" ry="11" style="stroke: #383838; stroke-width: 1.0;"/><path d="M1363.2231,177.9751 Q1362.6421,178.2739 1362.0029,178.4233 Q1361.3638,178.5728 1360.6582,178.5728 Q1358.1514,178.5728 1356.8315,176.9209 Q1355.5117,175.269 1355.5117,172.1479 Q1355.5117,169.0186 1356.8315,167.3667 Q1358.1514,165.7148 1360.6582,165.7148 Q1361.3638,165.7148 1362.0112,165.8643 Q1362.6587,166.0137 1363.2231,166.3125 L1363.2231,169.0352 Q1362.5923,168.4541 1361.9988,168.1843 Q1361.4053,167.9146 1360.7744,167.9146 Q1359.4297,167.9146 1358.7449,168.9812 Q1358.0601,170.0479 1358.0601,172.1479 Q1358.0601,174.2397 1358.7449,175.3064 Q1359.4297,176.373 1360.7744,176.373 Q1361.4053,176.373 1361.9988,176.1033 Q1362.5923,175.8335 1363.2231,175.2524 Z "/><text fill="#000000" font-family="Source Sans Pro Semibold" font-size="12" font-style="italic" lengthAdjust="spacingAndGlyphs" textLength="44" x="1392.75" y="169.8008">«Struct»</text><text fill="#000000" font-family="Source Sans Pro Semibold" font-size="12" lengthAdjust="spacingAndGlyphs" textLength="68" x="1380.75" y="183.9336">Assessment</text><line style="stroke: #383838; stroke-width: 1.5;" x1="1295" x2="1502" y1="191.4648" y2="191.4648"/><text fill="#000000" font-family="Source Sans Pro Semibold" font-size="11" lengthAdjust="spacingAndGlyphs" textLength="99" x="1300" y="206.0996">description: string</text><text fill="#000000" font-family="Source Sans Pro Semibold" font-size="11" lengthAdjust="spacingAndGlyphs" textLength="107" x="1300" y="219.0547">obtainedPoints: uint</text><text fill="#000000" font-family="Source Sans Pro Semibold" font-size="11" lengthAdjust="spacingAndGlyphs" textLength="100" x="1300" y="232.0098">submissionID: uint</text><text fill="#000000" font-family="Source Sans Pro Semibold" font-size="11" lengthAdjust="spacingAndGlyphs" textLength="197" x="1300" y="244.9648">supervisorAssessmentIDs: bytes32[]</text><line style="stroke: #383838; stroke-width: 1.5;" x1="1295" x2="1502" y1="251.2852" y2="251.2852"/><rect fill="#F8F8F8" height="38.2656" style="stroke: #383838; stroke-width: 1.5;" width="116" x="1340.5" y="29.1992"/><ellipse cx="1355.5" cy="48.332" fill="#C2C2C2" rx="11" ry="11" style="stroke: #383838; stroke-width: 1.0;"/><path d="M1358.4731,53.9751 Q1357.8921,54.2739 1357.2529,54.4233 Q1356.6138,54.5728 1355.9082,54.5728 Q1353.4014,54.5728 1352.0815,52.9209 Q1350.7617,51.269 1350.7617,48.1479 Q1350.7617,45.0186 1352.0815,43.3667 Q1353.4014,41.7148 1355.9082,41.7148 Q1356.6138,41.7148 1357.2612,41.8643 Q1357.9087,42.0137 1358.4731,42.3125 L1358.4731,45.0352 Q1357.8423,44.4541 1357.2488,44.1843 Q1356.6553,43.9146 1356.0244,43.9146 Q1354.6797,43.9146 1353.9949,44.9812 Q1353.3101,46.0479 1353.3101,48.1479 Q1353.3101,50.2397 1353.9949,51.3064 Q1354.6797,52.373 1356.0244,52.373 Q1356.6553,52.373 1357.2488,52.1033 Q1357.8423,51.8335 1358.4731,51.2524 Z "/><text fill="#000000" font-family="Source Sans Pro Semibold" font-size="12" font-style="italic" lengthAdjust="spacingAndGlyphs" textLength="60" x="1381.5" y="45.8008">«Contract»</text><text fill="#000000" font-family="Source Sans Pro Semibold" font-size="12" lengthAdjust="spacingAndGlyphs" textLength="84" x="1369.5" y="59.9336">AssessmentDB</text><rect fill="#F8F8F8" height="131.9961" style="stroke: #383838; stroke-width: 1.5;" width="190" x="230.5" y="140.1992"/><ellipse cx="299.75" cy="159.332" fill="#C2C2C2" rx="11" ry="11" style="stroke: #383838; stroke-width: 1.0;"/><path d="M302.7231,164.9751 Q302.1421,165.2739 301.5029,165.4233 Q300.8638,165.5728 300.1582,165.5728 Q297.6514,165.5728 296.3315,163.9209 Q295.0117,162.269 295.0117,159.1479 Q295.0117,156.0186 296.3315,154.3667 Q297.6514,152.7148 300.1582,152.7148 Q300.8638,152.7148 301.5112,152.8643 Q302.1587,153.0137 302.7231,153.3125 L302.7231,156.0352 Q302.0923,155.4541 301.4988,155.1843 Q300.9053,154.9146 300.2744,154.9146 Q298.9297,154.9146 298.2449,155.9812 Q297.5601,157.0479 297.5601,159.1479 Q297.5601,161.2397 298.2449,162.3064 Q298.9297,163.373 300.2744,163.373 Q300.9053,163.373 301.4988,163.1033 Q302.0923,162.8335 302.7231,162.2524 Z "/><text fill="#000000" font-family="Source Sans Pro Semibold" font-size="12" font-style="italic" lengthAdjust="spacingAndGlyphs" textLength="44" x="319.75" y="156.8008">«Struct»</text><text fill="#000000" font-family="Source Sans Pro Semibold" font-size="12" lengthAdjust="spacingAndGlyphs" textLength="43" x="320.25" y="170.9336">Student</text><line style="stroke: #383838; stroke-width: 1.5;" x1="231.5" x2="419.5" y1="178.4648" y2="178.4648"/><text fill="#000000" font-family="Source Sans Pro Semibold" font-size="11" lengthAdjust="spacingAndGlyphs" textLength="67" x="236.5" y="193.0996">name: string</text><text fill="#000000" font-family="Source Sans Pro Semibold" font-size="11" lengthAdjust="spacingAndGlyphs" textLength="65" x="236.5" y="206.0547">matrNr: uint</text><text fill="#000000" font-family="Source Sans Pro Semibold" font-size="11" lengthAdjust="spacingAndGlyphs" textLength="57" x="236.5" y="219.0098">index: uint</text><text fill="#000000" font-family="Source Sans Pro Semibold" font-size="11" lengthAdjust="spacingAndGlyphs" textLength="161" x="236.5" y="231.9648">testParticipationIDs: bytes32[]</text><text fill="#000000" font-family="Source Sans Pro Semibold" font-size="11" lengthAdjust="spacingAndGlyphs" textLength="178" x="236.5" y="244.9199">courseParticipationIDs: bytes32[]</text><text fill="#000000" font-family="Source Sans Pro Semibold" font-size="11" lengthAdjust="spacingAndGlyphs" textLength="177" x="236.5" y="257.875">studentSubmissionIDs: bytes32[]</text><line style="stroke: #383838; stroke-width: 1.5;" x1="231.5" x2="419.5" y1="264.1953" y2="264.1953"/><rect fill="#F8F8F8" height="38.2656" style="stroke: #383838; stroke-width: 1.5;" width="91" x="280" y="29.1992"/><ellipse cx="295" cy="48.332" fill="#C2C2C2" rx="11" ry="11" style="stroke: #383838; stroke-width: 1.0;"/><path d="M297.9731,53.9751 Q297.3921,54.2739 296.7529,54.4233 Q296.1138,54.5728 295.4082,54.5728 Q292.9014,54.5728 291.5815,52.9209 Q290.2617,51.269 290.2617,48.1479 Q290.2617,45.0186 291.5815,43.3667 Q292.9014,41.7148 295.4082,41.7148 Q296.1138,41.7148 296.7612,41.8643 Q297.4087,42.0137 297.9731,42.3125 L297.9731,45.0352 Q297.3423,44.4541 296.7488,44.1843 Q296.1553,43.9146 295.5244,43.9146 Q294.1797,43.9146 293.4949,44.9812 Q292.8101,46.0479 292.8101,48.1479 Q292.8101,50.2397 293.4949,51.3064 Q294.1797,52.373 295.5244,52.373 Q296.1553,52.373 296.7488,52.1033 Q297.3423,51.8335 297.9731,51.2524 Z "/><text fill="#000000" font-family="Source Sans Pro Semibold" font-size="12" font-style="italic" lengthAdjust="spacingAndGlyphs" textLength="60" x="308.5" y="45.8008">«Contract»</text><text fill="#000000" font-family="Source Sans Pro Semibold" font-size="12" lengthAdjust="spacingAndGlyphs" textLength="59" x="309" y="59.9336">StudentDB</text><rect fill="#F8F8F8" height="93.1309" style="stroke: #383838; stroke-width: 1.5;" width="143" x="269" y="345.1992"/><ellipse cx="284" cy="364.332" fill="#C2C2C2" rx="11" ry="11" style="stroke: #383838; stroke-width: 1.0;"/><path d="M286.9731,369.9751 Q286.3921,370.2739 285.7529,370.4233 Q285.1138,370.5728 284.4082,370.5728 Q281.9014,370.5728 280.5815,368.9209 Q279.2617,367.269 279.2617,364.1479 Q279.2617,361.0186 280.5815,359.3667 Q281.9014,357.7148 284.4082,357.7148 Q285.1138,357.7148 285.7612,357.8643 Q286.4087,358.0137 286.9731,358.3125 L286.9731,361.0352 Q286.3423,360.4541 285.7488,360.1843 Q285.1553,359.9146 284.5244,359.9146 Q283.1797,359.9146 282.4949,360.9812 Q281.8101,362.0479 281.8101,364.1479 Q281.8101,366.2397 282.4949,367.3064 Q283.1797,368.373 284.5244,368.373 Q285.1553,368.373 285.7488,368.1033 Q286.3423,367.8335 286.9731,367.2524 Z "/><text fill="#000000" font-family="Source Sans Pro Semibold" font-size="12" font-style="italic" lengthAdjust="spacingAndGlyphs" textLength="44" x="331.5" y="361.8008">«Struct»</text><text fill="#000000" font-family="Source Sans Pro Semibold" font-size="12" lengthAdjust="spacingAndGlyphs" textLength="111" x="298" y="375.9336">CourseParticipation</text><line style="stroke: #383838; stroke-width: 1.5;" x1="270" x2="411" y1="383.4648" y2="383.4648"/><text fill="#000000" font-family="Source Sans Pro Semibold" font-size="11" lengthAdjust="spacingAndGlyphs" textLength="101" x="275" y="398.0996">studentID: address</text><text fill="#000000" font-family="Source Sans Pro Semibold" font-size="11" lengthAdjust="spacingAndGlyphs" textLength="75" x="275" y="411.0547">courseID: uint</text><text fill="#000000" font-family="Source Sans Pro Semibold" font-size="11" lengthAdjust="spacingAndGlyphs" textLength="67" x="275" y="424.0098">idIndex: uint</text><line style="stroke: #383838; stroke-width: 1.5;" x1="270" x2="411" y1="430.3301" y2="430.3301"/><rect fill="#F8F8F8" height="38.2656" style="stroke: #383838; stroke-width: 1.5;" width="159" x="261" y="498.1992"/><ellipse cx="276" cy="517.332" fill="#C2C2C2" rx="11" ry="11" style="stroke: #383838; stroke-width: 1.0;"/><path d="M278.9731,522.9751 Q278.3921,523.2739 277.7529,523.4233 Q277.1138,523.5728 276.4082,523.5728 Q273.9014,523.5728 272.5815,521.9209 Q271.2617,520.269 271.2617,517.1479 Q271.2617,514.0186 272.5815,512.3667 Q273.9014,510.7148 276.4082,510.7148 Q277.1138,510.7148 277.7612,510.8643 Q278.4087,511.0137 278.9731,511.3125 L278.9731,514.0352 Q278.3423,513.4541 277.7488,513.1843 Q277.1553,512.9146 276.5244,512.9146 Q275.1797,512.9146 274.4949,513.9812 Q273.8101,515.0479 273.8101,517.1479 Q273.8101,519.2397 274.4949,520.3064 Q275.1797,521.373 276.5244,521.373 Q277.1553,521.373 277.7488,521.1033 Q278.3423,520.8335 278.9731,520.2524 Z "/><text fill="#000000" font-family="Source Sans Pro Semibold" font-size="12" font-style="italic" lengthAdjust="spacingAndGlyphs" textLength="60" x="323.5" y="514.8008">«Contract»</text><text fill="#000000" font-family="Source Sans Pro Semibold" font-size="12" lengthAdjust="spacingAndGlyphs" textLength="127" x="290" y="528.9336">CourseParticipationDB</text><rect fill="#F8F8F8" height="131.9961" style="stroke: #383838; stroke-width: 1.5;" width="209" x="1050" y="140.1992"/><ellipse cx="1120.25" cy="159.332" fill="#C2C2C2" rx="11" ry="11" style="stroke: #383838; stroke-width: 1.0;"/><path d="M1123.2231,164.9751 Q1122.6421,165.2739 1122.0029,165.4233 Q1121.3638,165.5728 1120.6582,165.5728 Q1118.1514,165.5728 1116.8315,163.9209 Q1115.5117,162.269 1115.5117,159.1479 Q1115.5117,156.0186 1116.8315,154.3667 Q1118.1514,152.7148 1120.6582,152.7148 Q1121.3638,152.7148 1122.0112,152.8643 Q1122.6587,153.0137 1123.2231,153.3125 L1123.2231,156.0352 Q1122.5923,155.4541 1121.9988,155.1843 Q1121.4053,154.9146 1120.7744,154.9146 Q1119.4297,154.9146 1118.7449,155.9812 Q1118.0601,157.0479 1118.0601,159.1479 Q1118.0601,161.2397 1118.7449,162.3064 Q1119.4297,163.373 1120.7744,163.373 Q1121.4053,163.373 1121.9988,163.1033 Q1122.5923,162.8335 1123.2231,162.2524 Z "/><text fill="#000000" font-family="Source Sans Pro Semibold" font-size="12" font-style="italic" lengthAdjust="spacingAndGlyphs" textLength="44" x="1148.75" y="156.8008">«Struct»</text><text fill="#000000" font-family="Source Sans Pro Semibold" font-size="12" lengthAdjust="spacingAndGlyphs" textLength="60" x="1140.75" y="170.9336">Supervisor</text><line style="stroke: #383838; stroke-width: 1.5;" x1="1051" x2="1258" y1="178.4648" y2="178.4648"/><text fill="#000000" font-family="Source Sans Pro Semibold" font-size="11" lengthAdjust="spacingAndGlyphs" textLength="67" x="1056" y="193.0996">name: string</text><text fill="#000000" font-family="Source Sans Pro Semibold" font-size="11" lengthAdjust="spacingAndGlyphs" textLength="99" x="1056" y="206.0547">uaccountID: string</text><text fill="#000000" font-family="Source Sans Pro Semibold" font-size="11" lengthAdjust="spacingAndGlyphs" textLength="57" x="1056" y="219.0098">index: uint</text><text fill="#000000" font-family="Source Sans Pro Semibold" font-size="11" lengthAdjust="spacingAndGlyphs" textLength="174" x="1056" y="231.9648">courseSupervisionIDs: bytes32[]</text><text fill="#000000" font-family="Source Sans Pro Semibold" font-size="11" lengthAdjust="spacingAndGlyphs" textLength="157" x="1056" y="244.9199">testSupervisionIDs: bytes32[]</text><text fill="#000000" font-family="Source Sans Pro Semibold" font-size="11" lengthAdjust="spacingAndGlyphs" textLength="197" x="1056" y="257.875">supervisorAssessmentIDs: bytes32[]</text><line style="stroke: #383838; stroke-width: 1.5;" x1="1051" x2="1258" y1="264.1953" y2="264.1953"/><rect fill="#F8F8F8" height="38.2656" style="stroke: #383838; stroke-width: 1.5;" width="108" x="1100.5" y="29.1992"/><ellipse cx="1115.5" cy="48.332" fill="#C2C2C2" rx="11" ry="11" style="stroke: #383838; stroke-width: 1.0;"/><path d="M1118.4731,53.9751 Q1117.8921,54.2739 1117.2529,54.4233 Q1116.6138,54.5728 1115.9082,54.5728 Q1113.4014,54.5728 1112.0815,52.9209 Q1110.7617,51.269 1110.7617,48.1479 Q1110.7617,45.0186 1112.0815,43.3667 Q1113.4014,41.7148 1115.9082,41.7148 Q1116.6138,41.7148 1117.2612,41.8643 Q1117.9087,42.0137 1118.4731,42.3125 L1118.4731,45.0352 Q1117.8423,44.4541 1117.2488,44.1843 Q1116.6553,43.9146 1116.0244,43.9146 Q1114.6797,43.9146 1113.9949,44.9812 Q1113.3101,46.0479 1113.3101,48.1479 Q1113.3101,50.2397 1113.9949,51.3064 Q1114.6797,52.373 1116.0244,52.373 Q1116.6553,52.373 1117.2488,52.1033 Q1117.8423,51.8335 1118.4731,51.2524 Z "/><text fill="#000000" font-family="Source Sans Pro Semibold" font-size="12" font-style="italic" lengthAdjust="spacingAndGlyphs" textLength="60" x="1137.5" y="45.8008">«Contract»</text><text fill="#000000" font-family="Source Sans Pro Semibold" font-size="12" lengthAdjust="spacingAndGlyphs" textLength="76" x="1129.5" y="59.9336">SupervisorDB</text><rect fill="#F8F8F8" height="93.1309" style="stroke: #383838; stroke-width: 1.5;" width="137" x="683" y="345.1992"/><ellipse cx="698" cy="364.332" fill="#C2C2C2" rx="11" ry="11" style="stroke: #383838; stroke-width: 1.0;"/><path d="M700.9731,369.9751 Q700.3921,370.2739 699.7529,370.4233 Q699.1138,370.5728 698.4082,370.5728 Q695.9014,370.5728 694.5815,368.9209 Q693.2617,367.269 693.2617,364.1479 Q693.2617,361.0186 694.5815,359.3667 Q695.9014,357.7148 698.4082,357.7148 Q699.1138,357.7148 699.7612,357.8643 Q700.4087,358.0137 700.9731,358.3125 L700.9731,361.0352 Q700.3423,360.4541 699.7488,360.1843 Q699.1553,359.9146 698.5244,359.9146 Q697.1797,359.9146 696.4949,360.9812 Q695.8101,362.0479 695.8101,364.1479 Q695.8101,366.2397 696.4949,367.3064 Q697.1797,368.373 698.5244,368.373 Q699.1553,368.373 699.7488,368.1033 Q700.3423,367.8335 700.9731,367.2524 Z "/><text fill="#000000" font-family="Source Sans Pro Semibold" font-size="12" font-style="italic" lengthAdjust="spacingAndGlyphs" textLength="44" x="742.5" y="361.8008">«Struct»</text><text fill="#000000" font-family="Source Sans Pro Semibold" font-size="12" lengthAdjust="spacingAndGlyphs" textLength="105" x="712" y="375.9336">CourseSupervision</text><line style="stroke: #383838; stroke-width: 1.5;" x1="684" x2="819" y1="383.4648" y2="383.4648"/><text fill="#000000" font-family="Source Sans Pro Semibold" font-size="11" lengthAdjust="spacingAndGlyphs" textLength="118" x="689" y="398.0996">supervisorID: address</text><text fill="#000000" font-family="Source Sans Pro Semibold" font-size="11" lengthAdjust="spacingAndGlyphs" textLength="75" x="689" y="411.0547">courseID: uint</text><text fill="#000000" font-family="Source Sans Pro Semibold" font-size="11" lengthAdjust="spacingAndGlyphs" textLength="67" x="689" y="424.0098">idIndex: uint</text><line style="stroke: #383838; stroke-width: 1.5;" x1="684" x2="819" y1="430.3301" y2="430.3301"/><rect fill="#F8F8F8" height="38.2656" style="stroke: #383838; stroke-width: 1.5;" width="153" x="675" y="498.1992"/><ellipse cx="690" cy="517.332" fill="#C2C2C2" rx="11" ry="11" style="stroke: #383838; stroke-width: 1.0;"/><path d="M692.9731,522.9751 Q692.3921,523.2739 691.7529,523.4233 Q691.1138,523.5728 690.4082,523.5728 Q687.9014,523.5728 686.5815,521.9209 Q685.2617,520.269 685.2617,517.1479 Q685.2617,514.0186 686.5815,512.3667 Q687.9014,510.7148 690.4082,510.7148 Q691.1138,510.7148 691.7612,510.8643 Q692.4087,511.0137 692.9731,511.3125 L692.9731,514.0352 Q692.3423,513.4541 691.7488,513.1843 Q691.1553,512.9146 690.5244,512.9146 Q689.1797,512.9146 688.4949,513.9812 Q687.8101,515.0479 687.8101,517.1479 Q687.8101,519.2397 688.4949,520.3064 Q689.1797,521.373 690.5244,521.373 Q691.1553,521.373 691.7488,521.1033 Q692.3423,520.8335 692.9731,520.2524 Z "/><text fill="#000000" font-family="Source Sans Pro Semibold" font-size="12" font-style="italic" lengthAdjust="spacingAndGlyphs" textLength="60" x="734.5" y="514.8008">«Contract»</text><text fill="#000000" font-family="Source Sans Pro Semibold" font-size="12" lengthAdjust="spacingAndGlyphs" textLength="121" x="704" y="528.9336">CourseSupervisionDB</text><rect fill="#F8F8F8" height="93.1309" style="stroke: #383838; stroke-width: 1.5;" width="139" x="63" y="345.1992"/><ellipse cx="78" cy="364.332" fill="#C2C2C2" rx="11" ry="11" style="stroke: #383838; stroke-width: 1.0;"/><path d="M80.9731,369.9751 Q80.3921,370.2739 79.7529,370.4233 Q79.1138,370.5728 78.4082,370.5728 Q75.9014,370.5728 74.5815,368.9209 Q73.2617,367.269 73.2617,364.1479 Q73.2617,361.0186 74.5815,359.3667 Q75.9014,357.7148 78.4082,357.7148 Q79.1138,357.7148 79.7612,357.8643 Q80.4087,358.0137 80.9731,358.3125 L80.9731,361.0352 Q80.3423,360.4541 79.7488,360.1843 Q79.1553,359.9146 78.5244,359.9146 Q77.1797,359.9146 76.4949,360.9812 Q75.8101,362.0479 75.8101,364.1479 Q75.8101,366.2397 76.4949,367.3064 Q77.1797,368.373 78.5244,368.373 Q79.1553,368.373 79.7488,368.1033 Q80.3423,367.8335 80.9731,367.2524 Z "/><text fill="#000000" font-family="Source Sans Pro Semibold" font-size="12" font-style="italic" lengthAdjust="spacingAndGlyphs" textLength="44" x="123.5" y="361.8008">«Struct»</text><text fill="#000000" font-family="Source Sans Pro Semibold" font-size="12" lengthAdjust="spacingAndGlyphs" textLength="107" x="92" y="375.9336">StudentSubmission</text><line style="stroke: #383838; stroke-width: 1.5;" x1="64" x2="201" y1="383.4648" y2="383.4648"/><text fill="#000000" font-family="Source Sans Pro Semibold" font-size="11" lengthAdjust="spacingAndGlyphs" textLength="101" x="69" y="398.0996">studentID: address</text><text fill="#000000" font-family="Source Sans Pro Semibold" font-size="11" lengthAdjust="spacingAndGlyphs" textLength="100" x="69" y="411.0547">submissionID: uint</text><text fill="#000000" font-family="Source Sans Pro Semibold" font-size="11" lengthAdjust="spacingAndGlyphs" textLength="67" x="69" y="424.0098">idIndex: uint</text><line style="stroke: #383838; stroke-width: 1.5;" x1="64" x2="201" y1="430.3301" y2="430.3301"/><rect fill="#F8F8F8" height="38.2656" style="stroke: #383838; stroke-width: 1.5;" width="155" x="55" y="498.1992"/><ellipse cx="70" cy="517.332" fill="#C2C2C2" rx="11" ry="11" style="stroke: #383838; stroke-width: 1.0;"/><path d="M72.9731,522.9751 Q72.3921,523.2739 71.7529,523.4233 Q71.1138,523.5728 70.4082,523.5728 Q67.9014,523.5728 66.5815,521.9209 Q65.2617,520.269 65.2617,517.1479 Q65.2617,514.0186 66.5815,512.3667 Q67.9014,510.7148 70.4082,510.7148 Q71.1138,510.7148 71.7612,510.8643 Q72.4087,511.0137 72.9731,511.3125 L72.9731,514.0352 Q72.3423,513.4541 71.7488,513.1843 Q71.1553,512.9146 70.5244,512.9146 Q69.1797,512.9146 68.4949,513.9812 Q67.8101,515.0479 67.8101,517.1479 Q67.8101,519.2397 68.4949,520.3064 Q69.1797,521.373 70.5244,521.373 Q71.1553,521.373 71.7488,521.1033 Q72.3423,520.8335 72.9731,520.2524 Z "/><text fill="#000000" font-family="Source Sans Pro Semibold" font-size="12" font-style="italic" lengthAdjust="spacingAndGlyphs" textLength="60" x="115.5" y="514.8008">«Contract»</text><text fill="#000000" font-family="Source Sans Pro Semibold" font-size="12" lengthAdjust="spacingAndGlyphs" textLength="123" x="84" y="528.9336">StudentSubmissionDB</text><rect fill="#F8F8F8" height="93.1309" style="stroke: #383838; stroke-width: 1.5;" width="160" x="1196.5" y="345.1992"/><ellipse cx="1211.5" cy="364.332" fill="#C2C2C2" rx="11" ry="11" style="stroke: #383838; stroke-width: 1.0;"/><path d="M1214.4731,369.9751 Q1213.8921,370.2739 1213.2529,370.4233 Q1212.6138,370.5728 1211.9082,370.5728 Q1209.4014,370.5728 1208.0815,368.9209 Q1206.7617,367.269 1206.7617,364.1479 Q1206.7617,361.0186 1208.0815,359.3667 Q1209.4014,357.7148 1211.9082,357.7148 Q1212.6138,357.7148 1213.2612,357.8643 Q1213.9087,358.0137 1214.4731,358.3125 L1214.4731,361.0352 Q1213.8423,360.4541 1213.2488,360.1843 Q1212.6553,359.9146 1212.0244,359.9146 Q1210.6797,359.9146 1209.9949,360.9812 Q1209.3101,362.0479 1209.3101,364.1479 Q1209.3101,366.2397 1209.9949,367.3064 Q1210.6797,368.373 1212.0244,368.373 Q1212.6553,368.373 1213.2488,368.1033 Q1213.8423,367.8335 1214.4731,367.2524 Z "/><text fill="#000000" font-family="Source Sans Pro Semibold" font-size="12" font-style="italic" lengthAdjust="spacingAndGlyphs" textLength="44" x="1267.5" y="361.8008">«Struct»</text><text fill="#000000" font-family="Source Sans Pro Semibold" font-size="12" lengthAdjust="spacingAndGlyphs" textLength="128" x="1225.5" y="375.9336">SupervisorAssessment</text><line style="stroke: #383838; stroke-width: 1.5;" x1="1197.5" x2="1355.5" y1="383.4648" y2="383.4648"/><text fill="#000000" font-family="Source Sans Pro Semibold" font-size="11" lengthAdjust="spacingAndGlyphs" textLength="118" x="1202.5" y="398.0996">supervisorID: address</text><text fill="#000000" font-family="Source Sans Pro Semibold" font-size="11" lengthAdjust="spacingAndGlyphs" textLength="101" x="1202.5" y="411.0547">assessmentID: uint</text><text fill="#000000" font-family="Source Sans Pro Semibold" font-size="11" lengthAdjust="spacingAndGlyphs" textLength="67" x="1202.5" y="424.0098">idIndex: uint</text><line style="stroke: #383838; stroke-width: 1.5;" x1="1197.5" x2="1355.5" y1="430.3301" y2="430.3301"/><rect fill="#F8F8F8" height="38.2656" style="stroke: #383838; stroke-width: 1.5;" width="176" x="1188.5" y="498.1992"/><ellipse cx="1203.5" cy="517.332" fill="#C2C2C2" rx="11" ry="11" style="stroke: #383838; stroke-width: 1.0;"/><path d="M1206.4731,522.9751 Q1205.8921,523.2739 1205.2529,523.4233 Q1204.6138,523.5728 1203.9082,523.5728 Q1201.4014,523.5728 1200.0815,521.9209 Q1198.7617,520.269 1198.7617,517.1479 Q1198.7617,514.0186 1200.0815,512.3667 Q1201.4014,510.7148 1203.9082,510.7148 Q1204.6138,510.7148 1205.2612,510.8643 Q1205.9087,511.0137 1206.4731,511.3125 L1206.4731,514.0352 Q1205.8423,513.4541 1205.2488,513.1843 Q1204.6553,512.9146 1204.0244,512.9146 Q1202.6797,512.9146 1201.9949,513.9812 Q1201.3101,515.0479 1201.3101,517.1479 Q1201.3101,519.2397 1201.9949,520.3064 Q1202.6797,521.373 1204.0244,521.373 Q1204.6553,521.373 1205.2488,521.1033 Q1205.8423,520.8335 1206.4731,520.2524 Z "/><text fill="#000000" font-family="Source Sans Pro Semibold" font-size="12" font-style="italic" lengthAdjust="spacingAndGlyphs" textLength="60" x="1259.5" y="514.8008">«Contract»</text><text fill="#000000" font-family="Source Sans Pro Semibold" font-size="12" lengthAdjust="spacingAndGlyphs" textLength="144" x="1217.5" y="528.9336">SupervisorAssessmentDB</text><rect fill="#F8F8F8" height="93.1309" style="stroke: #383838; stroke-width: 1.5;" width="128" x="478.5" y="345.1992"/><ellipse cx="493.5" cy="364.332" fill="#C2C2C2" rx="11" ry="11" style="stroke: #383838; stroke-width: 1.0;"/><path d="M496.4731,369.9751 Q495.8921,370.2739 495.2529,370.4233 Q494.6138,370.5728 493.9082,370.5728 Q491.4014,370.5728 490.0815,368.9209 Q488.7617,367.269 488.7617,364.1479 Q488.7617,361.0186 490.0815,359.3667 Q491.4014,357.7148 493.9082,357.7148 Q494.6138,357.7148 495.2612,357.8643 Q495.9087,358.0137 496.4731,358.3125 L496.4731,361.0352 Q495.8423,360.4541 495.2488,360.1843 Q494.6553,359.9146 494.0244,359.9146 Q492.6797,359.9146 491.9949,360.9812 Q491.3101,362.0479 491.3101,364.1479 Q491.3101,366.2397 491.9949,367.3064 Q492.6797,368.373 494.0244,368.373 Q494.6553,368.373 495.2488,368.1033 Q495.8423,367.8335 496.4731,367.2524 Z "/><text fill="#000000" font-family="Source Sans Pro Semibold" font-size="12" font-style="italic" lengthAdjust="spacingAndGlyphs" textLength="44" x="533.5" y="361.8008">«Struct»</text><text fill="#000000" font-family="Source Sans Pro Semibold" font-size="12" lengthAdjust="spacingAndGlyphs" textLength="96" x="507.5" y="375.9336">TestParticipation</text><line style="stroke: #383838; stroke-width: 1.5;" x1="479.5" x2="605.5" y1="383.4648" y2="383.4648"/><text fill="#000000" font-family="Source Sans Pro Semibold" font-size="11" lengthAdjust="spacingAndGlyphs" textLength="101" x="484.5" y="398.0996">studentID: address</text><text fill="#000000" font-family="Source Sans Pro Semibold" font-size="11" lengthAdjust="spacingAndGlyphs" textLength="58" x="484.5" y="411.0547">testID: uint</text><text fill="#000000" font-family="Source Sans Pro Semibold" font-size="11" lengthAdjust="spacingAndGlyphs" textLength="67" x="484.5" y="424.0098">idIndex: uint</text><line style="stroke: #383838; stroke-width: 1.5;" x1="479.5" x2="605.5" y1="430.3301" y2="430.3301"/><rect fill="#F8F8F8" height="38.2656" style="stroke: #383838; stroke-width: 1.5;" width="144" x="470.5" y="498.1992"/><ellipse cx="485.5" cy="517.332" fill="#C2C2C2" rx="11" ry="11" style="stroke: #383838; stroke-width: 1.0;"/><path d="M488.4731,522.9751 Q487.8921,523.2739 487.2529,523.4233 Q486.6138,523.5728 485.9082,523.5728 Q483.4014,523.5728 482.0815,521.9209 Q480.7617,520.269 480.7617,517.1479 Q480.7617,514.0186 482.0815,512.3667 Q483.4014,510.7148 485.9082,510.7148 Q486.6138,510.7148 487.2612,510.8643 Q487.9087,511.0137 488.4731,511.3125 L488.4731,514.0352 Q487.8423,513.4541 487.2488,513.1843 Q486.6553,512.9146 486.0244,512.9146 Q484.6797,512.9146 483.9949,513.9812 Q483.3101,515.0479 483.3101,517.1479 Q483.3101,519.2397 483.9949,520.3064 Q484.6797,521.373 486.0244,521.373 Q486.6553,521.373 487.2488,521.1033 Q487.8423,520.8335 488.4731,520.2524 Z "/><text fill="#000000" font-family="Source Sans Pro Semibold" font-size="12" font-style="italic" lengthAdjust="spacingAndGlyphs" textLength="60" x="525.5" y="514.8008">«Contract»</text><text fill="#000000" font-family="Source Sans Pro Semibold" font-size="12" lengthAdjust="spacingAndGlyphs" textLength="112" x="499.5" y="528.9336">TestParticipationDB</text><rect fill="#F8F8F8" height="93.1309" style="stroke: #383838; stroke-width: 1.5;" width="130" x="880.5" y="345.1992"/><ellipse cx="899.1" cy="364.332" fill="#C2C2C2" rx="11" ry="11" style="stroke: #383838; stroke-width: 1.0;"/><path d="M902.0731,369.9751 Q901.4921,370.2739 900.8529,370.4233 Q900.2138,370.5728 899.5082,370.5728 Q897.0014,370.5728 895.6815,368.9209 Q894.3617,367.269 894.3617,364.1479 Q894.3617,361.0186 895.6815,359.3667 Q897.0014,357.7148 899.5082,357.7148 Q900.2138,357.7148 900.8612,357.8643 Q901.5087,358.0137 902.0731,358.3125 L902.0731,361.0352 Q901.4423,360.4541 900.8488,360.1843 Q900.2553,359.9146 899.6244,359.9146 Q898.2797,359.9146 897.5949,360.9812 Q896.9101,362.0479 896.9101,364.1479 Q896.9101,366.2397 897.5949,367.3064 Q898.2797,368.373 899.6244,368.373 Q900.2553,368.373 900.8488,368.1033 Q901.4423,367.8335 902.0731,367.2524 Z "/><text fill="#000000" font-family="Source Sans Pro Semibold" font-size="12" font-style="italic" lengthAdjust="spacingAndGlyphs" textLength="44" x="936.9" y="361.8008">«Struct»</text><text fill="#000000" font-family="Source Sans Pro Semibold" font-size="12" lengthAdjust="spacingAndGlyphs" textLength="90" x="913.9" y="375.9336">TestSupervision</text><line style="stroke: #383838; stroke-width: 1.5;" x1="881.5" x2="1009.5" y1="383.4648" y2="383.4648"/><text fill="#000000" font-family="Source Sans Pro Semibold" font-size="11" lengthAdjust="spacingAndGlyphs" textLength="118" x="886.5" y="398.0996">supervisorID: address</text><text fill="#000000" font-family="Source Sans Pro Semibold" font-size="11" lengthAdjust="spacingAndGlyphs" textLength="58" x="886.5" y="411.0547">testID: uint</text><text fill="#000000" font-family="Source Sans Pro Semibold" font-size="11" lengthAdjust="spacingAndGlyphs" textLength="67" x="886.5" y="424.0098">idIndex: uint</text><line style="stroke: #383838; stroke-width: 1.5;" x1="881.5" x2="1009.5" y1="430.3301" y2="430.3301"/><rect fill="#F8F8F8" height="38.2656" style="stroke: #383838; stroke-width: 1.5;" width="138" x="876.5" y="498.1992"/><ellipse cx="891.5" cy="517.332" fill="#C2C2C2" rx="11" ry="11" style="stroke: #383838; stroke-width: 1.0;"/><path d="M894.4731,522.9751 Q893.8921,523.2739 893.2529,523.4233 Q892.6138,523.5728 891.9082,523.5728 Q889.4014,523.5728 888.0815,521.9209 Q886.7617,520.269 886.7617,517.1479 Q886.7617,514.0186 888.0815,512.3667 Q889.4014,510.7148 891.9082,510.7148 Q892.6138,510.7148 893.2612,510.8643 Q893.9087,511.0137 894.4731,511.3125 L894.4731,514.0352 Q893.8423,513.4541 893.2488,513.1843 Q892.6553,512.9146 892.0244,512.9146 Q890.6797,512.9146 889.9949,513.9812 Q889.3101,515.0479 889.3101,517.1479 Q889.3101,519.2397 889.9949,520.3064 Q890.6797,521.373 892.0244,521.373 Q892.6553,521.373 893.2488,521.1033 Q893.8423,520.8335 894.4731,520.2524 Z "/><text fill="#000000" font-family="Source Sans Pro Semibold" font-size="12" font-style="italic" lengthAdjust="spacingAndGlyphs" textLength="60" x="928.5" y="514.8008">«Contract»</text><text fill="#000000" font-family="Source Sans Pro Semibold" font-size="12" lengthAdjust="spacingAndGlyphs" textLength="106" x="905.5" y="528.9336">TestSupervisionDB</text><path d="M550.5,67.2577 C550.5,83.9192 550.5,109.2103 550.5,133.6687 " fill="none" style="stroke: #383838; stroke-width: 1.0;"/><path d="M928.5,67.2577 C928.5,82.4418 928.5,104.793 928.5,127.1495 " fill="none" style="stroke: #383838; stroke-width: 1.0;"/><path d="M618.9924,133.6244 C637.2478,118.7521 658.0527,105.2063 680,97.1992 C732.6082,78.006 753.6606,77.2846 806,97.1992 C823.9595,104.0326 840.9648,114.8405 856.2703,127.0518 " fill="none" style="stroke: #383838; stroke-width: 1.0;"/><path d="M743.5,67.2577 C743.5,85.3966 743.5,113.7632 743.5,140.1486 " fill="none" style="stroke: #383838; stroke-width: 1.0;"/><path d="M645.8691,206.1992 C657.3103,206.1992 668.7514,206.1992 680.1925,206.1992 " fill="none" style="stroke: #383838; stroke-width: 1.0;"/><path d="M100.5,67.2577 C100.5,85.3966 100.5,113.7632 100.5,140.1486 " fill="none" style="stroke: #383838; stroke-width: 1.0;"/><path d="M699.6762,140.182 C684.5856,122.9358 666.0954,106.5687 645,97.1992 C560.7171,59.7649 316.6365,65.5913 230,97.1992 C204.8779,106.3646 181.2527,122.787 161.2345,140.149 " fill="none" style="stroke: #383838; stroke-width: 1.0;"/><path d="M161.2345,140.149 C181.2527,122.787 204.8779,106.3646 230,97.1992 C290.1236,75.2641 746.1836,74.4397 806,97.1992 C823.9595,104.0326 840.9648,114.8405 856.2703,127.0518 " fill="none" style="stroke: #383838; stroke-width: 1.0;"/><path d="M1398.5,67.2577 C1398.5,88.4334 1398.5,123.5482 1398.5,153.1772 " fill="none" style="stroke: #383838; stroke-width: 1.0;"/><path d="M161.2345,140.149 C181.2527,122.787 204.8779,106.3646 230,97.1992 C337.4084,58.0131 1150.8966,59.9733 1259,97.1992 C1291.9836,108.5572 1323.1412,131.2698 1347.6084,153.0359 " fill="none" style="stroke: #383838; stroke-width: 1.0;"/><path d="M325.5,67.2577 C325.5,85.3966 325.5,113.7632 325.5,140.1486 " fill="none" style="stroke: #383838; stroke-width: 1.0;"/><path d="M340.5,438.4308 C340.5,459.0591 340.5,482.1626 340.5,497.9847 " fill="none" style="stroke: #383838; stroke-width: 1.0;"/><path d="M330.8518,272.3833 C332.7954,296.4186 334.9491,323.0532 336.7278,345.0492 " fill="none" style="stroke: #383838; stroke-width: 1.0;"/><path d="M468.4063,278.7153 C443.0982,301.0708 415.9237,325.0749 393.1595,345.1834 " fill="none" style="stroke: #383838; stroke-width: 1.0;"/><path d="M1154.5,67.2577 C1154.5,85.3966 1154.5,113.7632 1154.5,140.1486 " fill="none" style="stroke: #383838; stroke-width: 1.0;"/><path d="M751.5,438.4308 C751.5,459.0591 751.5,482.1626 751.5,497.9847 " fill="none" style="stroke: #383838; stroke-width: 1.0;"/><path d="M1056.7789,272.2662 C1048.694,276.8713 1040.5387,281.2467 1032.5,285.1992 C960.5978,320.552 937.259,316.3748 862.5,345.1992 C848.7563,350.4983 834.1641,356.4053 820.2331,362.1835 " fill="none" style="stroke: #383838; stroke-width: 1.0;"/><path d="M629.0754,278.7153 C653.2989,301.0708 679.3087,325.0749 701.0974,345.1834 " fill="none" style="stroke: #383838; stroke-width: 1.0;"/><path d="M132.5,438.4308 C132.5,459.0591 132.5,482.1626 132.5,497.9847 " fill="none" style="stroke: #383838; stroke-width: 1.0;"/><path d="M256.64,272.3833 C231.6329,296.4186 203.9214,323.0532 181.0361,345.0492 " fill="none" style="stroke: #383838; stroke-width: 1.0;"/><path d="M111.9172,272.3833 C116.0635,296.4186 120.6581,323.0532 124.4526,345.0492 " fill="none" style="stroke: #383838; stroke-width: 1.0;"/><path d="M1276.5,438.4308 C1276.5,459.0591 1276.5,482.1626 1276.5,497.9847 " fill="none" style="stroke: #383838; stroke-width: 1.0;"/><path d="M1198.0281,272.3833 C1213.8357,296.4186 1231.3528,323.0532 1245.8192,345.0492 " fill="none" style="stroke: #383838; stroke-width: 1.0;"/><path d="M1363.5397,259.3561 C1345.7255,286.4423 1324.2639,319.0746 1307.1092,345.1581 " fill="none" style="stroke: #383838; stroke-width: 1.0;"/><path d="M542.5,438.4308 C542.5,459.0591 542.5,482.1626 542.5,497.9847 " fill="none" style="stroke: #383838; stroke-width: 1.0;"/><path d="M402.923,272.3833 C431.0397,296.4186 462.1972,323.0532 487.9283,345.0492 " fill="none" style="stroke: #383838; stroke-width: 1.0;"/><path d="M841.801,274.2857 C835.7261,278.1619 829.5938,281.8412 823.5,285.1992 C822.2399,285.8936 689.1452,336.2548 606.6025,367.4668 " fill="none" style="stroke: #383838; stroke-width: 1.0;"/><path d="M945.5,438.4308 C945.5,459.0591 945.5,482.1626 945.5,497.9847 " fill="none" style="stroke: #383838; stroke-width: 1.0;"/><path d="M1079.9314,272.3833 C1052.8512,296.4186 1022.8424,323.0532 998.0598,345.0492 " fill="none" style="stroke: #383838; stroke-width: 1.0;"/><path d="M935.7588,285.406 C937.6269,305.7899 939.5767,327.0658 941.2368,345.1805 " fill="none" style="stroke: #383838; stroke-width: 1.0;"/></g></svg>